<svg width="40" height="41" viewBox="0 0 40 41" fill="none" xmlns="http://www.w3.org/2000/svg">
<rect y="0.5" width="40" height="40" rx="8" fill="#6357F4"/>
<g clip-path="url(#clip0_179_20811)">
<path d="M17.5307 19.496H9.464C9.07606 19.4956 8.70409 19.3415 8.42966 19.0673C8.15522 18.7931 8.00071 18.4213 8 18.0333V9.96667C8 9.57791 8.15434 9.20506 8.42911 8.93005C8.70387 8.65503 9.07658 8.50035 9.46533 8.5H17.532C17.9205 8.50071 18.2929 8.65554 18.5674 8.93052C18.8418 9.2055 18.996 9.57814 18.996 9.96667V18.0333C18.996 18.84 18.34 19.496 17.5307 19.496ZM17.5307 32.492H9.464C9.0756 32.4916 8.70323 32.3371 8.42871 32.0623C8.1542 31.7876 8 31.4151 8 31.0267V22.96C8 22.152 8.656 21.496 9.46533 21.496H17.532C18.34 21.496 18.996 22.152 18.996 22.9613V31.028C18.996 31.836 18.34 32.492 17.5307 32.492ZM30.5267 19.496H22.46C22.0721 19.4956 21.7001 19.3415 21.4257 19.0673C21.1512 18.7931 20.9967 18.4213 20.996 18.0333V9.96667C20.996 9.57791 21.1503 9.20506 21.4251 8.93005C21.6999 8.65503 22.0726 8.50035 22.4613 8.5H30.528C30.9165 8.50071 31.2889 8.65554 31.5634 8.93052C31.8378 9.2055 31.992 9.57814 31.992 9.96667V18.0333C31.992 18.84 31.336 19.496 30.5267 19.496ZM30.5267 32.492H22.46C22.0715 32.4916 21.699 32.3372 21.4242 32.0624C21.1495 31.7877 20.995 31.4152 20.9947 31.0267V22.96C20.9954 22.5715 21.1502 22.1991 21.4252 21.9246C21.7002 21.6502 22.0728 21.496 22.4613 21.496H30.528C31.336 21.496 31.992 22.152 31.992 22.9613V31.028C31.992 31.836 31.336 32.492 30.5267 32.492Z" fill="white"/>
</g>
<defs>
<clipPath id="clip0_179_20811">
<rect width="24" height="24" fill="white" transform="translate(8 8.5)"/>
</clipPath>
</defs>
</svg>
