<svg viewBox="0 0 24 24" fill="none" xmlns="http://www.w3.org/2000/svg">
<defs>
<linearGradient id="gradient1" x1="2.35938" y1="13.7243" x2="21.1843" y2="13.7243" gradientUnits="userSpaceOnUse">
<stop stop-color="#B408D7"/>
<stop offset="1" stop-color="#576AF4"/>
</linearGradient>
<linearGradient id="gradient2" x1="6.35156" y1="4.58768" x2="17.1338" y2="4.58768" gradientUnits="userSpaceOnUse">
<stop stop-color="#B408D7"/>
<stop offset="1" stop-color="#576AF4"/>
</linearGradient>
</defs>
<path d="M14.4424 9.03516C17.0333 9.03525 19.2029 10.8387 19.7646 13.2588L20.1777 12.9424C20.4523 12.7323 20.8455 12.785 21.0557 13.0596C21.2656 13.3342 21.213 13.7274 20.9385 13.9375L19.9014 14.7314C19.8459 16.0573 19.3179 17.2611 18.4814 18.1787L17.1465 20.5547C16.9918 20.8299 16.7004 20.9999 16.3848 21H14.8262C14.585 20.9999 14.3898 20.8046 14.3896 20.5635V19.9629H9.375V20.5635C9.37486 20.8047 9.1797 21 8.93848 21H7.41797C7.08245 21 6.77659 20.808 6.63086 20.5059L5.70898 18.5928C5.25188 18.1883 4.86267 17.7086 4.56152 17.1729L2.77148 16.0576C2.51532 15.8981 2.35938 15.6172 2.35938 15.3154V13.1152C2.35943 12.8741 2.55481 12.6789 2.7959 12.6787H4.1748C4.37935 12.0998 4.6792 11.5655 5.05469 11.0947L4.0918 9.42871C3.99084 9.25405 4.11671 9.03543 4.31836 9.03516H14.4424ZM7.4248 12.3203C6.82889 12.3204 6.34583 12.8035 6.3457 13.3994C6.3457 13.9954 6.82881 14.4784 7.4248 14.4785C8.02091 14.4785 8.50391 13.9955 8.50391 13.3994C8.50378 12.8034 8.02083 12.3203 7.4248 12.3203Z" fill="url(#gradient1)"/>
<path d="M11.7402 2.3457C14.7189 2.34574 17.1338 4.76054 17.1338 7.73926C17.1338 7.84914 17.1286 7.95815 17.1221 8.06641C16.2979 7.72298 15.3934 7.5332 14.4443 7.5332H6.35156C6.45985 4.64994 8.83048 2.3457 11.7402 2.3457ZM10.5439 6.01562L11.7412 7.21289L12.9385 6.01562L11.7412 4.81836L10.5439 6.01562Z" fill="url(#gradient2)"/>
</svg>
