<svg width="82" height="46" viewBox="0 0 82 46" fill="none" xmlns="http://www.w3.org/2000/svg">
<g clip-path="url(#clip0_147_2415)">
<mask id="mask0_147_2415" style="mask-type:luminance" maskUnits="userSpaceOnUse" x="-1" y="0" width="83" height="46">
<path d="M-0.000213623 0H81.7776V46H-0.000213623V0Z" fill="white"/>
</mask>
<g mask="url(#mask0_147_2415)">
<path d="M11.1468 39.5376C12.7258 39.5376 13.9712 38.2698 13.9712 36.7019C13.9712 35.1341 12.7258 33.8664 11.1468 33.8664C9.55655 33.8664 8.31114 35.1341 8.31114 36.7019C8.31114 38.2698 9.55655 39.5376 11.1468 39.5376ZM7.08801 36.7019C7.08801 34.478 8.85612 32.6987 11.1468 32.6987C13.4375 32.6987 15.1943 34.478 15.1943 36.7019C15.1943 38.9259 13.4375 40.7051 11.1468 40.7051C8.85612 40.7051 7.08801 38.9259 7.08801 36.7019Z" fill="#161616"/>
<path d="M21.0975 32.8098H22.2874V39.4484H26.3572V40.5938H21.0975V32.8098Z" fill="#161616"/>
<path d="M33.1054 37.8472L30.0807 32.8098H31.4485L33.7281 36.6239L35.8964 32.8098H37.2198L34.2952 37.8249V40.5938H33.1054V37.8472Z" fill="#161616"/>
<path d="M46.0477 39.5376C47.6267 39.5376 48.8721 38.2698 48.8721 36.7019C48.8721 35.1341 47.6267 33.8664 46.0477 33.8664C44.4574 33.8664 43.212 35.1341 43.212 36.7019C43.212 38.2698 44.4574 39.5376 46.0477 39.5376ZM41.9889 36.7019C41.9889 34.478 43.757 32.6987 46.0477 32.6987C48.3384 32.6987 50.0952 34.478 50.0952 36.7019C50.0952 38.9259 48.3384 40.7051 46.0477 40.7051C43.757 40.7051 41.9889 38.9259 41.9889 36.7019Z" fill="#161616"/>
<path d="M57.1881 35.4227V40.5935H55.9983V32.4871L61.5025 37.9804V32.8096H62.6924V40.916L57.1881 35.4227Z" fill="#161616"/>
<path d="M69.0065 32.8098H74.5997V33.9551H70.1964V36.0457H74.2662V37.1911H70.1964V39.4484H74.711V40.5938H69.0065V32.8098Z" fill="#161616"/>
</g>
<path d="M7.55487 16.6346C7.55487 22.9995 12.7331 28.1777 19.098 28.1777C25.4628 28.1777 30.6411 22.9995 30.6411 16.6346C30.6411 10.2698 25.4628 5.09152 19.098 5.09152C12.7331 5.09152 7.55487 10.2698 7.55487 16.6346ZM12.7942 16.6346C12.7942 13.1587 15.6221 10.3309 19.098 10.3309C22.5738 10.3309 25.4017 13.1587 25.4017 16.6346C25.4017 20.1105 22.5738 22.9383 19.098 22.9383C15.6221 22.9383 12.7942 20.1105 12.7942 16.6346Z" fill="url(#paint0_linear_147_2415)"/>
<path d="M31.7173 5.30599V27.9453H38.045V18.1143L46.5442 27.9453H50.6107V14.236H45.8611L38.045 5.30599H31.7173Z" fill="url(#paint1_linear_147_2415)"/>
<path d="M45.8029 5.30444V10.1152C48.4599 10.1152 50.6137 7.96137 50.6137 5.30444H45.8029Z" fill="url(#paint2_linear_147_2415)"/>
<path d="M60.6177 5.30599H59.4075H55.8069V27.9453H59.4075H60.6177H74.5423C74.5588 27.9453 74.5721 27.932 74.5721 27.9155V23.4355H60.6177V18.686H73.1936V14.236H60.6177V9.78601H74.2424V5.30599H60.6177Z" fill="url(#paint3_linear_147_2415)"/>
</g>
<defs>
<linearGradient id="paint0_linear_147_2415" x1="19.098" y1="3.24122" x2="19.098" y2="34.904" gradientUnits="userSpaceOnUse">
<stop stop-color="#B408D7"/>
<stop offset="1" stop-color="#0D0EC9"/>
</linearGradient>
<linearGradient id="paint1_linear_147_2415" x1="41.164" y1="3.2414" x2="41.164" y2="34.9042" gradientUnits="userSpaceOnUse">
<stop stop-color="#B408D7"/>
<stop offset="1" stop-color="#0D0EC9"/>
</linearGradient>
<linearGradient id="paint2_linear_147_2415" x1="48.2083" y1="3.23986" x2="48.2083" y2="34.9026" gradientUnits="userSpaceOnUse">
<stop stop-color="#B408D7"/>
<stop offset="1" stop-color="#0D0EC9"/>
</linearGradient>
<linearGradient id="paint3_linear_147_2415" x1="65.1895" y1="3.2414" x2="65.1895" y2="34.9042" gradientUnits="userSpaceOnUse">
<stop stop-color="#B408D7"/>
<stop offset="1" stop-color="#0D0EC9"/>
</linearGradient>
<clipPath id="clip0_147_2415">
<rect width="81.7778" height="46" fill="white"/>
</clipPath>
</defs>
</svg>
