<svg width="2889" height="2889" viewBox="0 0 2889 2889" fill="none" xmlns="http://www.w3.org/2000/svg">
<path d="M1444.3 2888.6C2241.96 2888.6 2888.6 2241.96 2888.6 1444.3C2888.6 646.635 2241.96 0 1444.3 0C646.635 0 0 646.635 0 1444.3C0 2241.96 646.635 2888.6 1444.3 2888.6Z" fill="#F3BA2C"/>
<path d="M2064 1832.7L2063.8 1832.8L1444.3 2452.4L824.9 1833L824.6 1832.7L1052.7 1605.2L1444.3 1996.7L1836 1605L2064 1832.7Z" fill="white"/>
<path d="M2063.8 1055.8L1836 1283.6L1444.3 891.899L1052.7 1283.4L824.899 1055.6L1444.3 436.199L2063.8 1055.8Z" fill="white"/>
<path d="M2224.56 1216.61L1996.74 1444.44L2224.56 1672.27L2452.39 1444.44L2224.56 1216.61Z" fill="white"/>
<path d="M664.014 1216.49L436.187 1444.32L664.014 1672.15L891.842 1444.32L664.014 1216.49Z" fill="white"/>
<path d="M1675.4 1444.2H1675.5L1444.3 1213L1273.5 1383.8L1253.9 1403.4L1213.4 1443.9L1213.1 1444.2L1213.4 1444.5L1444.4 1675.5L1675.6 1444.3L1675.7 1444.2H1675.4Z" fill="white"/>
</svg>
