<svg width="40" height="41" viewBox="0 0 40 41" fill="none" xmlns="http://www.w3.org/2000/svg">
<rect y="0.5" width="40" height="40" rx="8" fill="#6357F4"/>
<g clip-path="url(#clip0_298_16928)">
<path d="M19.9417 8.19238C26.4577 8.19238 31.7617 13.4964 31.7617 20.0124C31.7617 26.5284 26.4577 31.8324 19.9417 31.8324C13.4257 31.8324 8.12172 26.5284 8.12172 20.0124C8.12172 13.4964 13.4257 8.19238 19.9417 8.19238ZM19.9417 9.66838C14.2417 9.66838 9.59772 14.3124 9.59772 20.0124C9.59772 20.5284 9.64572 21.0324 9.71772 21.5244C12.1777 16.1724 18.0097 18.0924 19.9417 20.0124C21.6937 21.7644 27.1297 21.6684 30.0697 17.9124C29.0857 13.2084 24.9217 9.66838 19.9417 9.66838Z" fill="white"/>
</g>
<defs>
<clipPath id="clip0_298_16928">
<rect width="24" height="24" fill="white" transform="matrix(-1 0 0 1 32 8)"/>
</clipPath>
</defs>
</svg>
