<svg width="141" height="140" viewBox="0 0 141 140" fill="none" xmlns="http://www.w3.org/2000/svg">
<g opacity="0.67">
<path d="M98.287 102.378C99.1279 102.554 100.013 102.73 100.898 102.863C101.754 102.98 102.639 103.083 103.554 103.171C107.847 98.9876 111.299 93.9678 113.689 88.4637C116.079 82.9595 117.362 76.971 117.495 71.0265L113.202 70.9385C113.113 76.1344 112.051 81.3743 110.015 86.1739C109.602 86.3207 109.175 86.4528 108.732 86.5702C108.289 86.6877 107.861 86.8051 107.448 86.9225C106.607 87.0986 105.722 87.2748 104.882 87.4509C103.864 89.3443 102.713 91.1937 101.429 92.9551C100.102 94.6723 98.641 96.3016 97.0478 97.7987C93.9054 100.749 90.2321 103.215 86.2489 104.976C86.1161 105.416 86.0275 105.857 85.8948 106.253C85.7767 106.693 85.6587 107.134 85.5407 107.574C85.3932 107.985 85.2456 108.411 85.0981 108.851C84.9653 109.291 84.7884 109.732 84.6113 110.172C89.6125 108.455 94.2595 105.769 98.287 102.378Z" fill="#FFA600"/>
<path d="M83.9914 102.642C87.178 101.365 90.1875 99.6038 92.843 97.4462C95.4985 95.3326 97.8884 92.7786 99.8358 89.9605C100.101 89.6523 100.323 89.256 100.544 88.9037L100.898 88.3753C100.987 88.1992 101.119 88.0231 101.208 87.8029C101.414 87.4506 101.636 87.0837 101.872 86.7021L102.447 85.5572L102.58 85.293L102.713 84.9848L102.978 84.4123L103.244 83.8399C103.332 83.6197 103.421 83.4436 103.465 83.2235C103.642 82.8418 103.804 82.4455 103.952 82.0346L104.35 80.8457C104.527 80.4494 104.616 80.009 104.748 79.6127C104.837 79.2164 104.97 78.7761 105.058 78.3798L105.368 77.1469L105.589 75.8699C105.855 74.1967 106.032 72.4793 106.076 70.7621C106.076 70.674 106.165 70.5859 106.342 70.5859C106.474 70.5859 106.607 70.674 106.607 70.7621C106.519 74.2407 105.943 77.6753 104.881 80.9777L104.439 82.2107C104.306 82.607 104.129 83.0033 103.996 83.3996C103.908 83.6051 103.819 83.8106 103.731 84.016L103.465 84.5885L103.199 85.2049L103.067 85.4691L102.934 85.7774L102.314 86.9222C102.137 87.3185 101.916 87.6708 101.695 88.0671C101.577 88.2432 101.459 88.4193 101.341 88.5955L100.987 89.1679L100.677 89.6963L100.5 89.9605L100.278 90.2247L99.526 91.2815C99.2605 91.6338 98.9949 91.986 98.7293 92.3383C98.5966 92.4704 98.4638 92.6465 98.3311 92.8227L97.8885 93.307L97.4901 93.7914L97.2688 94.0556L97.0475 94.2758L96.1182 95.2445C95.8231 95.5381 95.5133 95.8316 95.1887 96.1252C94.8789 96.4334 94.5691 96.6976 94.215 97.0058C93.9052 97.27 93.5955 97.5782 93.2414 97.8424C90.5417 100 87.4879 101.761 84.3013 103.082C83.3719 107.442 81.6016 111.845 78.9903 116.028C78.9608 116.087 78.9018 116.131 78.8132 116.16C73.7678 117.041 68.6339 117.085 63.5885 116.336C58.5874 115.544 53.6305 114.003 49.1162 111.669C48.9834 111.581 48.9391 111.449 48.9834 111.317C49.0719 111.184 49.2047 111.14 49.3375 111.185C53.8075 113.518 58.6758 115.015 63.6327 115.808C66.1112 116.16 68.6339 116.336 71.1124 116.336L73.0155 116.292C73.6351 116.234 74.2547 116.19 74.8743 116.16C75.4939 116.116 76.1135 116.028 76.7331 115.94L77.6626 115.808C77.9872 115.749 78.2969 115.705 78.592 115.676C81.2032 111.493 82.9735 107.089 83.9029 102.774C83.9029 102.715 83.9324 102.671 83.9914 102.642Z" fill="#FFA600"/>
<path d="M105.326 70.7617C105.326 70.3654 105.813 70.0132 106.344 70.0132C106.875 70.0132 107.318 70.3654 107.318 70.8058C107.318 71.2461 106.831 71.5543 106.3 71.5543C105.769 71.5103 105.326 71.158 105.326 70.7617Z" fill="#FFA600"/>
<path d="M49.6926 110.523C49.2057 110.303 48.5862 110.479 48.3206 110.964C48.0551 111.448 48.2764 112.021 48.7632 112.285C49.2943 112.549 49.9139 112.373 50.1351 111.888C50.3564 111.404 50.1794 110.788 49.6926 110.523Z" fill="#FFA600"/>
<path fill-rule="evenodd" clip-rule="evenodd" d="M89.7467 93.5267C93.9512 90.1362 97.2706 85.6007 99.1295 80.5369C99.159 80.5076 99.2031 80.4782 99.2622 80.4489C99.7637 80.3314 100.251 80.1994 100.723 80.0526L101.475 79.7884C101.741 79.7296 101.991 79.6563 102.228 79.5682C102.7 79.3627 103.186 79.1719 103.688 78.9958L104.44 78.6875L105.148 78.3353C105.237 78.2912 105.37 78.2912 105.458 78.3353C105.547 78.4233 105.591 78.5114 105.547 78.5995C104.485 83.0028 102.493 87.1859 99.8375 90.8847C97.1378 94.5835 93.7742 97.7539 89.9238 100.22C89.8353 100.264 89.7467 100.22 89.6582 100.176C89.5697 100.088 89.5254 99.9996 89.5254 99.9115C89.5844 99.3538 89.6435 98.8254 89.7025 98.3263C89.7467 97.7979 89.7467 97.2695 89.7467 96.7411C89.7909 96.2127 89.7909 95.7284 89.7467 95.2C89.7467 94.6716 89.732 94.1578 89.7025 93.6588C89.7025 93.6001 89.7172 93.5561 89.7467 93.5267ZM102.272 80.0085C101.829 80.1553 101.387 80.2874 100.944 80.4048C100.501 80.5369 100.059 80.669 99.6162 80.8011C97.7131 85.865 94.3938 90.4444 90.1451 93.879C90.2336 95.6843 90.2336 97.5778 90.0566 99.4712C93.6857 97.1374 96.8722 94.0991 99.3949 90.5765C101.962 87.0979 103.821 83.1349 104.927 78.9517C104.042 79.348 103.157 79.7003 102.272 80.0085Z" fill="#FFA600"/>
<g opacity="0.2">
<path d="M79.169 104.007C79.405 103.948 79.6411 103.874 79.8772 103.786L80.5852 103.61C80.8065 103.522 81.0278 103.478 81.2491 103.39L81.9573 103.17C81.0721 106.957 79.5674 110.744 77.443 114.354L75.584 114.619C75.3185 114.663 75.0087 114.663 74.6989 114.663L73.7695 114.751C76.1595 111.316 77.974 107.661 79.169 104.007Z" fill="#FFA600"/>
</g>
<g opacity="0.4">
<path d="M74.4778 104.799L75.8941 104.623C76.381 104.579 76.8678 104.491 77.3104 104.403C77.1333 104.843 76.9563 105.283 76.7793 105.724C76.558 106.208 76.3809 106.649 76.1596 107.089C75.717 107.97 75.2598 108.85 74.7877 109.731C74.2861 110.611 73.7402 111.477 73.1501 112.329C72.8845 112.769 72.5747 113.165 72.2649 113.606C71.9698 114.017 71.6601 114.428 71.3355 114.839C70.7159 114.883 70.0963 114.839 69.4767 114.839L68.5473 114.795C68.2817 114.795 67.9719 114.795 67.6621 114.751C70.4946 111.668 72.796 108.278 74.4778 104.799Z" fill="#FFA600"/>
</g>
<g opacity="0.6">
<path d="M69.6963 104.975C70.6257 105.063 71.5994 104.975 72.573 104.975C70.6699 108.366 68.2357 111.58 65.2262 114.53L64.2967 114.398L63.8541 114.354L63.3674 114.266L61.5527 113.958C64.8278 111.272 67.5276 108.234 69.6963 104.975Z" fill="#FFA600"/>
</g>
<g opacity="0.8">
<path d="M64.918 104.536L65.272 104.624C65.3901 104.624 65.508 104.638 65.626 104.668L66.3342 104.756L67.0424 104.844L67.7947 104.888C65.4491 108.014 62.5722 110.876 59.2086 113.386L57.3941 112.902C56.8187 112.726 56.2433 112.506 55.668 112.33C56.5531 111.757 57.4384 111.185 58.2793 110.568C59.1054 109.952 59.902 109.321 60.6691 108.675C61.4363 108.029 62.1739 107.368 62.882 106.693C63.5902 105.989 64.2983 105.284 64.918 104.536Z" fill="#FFA600"/>
</g>
<path d="M60.2705 103.479L61.6425 103.875C61.8637 103.919 62.1293 103.963 62.3506 104.007L63.0588 104.183C60.3148 106.957 57.0839 109.423 53.3662 111.449C52.2598 110.964 51.1091 110.48 50.0469 109.907C53.8973 108.19 57.3495 105.988 60.2705 103.479Z" fill="#FFA600"/>
<path d="M79.2135 101.893C77.1334 102.422 75.0089 102.774 72.8403 102.906C70.6717 103.038 68.4588 102.994 66.3344 102.686C62.0414 102.157 57.8811 100.748 54.1191 98.5908L55.3584 96.3892C58.8548 98.4147 62.7052 99.6917 66.6442 100.22C68.6358 100.484 70.6717 100.528 72.6633 100.396C74.6549 100.308 76.6465 99.9558 78.5938 99.4715L79.2135 101.893Z" fill="#FFA600"/>
<path fill-rule="evenodd" clip-rule="evenodd" d="M96.6059 104.843C97.2255 104.374 97.8452 103.889 98.4648 103.39C98.5533 103.302 98.7303 103.346 98.8188 103.434L100.412 105.372C100.545 105.46 100.501 105.636 100.412 105.724C99.7335 106.252 99.0696 106.766 98.4205 107.265C98.2878 107.353 98.1108 107.353 98.0223 107.221L96.5617 105.196C96.4732 105.108 96.4731 104.931 96.6059 104.843ZM98.5975 103.963L97.0928 105.152L98.2877 106.693L99.8368 105.504L98.5975 103.963Z" fill="#FFA600"/>
<path fill-rule="evenodd" clip-rule="evenodd" d="M92.9783 107.266C93.2881 107.09 93.6422 106.869 93.952 106.649L94.9699 105.989C95.1027 105.945 95.2355 105.945 95.324 106.077L96.7402 108.146C96.8287 108.278 96.7845 108.411 96.6517 108.499L95.5896 109.203C95.2355 109.423 94.8814 109.644 94.5273 109.864C94.3946 109.952 94.2176 109.908 94.1291 109.776L92.8898 107.618C92.8013 107.486 92.8455 107.354 92.9783 107.266ZM95.0584 106.561C94.5273 106.913 93.9963 107.251 93.4652 107.574L94.4831 109.291C95.0437 108.939 95.6043 108.587 96.1649 108.234L95.0584 106.561Z" fill="#FFA600"/>
<path fill-rule="evenodd" clip-rule="evenodd" d="M89.0822 109.291C89.2887 109.203 89.4805 109.129 89.6576 109.07L90.1886 108.762L91.2066 108.234C91.3394 108.19 91.5164 108.234 91.5607 108.366L92.7556 110.568C92.8441 110.656 92.7999 110.832 92.6671 110.92L91.5164 111.492L90.9411 111.756C90.7641 111.845 90.5723 111.933 90.3657 112.021C90.233 112.109 90.1002 112.021 90.0117 111.889L88.9937 109.643C88.9052 109.511 88.9937 109.335 89.0822 109.291ZM91.2509 108.806C90.6755 109.114 90.1444 109.423 89.5691 109.687L90.4099 111.448C90.9853 111.184 91.5606 110.876 92.1803 110.568L91.2509 108.806Z" fill="#FFA600"/>
<path fill-rule="evenodd" clip-rule="evenodd" d="M85.0551 110.92L85.6305 110.744C85.8075 110.686 85.9846 110.612 86.1616 110.524L87.268 110.084C87.4008 110.04 87.5336 110.128 87.6221 110.26L88.5958 112.55C88.64 112.682 88.5515 112.814 88.4187 112.902L87.268 113.342C87.0615 113.43 86.8549 113.504 86.6484 113.562L86.0731 113.782C85.8961 113.827 85.7633 113.738 85.719 113.606L84.9223 111.273C84.8338 111.14 84.9224 110.964 85.0551 110.92ZM87.2237 110.656L86.3386 111.008C86.0435 111.126 85.7485 111.243 85.4534 111.361L86.1173 113.21C86.4418 113.093 86.7517 112.975 87.0468 112.858L87.9761 112.506L87.2237 110.656Z" fill="#FFA600"/>
<path d="M109.618 74.9013C109.043 74.8132 108.6 74.5931 108.246 74.2408C107.936 73.9326 107.759 73.4922 107.804 73.0519C107.804 72.6116 108.069 72.2153 108.467 71.9511C108.822 71.6428 109.353 71.5107 109.884 71.5107C110.415 71.5107 110.946 71.7309 111.3 72.0832C111.61 72.4354 111.831 72.8758 111.787 73.3601C111.743 73.8445 111.477 74.2848 111.079 74.549C110.68 74.8573 110.149 74.9894 109.618 74.9013Z" fill="#FFA600"/>
<path d="M108.687 79.6565C107.625 79.3923 106.917 78.4677 107.138 77.631C107.227 77.1907 107.492 76.8384 107.935 76.5742C108.333 76.3541 108.864 76.266 109.395 76.3541C109.926 76.4421 110.413 76.7063 110.723 77.0586C110.989 77.4549 111.166 77.9393 111.033 78.4236C110.812 79.3924 109.794 79.9648 108.687 79.6565Z" fill="#FFA600"/>
<path d="M107.183 84.2805C106.697 84.1043 106.298 83.7521 106.077 83.3117C105.959 83.1356 105.885 82.9301 105.856 82.6953C105.797 82.4898 105.811 82.2696 105.9 82.0348C106.033 81.6385 106.387 81.3303 106.829 81.1541C107.228 80.978 107.759 80.934 108.29 81.0661C108.821 81.2422 109.264 81.5504 109.529 81.9907C109.795 82.387 109.839 82.8714 109.706 83.3558C109.618 83.5906 109.485 83.7961 109.308 83.9722C109.131 84.1043 108.954 84.2365 108.688 84.3245C108.246 84.5007 107.715 84.5006 107.183 84.2805Z" fill="#FFA600"/>
<path d="M28.6709 77.5868C28.0956 78.2473 27.5203 78.9079 26.9892 79.6124C26.4286 80.2876 25.8827 80.9921 25.3516 81.726C26.8563 87.5383 29.5119 93.0425 33.141 97.8421C36.7259 102.642 41.2402 106.737 46.3741 109.863L48.587 106.208C44.117 103.478 40.1338 99.9557 36.9472 95.8166C37.1243 94.9359 37.3456 94.0552 37.6111 93.2186C37.7291 92.8076 37.8471 92.3967 37.9651 91.9857C38.1126 91.5747 38.2601 91.1637 38.4077 90.7528C37.2127 88.9474 36.1948 87.0099 35.3539 85.0285C34.4688 83.047 33.8048 80.9774 33.318 78.8638C32.2558 74.6366 32.0346 70.2333 32.4771 65.9181C31.828 65.331 31.1936 64.6998 30.574 64.0246C29.9544 63.3641 29.3791 62.6596 28.7595 61.9551C27.7416 67.107 27.7415 72.435 28.6709 77.5868Z" fill="#FFA600"/>
<path d="M35.6197 65.1695L35.4427 66.4464L35.3542 67.7234C35.3099 68.1637 35.3099 68.56 35.3099 69.0003V69.6608C35.2804 69.8663 35.2657 70.0718 35.2657 70.2773L35.3099 71.5543C35.3099 71.7891 35.3247 72.0093 35.3542 72.2148L35.3985 72.8312L35.4427 73.4917C35.4869 73.7119 35.4869 73.888 35.5311 74.1082L35.7082 75.3851C35.9738 77.0584 36.3278 78.7317 36.8589 80.3609C37.3457 81.9901 37.9654 83.5753 38.7178 85.1165C41.6388 91.3251 46.4629 96.6091 52.305 100.132C52.4378 100.176 52.4377 100.352 52.3492 100.44C52.3049 100.572 52.1279 100.616 52.0394 100.572C46.1088 97.0054 41.2405 91.6334 38.2309 85.4247C37.5228 83.8395 36.9032 82.2103 36.3721 80.5811C35.8705 78.9371 35.4722 77.2492 35.1772 75.5172C35.1182 75.1063 35.0591 74.6806 35.0001 74.2403C34.9706 74.0348 34.9411 73.8293 34.9116 73.6238L34.8673 72.9633C34.8673 72.523 34.823 72.0827 34.7788 71.6864V70.3654C34.7788 68.6481 34.823 66.8867 35.0886 65.2135C31.7692 62.2192 28.8039 58.5205 26.4583 54.1612C26.4288 54.1025 26.4141 54.0291 26.4141 53.941C29.9547 44.3858 36.5934 36.0635 45.1794 30.6034C45.3122 30.5154 45.4893 30.5594 45.5778 30.6915C45.6663 30.8236 45.622 30.9557 45.4892 31.0438C37.0359 36.4158 30.4416 44.606 26.9894 54.029C29.2909 58.3443 32.2561 62.0431 35.5311 64.9933C35.5902 65.052 35.6197 65.1107 35.6197 65.1695Z" fill="#FFA600"/>
<path d="M52.7016 99.5151C53.0557 99.6912 53.1442 100.264 52.8344 100.748C52.5689 101.188 52.0378 101.409 51.6837 101.188C51.2854 100.968 51.2412 100.396 51.551 99.9554C51.8165 99.4711 52.3476 99.2949 52.7016 99.5151Z" fill="#FFA600"/>
<path d="M45.8864 31.6608C46.3289 31.3526 46.4617 30.7362 46.1961 30.2958C45.9306 29.8115 45.2667 29.6794 44.8241 29.9876C44.3373 30.2958 44.2045 30.9123 44.5143 31.3967C44.7799 31.837 45.4438 31.9691 45.8864 31.6608Z" fill="#FFA600"/>
<path fill-rule="evenodd" clip-rule="evenodd" d="M40.6637 74.6807C41.5046 80.0087 43.806 85.0725 47.2581 89.2557C47.2876 89.285 47.3024 89.3291 47.3024 89.3878C47.1549 89.8868 47.0221 90.3859 46.9041 90.8849L46.7713 91.6335L46.6385 92.382C46.5205 92.9104 46.4319 93.4388 46.3729 93.9672C46.2844 94.4956 46.2402 95.024 46.1959 95.5524C46.1959 95.6405 46.1517 95.7286 46.0189 95.7726C45.9304 95.8166 45.8419 95.8166 45.7977 95.7726C42.4783 92.6022 39.7785 88.8153 37.9197 84.6762C36.0166 80.5371 34.9544 76.0457 34.7773 71.4663C34.7773 71.3782 34.8659 71.3342 34.9544 71.2901C35.043 71.2461 35.1757 71.2461 35.2199 71.3342L35.8838 71.7745L36.5477 72.2589C36.9902 72.5524 37.4328 72.8313 37.8754 73.0955C38.318 73.3597 38.7606 73.6239 39.2031 73.8881C39.6752 74.123 40.1326 74.3578 40.5752 74.5926C40.6342 74.622 40.6637 74.6513 40.6637 74.6807ZM46.1959 92.2499C46.373 91.3106 46.5795 90.4152 46.8155 89.5639C43.3191 85.3367 41.0177 80.2289 40.1768 74.8568C39.3359 74.4606 38.5393 74.0202 37.6984 73.5359C36.9018 73.0515 36.1494 72.5231 35.3527 71.9506C35.574 76.2659 36.6362 80.5371 38.4065 84.4561C40.1768 88.4191 42.6996 91.9857 45.7977 95.024C45.8862 94.0993 46.0189 93.1306 46.1959 92.2499Z" fill="#FFA600"/>
<g opacity="0.2">
<path d="M36.8583 60.3257C36.5927 61.2504 36.3715 62.1751 36.1502 63.0998C33.362 60.4578 30.795 57.2874 28.7148 53.6327C28.9361 53.1043 29.1574 52.4878 29.3787 51.9594C29.6443 51.387 29.9098 50.8145 30.1754 50.2861C31.99 54.073 34.2471 57.4636 36.8583 60.3257Z" fill="#FFA600"/>
</g>
<g opacity="0.4">
<path d="M38.4961 55.8781C38.4075 56.0983 38.2747 56.3185 38.1862 56.5386L37.9207 57.1991L37.6551 57.8596C37.5666 58.0798 37.5223 58.3 37.4338 58.5201C34.9996 55.5259 32.9195 52.0473 31.3262 48.1283C31.636 47.5999 31.9016 47.0715 32.2556 46.5431L33.2293 45.002C34.5128 49.009 36.2832 52.6637 38.4961 55.8781Z" fill="#FFA600"/>
</g>
<g opacity="0.6">
<path d="M40.708 51.6517C40.4424 52.048 40.221 52.4884 39.9555 52.8847C39.7342 53.281 39.5129 53.7213 39.2916 54.1616C37.3 50.8592 35.7067 47.1163 34.6445 43.0212L35.7953 41.5681C36.1936 41.1278 36.5919 40.6435 36.9902 40.2031C37.6984 44.3422 38.9819 48.1731 40.708 51.6517Z" fill="#FFA600"/>
</g>
<g opacity="0.8">
<path d="M43.4979 47.7766L42.6127 48.9214C42.3029 49.2737 42.0374 49.67 41.7719 50.0663C40.2229 46.4996 39.1607 42.5806 38.6738 38.3975C39.559 37.5609 40.4442 36.7242 41.3736 35.9316C41.5064 40.1148 42.2587 44.1218 43.4979 47.7766Z" fill="#FFA600"/>
</g>
<path d="M46.7703 44.2974C46.4163 44.6497 46.0769 44.9873 45.7524 45.3102L44.7344 46.367C43.6722 42.6242 43.1854 38.5731 43.2739 34.39C43.7607 33.9937 44.2476 33.6854 44.7344 33.2891L45.4868 32.7607L46.2835 32.2764C45.8409 36.4595 46.0622 40.5106 46.7703 44.2974Z" fill="#FFA600"/>
<path d="M38.6738 61.4266C39.7803 57.2875 41.7276 53.3245 44.3831 49.9339C47.0385 46.4994 50.3579 43.5932 54.1198 41.4355L55.3591 43.5932C51.9069 45.6187 48.8531 48.3047 46.3747 51.4311C43.9405 54.6015 42.126 58.2562 41.108 62.0871L38.6738 61.4266Z" fill="#FFA600"/>
<path fill-rule="evenodd" clip-rule="evenodd" d="M27.3865 74.9003L27.5193 76.0892C27.5488 76.2654 27.5783 76.4562 27.6078 76.6617L27.7406 77.2341C27.7406 77.3662 27.6521 77.4983 27.5193 77.5423L25.0408 77.9386C24.908 77.9827 24.7753 77.8946 24.731 77.7625L24.5982 77.102C24.5687 76.8965 24.554 76.691 24.554 76.4855L24.377 75.2526C24.377 75.0765 24.4655 74.9444 24.5982 74.9444L27.0767 74.6802C27.2538 74.6802 27.3865 74.7682 27.3865 74.9003ZM27.1652 77.102C27.1062 76.7791 27.0619 76.4562 27.0324 76.1333L26.8996 75.2086L24.9523 75.4287L25.0408 76.4415C25.0998 76.7644 25.1589 77.0873 25.2179 77.4102L27.1652 77.102Z" fill="#FFA600"/>
<path fill-rule="evenodd" clip-rule="evenodd" d="M27.1202 70.585C27.1644 71.3776 27.1203 72.1262 27.2088 72.9188C27.2088 73.0509 27.1203 73.183 26.9875 73.183L24.4647 73.3591C24.3319 73.4031 24.1992 73.271 24.1992 73.1389C24.1107 72.3023 24.1107 71.4657 24.0664 70.629C24.0664 70.4529 24.1992 70.3649 24.332 70.3649L26.8547 70.3208C26.9875 70.3208 27.1202 70.4529 27.1202 70.585ZM26.6776 72.6986L26.6334 72.2583V71.7739L26.5891 70.8492H24.5975L24.6418 71.862V72.3463L24.686 72.8307L26.6776 72.6986Z" fill="#FFA600"/>
<path fill-rule="evenodd" clip-rule="evenodd" d="M27.2979 66.2261C27.2094 67.0186 27.165 67.8113 27.1208 68.6039C27.1208 68.736 27.0323 68.824 26.8553 68.824L24.3768 68.78C24.1998 68.78 24.1113 68.6479 24.1113 68.5158C24.1113 67.6351 24.1998 66.7985 24.244 65.9619C24.2883 65.8298 24.3769 65.7417 24.5539 65.7417L27.0323 65.9619C27.1651 65.9619 27.2979 66.094 27.2979 66.2261ZM26.634 68.3396C26.634 67.6791 26.6782 67.0627 26.7225 66.4462L24.7752 66.2701C24.7309 66.9306 24.6424 67.5911 24.6424 68.2516L26.634 68.3396Z" fill="#FFA600"/>
<path fill-rule="evenodd" clip-rule="evenodd" d="M27.873 61.9555C27.7402 62.7041 27.5631 63.4967 27.4746 64.2453C27.4746 64.4214 27.3419 64.5095 27.2091 64.4654L24.7306 64.1572C24.5536 64.1572 24.4651 64.0251 24.5093 63.849C24.5978 63.0123 24.7306 62.2197 24.9076 61.3831C24.9076 61.251 25.0405 61.1189 25.2175 61.1629L27.6517 61.6473C27.7845 61.6473 27.873 61.7794 27.873 61.9555ZM26.9878 63.937C27.0763 63.3206 27.2091 62.7041 27.2976 62.0876L25.3502 61.7354C25.2617 62.3959 25.1289 63.0123 25.0404 63.6728L26.9878 63.937Z" fill="#FFA600"/>
<path d="M46.9493 101.101C47.3034 100.661 47.746 100.396 48.1886 100.264C48.6754 100.176 49.1179 100.22 49.472 100.485C49.8261 100.749 50.0473 101.145 50.1359 101.585C50.1801 102.07 50.0474 102.554 49.7819 103.038C49.4721 103.523 49.0294 103.831 48.5868 103.963C48.1 104.095 47.6132 104.051 47.2149 103.743C46.8166 103.435 46.551 102.994 46.5067 102.554C46.4625 102.07 46.6395 101.541 46.9493 101.101Z" fill="#FFA600"/>
<path d="M43.2752 97.9301C43.6292 97.5338 44.1161 97.3136 44.6029 97.2696C44.839 97.2402 45.0602 97.2549 45.2668 97.3136C45.4733 97.3723 45.6651 97.475 45.8422 97.6218C46.506 98.1942 46.5061 99.3391 45.798 100.22C45.0898 101.056 43.9391 101.233 43.1867 100.572C42.9654 100.44 42.8326 100.22 42.7441 99.9996C42.6556 99.7648 42.6261 99.5299 42.6556 99.2951C42.6556 98.8107 42.8768 98.3264 43.2752 97.9301Z" fill="#FFA600"/>
<path d="M39.9994 94.3193C40.4419 93.967 40.9288 93.835 41.4156 93.835C41.8582 93.835 42.3007 93.967 42.6105 94.3193C42.8761 94.6716 42.9647 95.1119 42.9204 95.5523C42.8762 96.0366 42.6548 96.521 42.2123 96.8733C41.8139 97.2696 41.3271 97.4897 40.8402 97.4897C40.3534 97.4897 39.9108 97.3136 39.5568 96.9613C39.247 96.565 39.1142 96.0807 39.2027 95.5963C39.2912 95.1119 39.5568 94.6716 39.9994 94.3193Z" fill="#FFA600"/>
<path d="M85.0538 30.0313C84.7883 29.2093 84.4932 28.3727 84.1687 27.5214C83.8588 26.7288 83.5047 25.9362 83.1064 25.0996C80.2296 24.307 77.2201 23.7786 74.2548 23.5584C71.2453 23.3382 68.2358 23.3823 65.2262 23.7345C59.2514 24.4391 53.4093 26.2884 48.1426 29.1506L50.1785 32.8934C54.7813 30.3835 59.871 28.7103 65.0934 28.0498C66.4212 29.2387 67.6604 30.5156 68.7225 31.8366C70.9354 31.7486 73.1041 31.7926 75.2728 32.0568L76.0694 32.1449L76.4677 32.2329C76.6152 32.2329 76.7628 32.2476 76.9103 32.277C77.4414 32.365 77.9725 32.4678 78.5036 32.5852L80.0969 32.9375C80.628 33.0696 81.1591 33.2457 81.6902 33.3778C83.7703 33.9943 85.8061 34.7868 87.7535 35.7556C88.2403 36.0198 88.7272 36.2399 89.214 36.5041L90.6303 37.3408L92.0023 38.1774C92.4449 38.4856 92.8875 38.8379 93.33 39.1461L93.9939 38.926L94.6135 38.7498C95.0561 38.6618 95.4986 38.559 95.9412 38.4416C96.3838 38.3535 96.8264 38.2214 97.269 38.1774C97.7115 38.0893 98.1689 38.0013 98.641 37.9132C94.6578 34.4786 90.055 31.7926 85.0538 30.0313Z" fill="#FFA600"/>
<path d="M92.4011 42.2283L91.9144 41.832C91.7373 41.6852 91.5603 41.5531 91.3833 41.4357C91.0292 41.2155 90.6751 40.9513 90.321 40.6871L89.2589 40.0266C89.0523 39.9092 88.8605 39.7918 88.6835 39.6744L88.1524 39.3661L87.577 39.0579L87.0017 38.7497C86.6034 38.5736 86.2494 38.3534 85.851 38.1772L84.7003 37.6489C84.4937 37.5608 84.2872 37.4874 84.0807 37.4287L83.5053 37.1645L82.8857 36.9443C82.6791 36.8856 82.4726 36.8122 82.2661 36.7241C81.8678 36.592 81.4695 36.46 81.0711 36.3279L79.8319 35.9756L79.5221 35.8875L79.2123 35.8435L78.5927 35.6674C78.1501 35.5793 77.7518 35.4912 77.3092 35.4032L76.07 35.183C75.1848 35.0949 74.3439 34.9628 73.503 34.9188L72.8391 34.8747C72.6326 34.8454 72.4261 34.8307 72.2195 34.8307L70.936 34.7867C70.7 34.7867 70.4787 34.7867 70.2721 34.7867L69.6526 34.8307H68.9887C68.7674 34.8307 68.5461 34.8747 68.3248 34.8747L67.0414 34.9628L65.8021 35.139C65.3596 35.183 64.9169 35.271 64.5186 35.3151L63.899 35.4472L63.5449 35.4912L63.2351 35.5793L61.9959 35.8435C61.5976 35.9756 61.155 36.1077 60.7567 36.1957L60.1371 36.3719L59.5175 36.5921C59.1192 36.7242 58.7208 36.8563 58.3225 36.9884C56.7292 37.6048 55.136 38.3093 53.6312 39.146C53.5427 39.19 53.4099 39.146 53.3214 39.0139C53.2771 38.8818 53.2771 38.7056 53.4099 38.6616C54.9147 37.869 56.5079 37.1204 58.1012 36.504C58.5438 36.3719 58.9421 36.2398 59.3404 36.0636L59.9601 35.8875L60.5797 35.7114C61.0222 35.5793 61.4205 35.4472 61.8631 35.3591L63.1024 35.0509L63.4564 35.0069L63.7662 34.9188L64.3859 34.8307C64.8285 34.7427 65.271 34.6546 65.6693 34.6106L66.9971 34.4344L68.2805 34.3464C68.5018 34.3464 68.7231 34.3023 68.9444 34.3023H69.5641C70.0066 34.3023 70.4492 34.2583 70.8918 34.2583L72.1752 34.3023H72.5293L72.8391 34.3464L73.503 34.3904C74.3439 34.4344 75.2291 34.5665 76.07 34.6546C76.5125 34.7426 76.9403 34.816 77.3534 34.8747C77.5599 34.9335 77.7812 34.9775 78.0173 35.0069L78.637 35.139L79.2565 35.3151C79.4926 35.3444 79.7139 35.3885 79.9204 35.4472L81.1596 35.7995C81.558 35.9316 82.0006 36.0636 82.3989 36.1957L83.0185 36.4159L83.5938 36.6801C85.2314 37.2526 86.8246 38.0452 88.3294 38.8818C89.8342 39.7184 91.2947 40.6871 92.6667 41.7439C96.9155 40.3789 101.607 39.6744 106.564 39.8065C106.652 39.8065 106.726 39.8505 106.785 39.9386C110.016 43.8135 112.716 48.2168 114.53 52.9283L114.884 53.8531C115.002 54.1466 115.105 54.4402 115.194 54.7337L115.504 55.6144L115.637 56.0987L115.769 56.5391C115.946 57.1555 116.123 57.772 116.3 58.3885L116.743 60.2379C117.274 62.7037 117.584 65.2576 117.717 67.7675C117.717 67.8996 117.584 68.0317 117.451 68.0317C117.318 68.0317 117.186 67.9437 117.186 67.8116C117.053 65.3017 116.743 62.8358 116.212 60.37L115.814 58.5646C115.637 57.9481 115.46 57.3463 115.283 56.7592C115.15 56.1428 114.929 55.5263 114.707 54.9539L114.397 54.0732L114.088 53.1926C112.273 48.525 109.618 44.2098 106.431 40.3349C101.518 40.2028 96.827 40.8633 92.5782 42.2283C92.5192 42.2576 92.4601 42.2576 92.4011 42.2283Z" fill="#FFA600"/>
<path d="M53.9861 39.7623C53.6321 39.9825 53.1452 39.7623 52.8354 39.2779C52.5698 38.7936 52.6584 38.2652 53.0567 38.045C53.4107 37.8248 53.9419 38.045 54.2074 38.5294C54.473 39.0138 54.3402 39.5422 53.9861 39.7623Z" fill="#FFA600"/>
<path d="M116.478 67.8117C116.478 68.3841 116.921 68.7804 117.496 68.7804C118.027 68.7804 118.47 68.296 118.425 67.7236C118.425 67.1512 117.938 66.7549 117.363 66.7549C116.832 66.7989 116.434 67.2833 116.478 67.8117Z" fill="#FFA600"/>
<path fill-rule="evenodd" clip-rule="evenodd" d="M81.602 41.8318L81.1594 41.6117L80.6725 41.4796L79.6989 41.1273L78.7252 40.8631C78.5482 40.8337 78.3859 40.7897 78.2384 40.731L77.7516 40.6429L76.7336 40.3787L75.76 40.2026C75.5829 40.1733 75.4059 40.1439 75.2289 40.1145L74.742 40.0705C74.4175 40.0412 74.0781 39.9971 73.7241 39.9384L72.7061 39.8503C72.5291 39.8503 72.3669 39.8503 72.2193 39.8503L71.6883 39.8063H70.6703H69.6523L69.1655 39.8503C68.9884 39.8503 68.8114 39.8503 68.6344 39.8503L67.6164 39.9384L66.5986 40.0705L66.1117 40.1145C65.9347 40.1439 65.7724 40.1733 65.6248 40.2026C65.5658 40.232 65.5216 40.2173 65.4921 40.1586C65.1381 39.8063 64.7693 39.454 64.3857 39.1018C63.9874 38.7495 63.589 38.3973 63.1906 38.089C62.7923 37.7368 62.394 37.3845 61.9957 37.0762C61.5531 36.7533 61.1105 36.4451 60.668 36.1516C60.6237 36.1075 60.5352 35.9754 60.5352 35.8874C60.5794 35.7553 60.6237 35.7112 60.7123 35.6672C65.0938 34.3902 69.7409 33.9939 74.2994 34.4342C78.858 34.8746 83.2838 36.2396 87.3555 38.3532C87.3998 38.3972 87.444 38.4853 87.444 38.5734C87.3998 38.6614 87.3556 38.7495 87.2671 38.7935C86.2491 39.2339 85.3197 39.6742 84.3903 40.2026C83.9182 40.4374 83.4756 40.687 83.0625 40.9512C82.62 41.2154 82.1774 41.4942 81.7348 41.7878C81.7053 41.8171 81.661 41.8318 81.602 41.8318ZM65.5806 39.6742C65.9347 39.6302 66.2445 39.5861 66.5986 39.5421C66.9527 39.4981 67.2624 39.454 67.6164 39.41L68.6344 39.3219C68.8114 39.3219 68.9884 39.3219 69.1655 39.3219L69.6523 39.2779H70.7145H71.7325L72.2635 39.3219L72.7504 39.366L73.7684 39.41C74.1224 39.4687 74.4618 39.5128 74.7863 39.5421L75.3174 39.6302C75.4944 39.6302 75.6566 39.6595 75.8042 39.7182L76.8221 39.8944C77.1762 39.9384 77.486 40.0265 77.8401 40.1145L78.327 40.2026C78.504 40.2613 78.6662 40.3053 78.8137 40.3347L79.7874 40.6429C80.1119 40.731 80.4366 40.8338 80.7611 40.9512L81.2479 41.1273C81.425 41.186 81.5873 41.2447 81.7348 41.3034C82.4872 40.8191 83.2839 40.2907 84.0805 39.8503C84.4936 39.6155 84.9214 39.3953 85.3639 39.1898C85.8065 38.9697 86.2048 38.7935 86.6474 38.5734C82.7969 36.6359 78.5482 35.403 74.2109 34.9627C69.9179 34.5664 65.4921 34.9186 61.3318 36.0195C62.8809 37.1643 64.2972 38.3972 65.5806 39.6742Z" fill="#FFA600"/>
<g opacity="0.2">
<path d="M95.9883 45.7071C95.8408 45.531 95.6785 45.3548 95.5014 45.1787L94.9704 44.6943L94.4393 44.21C94.3065 44.0338 94.0852 43.9017 93.9082 43.7256C97.6259 42.6248 101.698 42.0083 105.902 42.0083L106.477 42.7128C106.654 42.977 106.831 43.2265 107.009 43.4614L108.071 44.9585C103.866 44.6063 99.7945 44.9145 95.9883 45.7071Z" fill="#FFA600"/>
</g>
<g opacity="0.4">
<path d="M99.0861 49.3614L98.8648 49.0532L98.6435 48.789L98.2009 48.2166C98.0682 48.0405 97.9354 47.8203 97.7584 47.6441L97.2715 47.1158C101.122 46.4993 105.194 46.4553 109.398 47.0277L110.328 48.6129L111.169 50.2421C107.053 49.3174 102.981 49.0532 99.0861 49.3614Z" fill="#FFA600"/>
</g>
<g opacity="0.6">
<path d="M101.651 53.3684L100.943 52.1354C100.825 51.93 100.692 51.7245 100.545 51.519L100.146 50.9025C104.041 50.8145 108.113 51.3428 112.185 52.4437C112.421 53.0308 112.642 53.6032 112.849 54.161L113.026 54.6013L113.203 55.0416L113.468 55.8783C109.529 54.4252 105.546 53.5885 101.651 53.3684Z" fill="#FFA600"/>
</g>
<g opacity="0.8">
<path d="M103.643 57.6845L103.112 56.3635L102.492 55.0425C106.387 55.4828 110.326 56.5396 114.176 58.2128C114.353 58.8293 114.486 59.4018 114.619 60.0182L114.84 60.8989C114.899 61.1924 114.958 61.5007 115.017 61.8236C111.3 59.8421 107.449 58.433 103.643 57.6845Z" fill="#FFA600"/>
</g>
<path d="M105.016 62.2638C104.795 61.2951 104.529 60.4144 104.264 59.4897C108.026 60.4585 111.788 62.0437 115.372 64.2013C115.55 65.4342 115.638 66.6231 115.727 67.856C112.274 65.3902 108.645 63.5408 105.016 62.2638Z" fill="#FFA600"/>
<path d="M94.1277 46.7202C97.2258 49.7585 99.66 53.4132 101.298 57.4203C102.979 61.3832 103.82 65.6985 103.82 70.0138H101.298C101.298 66.0067 100.545 62.0438 98.9961 58.345C97.4471 54.6902 95.1899 51.2997 92.3574 48.4815L94.1277 46.7202Z" fill="#FFA600"/>
<path fill-rule="evenodd" clip-rule="evenodd" d="M88.0635 30.2513C87.7094 30.0752 87.3111 29.9431 86.957 29.811L85.8506 29.3706C85.7178 29.3266 85.6735 29.1505 85.7178 29.0184L86.5586 26.6846C86.6471 26.5525 86.7799 26.4645 86.9127 26.5525L88.1077 26.9929C88.506 27.169 88.9043 27.3011 89.2584 27.4772C89.3912 27.5653 89.4797 27.6974 89.3912 27.8295L88.3732 30.1192C88.329 30.2513 88.1962 30.2953 88.0635 30.2513ZM86.2931 28.9744C86.8685 29.1945 87.4438 29.4147 88.0192 29.6789L88.8158 27.8735C88.1962 27.6093 87.5766 27.3892 86.957 27.125L86.2931 28.9744Z" fill="#FFA600"/>
<path fill-rule="evenodd" clip-rule="evenodd" d="M91.96 32.1887L91.4732 31.8805L90.9421 31.6163L89.8799 31.0879C89.7471 31.0438 89.7028 30.8677 89.7471 30.7356L90.8535 28.4899C90.942 28.3578 91.0748 28.3138 91.2076 28.3578L92.3583 28.9302L92.8894 29.2385L93.4648 29.5467C93.5976 29.6348 93.6418 29.8109 93.5533 29.899L92.314 32.1006C92.2698 32.1887 92.0927 32.2768 91.96 32.1887ZM90.3224 30.7356L91.1634 31.176C91.4585 31.2934 91.7387 31.4402 92.0043 31.6163L92.9779 29.899C92.6829 29.7228 92.3878 29.5614 92.0928 29.4146L91.2076 28.9743L90.3224 30.7356Z" fill="#FFA600"/>
<path fill-rule="evenodd" clip-rule="evenodd" d="M95.6769 34.5223C95.013 34.0379 94.3492 33.6416 93.6853 33.2013C93.5525 33.1132 93.5525 32.9811 93.5968 32.849L94.9245 30.7354C95.013 30.6034 95.19 30.5593 95.2785 30.6474C95.9866 31.0877 96.739 31.528 97.4029 32.0124C97.5357 32.1005 97.5799 32.2766 97.4914 32.4087L96.031 34.4342C95.9425 34.5663 95.7654 34.5663 95.6769 34.5223ZM94.1721 32.8931L94.9687 33.3774C95.1162 33.4655 95.2491 33.5536 95.3671 33.6416L95.7654 33.9058L96.8718 32.3206L96.4736 32.0124C96.3555 31.9243 96.2227 31.8363 96.0752 31.7482L95.2343 31.2198L94.1721 32.8931Z" fill="#FFA600"/>
<path fill-rule="evenodd" clip-rule="evenodd" d="M99.1291 37.1648C98.8193 36.9006 98.5095 36.6364 98.1997 36.4162L97.2702 35.6677C97.1817 35.5796 97.1375 35.4475 97.226 35.3154L98.775 33.3339C98.8636 33.2018 98.9963 33.2018 99.1291 33.2899L100.103 34.0825C100.457 34.3467 100.767 34.6109 101.076 34.8751C101.209 34.9631 101.209 35.1393 101.121 35.2714L99.4831 37.1208C99.3946 37.2529 99.2176 37.2529 99.1291 37.1648ZM97.8014 35.4035C98.2882 35.7998 98.775 36.1961 99.2618 36.5924L100.545 35.0952C100.059 34.6549 99.5274 34.2586 98.9963 33.8623L97.8014 35.4035Z" fill="#FFA600"/>
<path d="M55.4454 33.9943C55.888 35.007 55.5782 36.1519 54.7816 36.5042C54.339 36.6803 53.8964 36.6803 53.4538 36.5042C53.0555 36.328 52.6572 35.9758 52.3917 35.4914C52.1261 34.963 52.0376 34.4346 52.1704 33.9943C52.3031 33.5099 52.613 33.1136 53.0555 32.8934C53.9407 32.4971 55.0471 32.9815 55.4454 33.9943Z" fill="#FFA600"/>
<path d="M60.0934 32.4092C60.2261 32.9376 60.1819 33.466 60.0049 33.9063C59.9164 34.1118 59.7836 34.2879 59.6066 34.4347C59.4738 34.6108 59.2968 34.7429 59.0755 34.787C58.6329 34.9631 58.1903 34.875 57.792 34.6108C57.3937 34.3907 57.0396 33.9944 56.8183 33.466C56.6413 32.9816 56.6413 32.4092 56.8183 31.9688C56.9954 31.5285 57.3494 31.1762 57.8363 31.0001C58.0723 30.9414 58.3083 30.9267 58.5443 30.9561C58.7804 30.9854 59.0017 31.0735 59.2082 31.2203C59.6065 31.4404 59.9163 31.8808 60.0934 32.4092Z" fill="#FFA600"/>
<path d="M64.8736 31.3962C65.0063 32.453 64.431 33.5098 63.5458 33.6419C63.1032 33.7299 62.6606 33.5978 62.3066 33.3336C61.9082 33.0254 61.6428 32.5851 61.51 32.0567C61.3772 31.5283 61.4215 30.9999 61.687 30.5596C61.9083 30.1633 62.3066 29.811 62.7935 29.7229C63.7671 29.5468 64.6965 30.2954 64.8736 31.3962Z" fill="#FFA600"/>
<path d="M40.1775 123.249C40.6201 123.469 41.0627 123.734 41.5053 123.998L42.8773 124.702L43.5412 125.011C43.7772 125.128 44.0133 125.245 44.2493 125.363L45.6213 125.979C45.7098 126.009 45.7984 126.009 45.8869 125.979C46.418 125.759 46.8606 125.495 47.3474 125.275C47.849 125.011 48.3357 124.746 48.8078 124.482C49.2799 124.218 49.7521 123.954 50.2242 123.69C50.6668 123.425 51.1093 123.161 51.5961 122.853C58.0578 125.187 64.9177 126.243 71.822 126.111C75.2741 126.067 78.682 125.671 82.0456 125.011C85.4092 124.306 88.7286 123.337 91.9152 122.016C92.3578 122.281 92.8004 122.545 93.2429 122.765C93.6855 123 94.1428 123.235 94.6149 123.469C95.5 123.954 96.4737 124.394 97.4031 124.834C97.4917 124.864 97.5802 124.849 97.6687 124.79C107.892 119.859 116.611 111.977 122.63 102.422C122.807 102.157 123.029 101.849 123.206 101.541L123.737 100.616L124.268 99.6915C124.445 99.3833 124.622 99.1191 124.755 98.7668L125.728 96.9174C125.817 96.7413 125.905 96.5798 125.994 96.4331L126.215 95.9487L126.658 94.98C127.277 93.703 127.72 92.382 128.251 91.061C128.487 90.4152 128.723 89.7547 128.959 89.0795C129.077 88.7273 129.18 88.3897 129.269 88.0668L129.579 87.054C130.42 84.368 130.951 81.5499 131.393 78.7758L131.659 76.7062C131.688 76.5301 131.703 76.354 131.703 76.1778L131.747 75.6494L131.836 74.5926C131.969 73.1836 131.969 71.7745 132.013 70.3654C132.013 70.1453 131.836 70.0132 131.615 70.0132C131.393 70.0132 131.216 70.1453 131.216 70.3654C131.172 71.7305 131.172 73.1395 131.039 74.5045L130.951 75.5613C130.921 75.9136 130.877 76.2512 130.818 76.5741L130.552 78.6437C130.154 81.3737 129.623 84.1478 128.826 86.7898L128.517 87.8026C128.428 88.1108 128.295 88.4631 128.207 88.7713L127.499 90.7528L126.746 92.6903C126.613 92.9985 126.525 93.3507 126.348 93.659L125.905 94.5837L125.507 95.5524C125.359 95.8753 125.212 96.1835 125.064 96.4771L124.091 98.3265C123.914 98.6788 123.737 98.9429 123.604 99.2512L123.073 100.176L122.542 101.057C122.365 101.365 122.188 101.673 121.966 101.937L120.86 103.699L119.621 105.416C119.444 105.68 119.222 105.988 119.001 106.252L118.382 107.045L117.718 107.882L117.408 108.278L117.054 108.674L115.682 110.259C115.46 110.524 115.239 110.788 114.974 111.008L114.265 111.757L113.513 112.549C113.277 112.784 113.026 113.019 112.761 113.254C112.274 113.738 111.787 114.222 111.256 114.663C110.194 115.587 109.176 116.512 108.069 117.349C106.963 118.229 105.812 119.022 104.662 119.815C104.086 120.211 103.511 120.563 102.935 120.96L102.05 121.532L101.121 122.06C100.501 122.369 99.9259 122.765 99.3063 123.073L97.4474 123.998C96.518 123.646 95.5443 123.161 94.6592 122.677C94.1871 122.471 93.7297 122.251 93.2871 122.016L92.6233 121.664L91.9594 121.268C91.8709 121.209 91.7971 121.194 91.7381 121.224C88.5515 122.501 85.2765 123.513 81.9571 124.218C78.6378 124.878 75.2299 125.231 71.822 125.319C64.962 125.451 58.1463 124.35 51.7289 122.06C51.6404 122.031 51.5518 122.046 51.4633 122.104C50.5782 122.633 49.6635 123.161 48.7193 123.69C48.2768 123.954 47.7899 124.218 47.3031 124.482C46.831 124.717 46.3442 124.952 45.8426 125.187L44.5148 124.57C44.028 124.394 43.6297 124.13 43.1871 123.91L41.8593 123.249C41.4168 123.029 41.0185 122.765 40.5759 122.545C40.4431 122.457 40.2218 122.545 40.089 122.721C40.0005 122.897 40.0447 123.161 40.1775 123.249Z" fill="#FFA600"/>
<path d="M113.025 116.688C115.592 114.355 117.982 111.801 120.151 109.071C122.364 106.341 124.311 103.478 125.993 100.396C127.675 97.3578 129.135 94.1874 130.286 90.8849L130.728 89.652L130.905 89.0355C130.994 88.83 131.068 88.6245 131.127 88.419L131.835 85.9091C132.056 85.0725 132.233 84.1919 132.41 83.3552L132.587 82.7387C132.617 82.5039 132.646 82.2837 132.676 82.0782L132.941 80.8013L128.515 80.0527L128.294 81.2416C128.265 81.4471 128.22 81.6379 128.161 81.8141L128.029 82.4305C127.852 83.2231 127.675 84.0157 127.498 84.7643L126.834 87.098C126.775 87.3035 126.701 87.4943 126.612 87.6705L126.435 88.2429L126.037 89.3878C124.975 92.4701 123.647 95.4203 122.054 98.2384C120.505 101.101 118.69 103.743 116.654 106.296C114.618 108.806 112.406 111.184 110.016 113.386L113.025 116.688Z" fill="#FFA600"/>
<path d="M47.4809 136.107C52.3935 137.78 57.439 138.969 62.5729 139.541C67.7068 140.114 72.885 140.158 78.0632 139.629C88.3311 138.573 98.3776 135.182 107.229 129.854C111.611 127.168 115.727 123.998 119.444 120.431C123.162 116.864 126.526 112.945 129.358 108.63C132.235 104.315 134.581 99.7354 136.439 94.9358C136.557 94.6129 136.676 94.3047 136.794 94.0111L137.103 93.1304L137.723 91.281L137.9 90.8407L138.033 90.3563L138.298 89.4316L138.829 87.5822C138.977 86.9364 139.125 86.3053 139.272 85.6888L139.449 84.7641C139.538 84.4559 139.626 84.1477 139.67 83.7954L140.024 81.902C140.113 81.2855 140.246 80.625 140.334 80.0085C139.685 79.0398 139.051 78.1005 138.431 77.1904C137.767 76.2657 137.059 75.341 136.395 74.5044L136.218 76.4419C136.174 77.1024 136.085 77.7629 135.997 78.3793L135.864 79.348C135.82 79.7003 135.776 80.0085 135.731 80.3168L135.377 82.2542L135.2 83.223L134.979 84.1917L134.536 86.0851C134.492 86.3934 134.359 86.7016 134.271 87.0538L134.005 87.9786L133.74 88.9032C133.651 89.2261 133.563 89.5491 133.474 89.872C131.837 94.8477 129.668 99.6033 126.968 104.095C124.18 108.542 120.949 112.681 117.232 116.38C113.514 120.035 109.354 123.293 104.884 126.023C100.369 128.709 95.5894 130.911 90.5882 132.496C90.2784 132.584 89.9244 132.672 89.6146 132.76L88.6851 133.024L87.7115 133.333C87.4017 133.421 87.0918 133.509 86.782 133.553L84.8789 133.993L83.9052 134.213L82.9316 134.389L80.9843 134.742C80.6745 134.786 80.3203 134.83 80.0105 134.874L79.0368 135.006L78.0632 135.138C77.7534 135.182 77.3993 135.226 77.0895 135.226L75.1421 135.358L74.1243 135.446C73.7997 135.476 73.4751 135.49 73.1505 135.49L71.2032 135.534H70.7163H70.2295L69.2116 135.49L67.2643 135.446L65.3169 135.314C64.653 135.27 63.9891 135.226 63.3253 135.138C62.0418 134.962 60.714 134.83 59.4305 134.566L57.4832 134.213C56.8636 134.096 56.2292 133.949 55.5801 133.773C54.2966 133.509 53.0575 133.157 51.774 132.804C51.1544 132.628 50.5347 132.408 49.9151 132.188L48.0562 131.571L46.1974 130.867C45.5778 130.603 44.9582 130.382 44.3828 130.118L44.7369 130.867C44.8549 131.131 44.973 131.381 45.091 131.615C45.327 132.114 45.5778 132.613 45.8433 133.113C46.1089 133.612 46.3745 134.111 46.64 134.61C46.9056 135.138 47.2153 135.622 47.4809 136.107Z" fill="#FFA600"/>
<path d="M52.6582 125.142C55.712 126.111 58.8543 126.86 62.0409 127.344C65.2275 127.828 68.4583 128.005 71.6891 127.961L72.9283 127.917C73.3266 127.917 73.725 127.917 74.1233 127.873L76.5575 127.696C77.3542 127.608 78.1508 127.476 78.9474 127.388L79.5228 127.3L80.1424 127.212L81.3373 126.992C84.4796 126.419 87.6219 125.583 90.6315 124.482L89.1268 120.299C86.2942 121.312 83.4175 122.06 80.4964 122.589L79.39 122.809L78.8589 122.897L78.3278 122.985L76.0706 123.249L73.8577 123.425C73.5037 123.469 73.1054 123.469 72.7513 123.469H71.6448C68.6353 123.513 65.67 123.381 62.7047 122.941C59.7837 122.456 56.8626 121.796 54.0301 120.871L52.6582 125.142Z" fill="#FFA600"/>
<g opacity="0.2">
<path d="M107.54 116.512L108.381 115.895C108.646 115.675 108.912 115.411 109.177 115.191L106.477 112.064C106.212 112.285 105.991 112.505 105.725 112.681L104.973 113.253L107.54 116.512Z" fill="#FFA600"/>
</g>
<g opacity="0.5">
<path d="M104.616 118.67L106.298 117.481L103.82 114.178L102.227 115.279L104.616 118.67Z" fill="#FFA600"/>
</g>
<g opacity="0.7">
<path d="M101.563 120.696L103.289 119.551L101.032 116.116L99.3945 117.129L101.563 120.696Z" fill="#FFA600"/>
</g>
<path d="M98.377 122.457C98.6868 122.281 98.9966 122.149 99.2622 121.973L100.192 121.444L98.1115 117.877L97.2705 118.362C97.005 118.538 96.6952 118.67 96.4297 118.802L98.377 122.457Z" fill="#FFA600"/>
<path d="M39.6026 17.1289C38.7175 17.6133 37.8765 18.1858 36.9913 18.7142L36.3718 19.1104C36.1505 19.2425 35.9292 19.4187 35.7079 19.5508L34.4686 20.4314C34.4096 20.4901 34.3654 20.5782 34.3358 20.6956L34.2917 21.4882L34.2474 22.3249C34.2474 22.8533 34.2326 23.3963 34.2031 23.9541C34.2031 25.0109 34.2031 26.0677 34.2474 27.1245C28.9807 31.5718 24.5549 36.9439 21.2355 42.9324C17.9162 48.9209 15.7475 55.5258 14.7738 62.2629C13.9182 62.7913 13.0478 63.3344 12.1627 63.8922C11.3218 64.4205 10.4808 65.037 9.63986 65.6535C9.55135 65.7122 9.50717 65.7856 9.50717 65.8736C9.47767 66.2259 9.44808 66.5782 9.41857 66.9304L9.37438 67.9872C9.37438 68.6918 9.35958 69.3963 9.33008 70.1008L9.41857 72.2144C9.41857 72.5667 9.41857 72.9189 9.41857 73.2712L9.50717 74.328C9.55143 75.0325 9.59565 75.7371 9.68416 76.4416L9.94975 78.5552C10.0383 79.2597 10.171 79.9202 10.3037 80.6247L10.4808 81.6816C10.5251 82.0338 10.6136 82.342 10.6578 82.6943L11.1447 84.7639L11.2775 85.2923L11.4102 85.7766L11.7201 86.7894C12.0741 88.1544 12.5609 89.4754 13.0035 90.8404C13.2691 91.5009 13.5346 92.1614 13.8002 92.8219L14.1543 93.7907L14.5968 94.7594C14.9067 95.3758 15.1722 96.0363 15.482 96.6968L16.4557 98.5462L16.7211 99.0306C16.8097 99.1774 16.8982 99.3242 16.9867 99.4709L17.5178 100.396C17.8719 101.012 18.1817 101.629 18.5801 102.245L19.7307 104.006C20.129 104.579 20.5716 105.151 20.97 105.724C21.1765 106.017 21.383 106.311 21.5895 106.604L22.2534 107.441L22.9173 108.278C23.1386 108.542 23.3156 108.806 23.5811 109.07L24.9532 110.699C25.0712 110.817 25.1892 110.949 25.3073 111.096L25.6613 111.448L26.4137 112.241L27.1661 112.989C27.3874 113.253 27.6529 113.473 27.9184 113.738L29.4675 115.191L31.0608 116.556C31.3263 116.82 31.5919 117.04 31.8575 117.26L32.6983 117.921L33.5392 118.581L33.9376 118.89L34.3801 119.198L36.1062 120.431C36.416 120.651 36.7258 120.827 36.9913 121.003L37.9208 121.576L38.806 122.148C39.101 122.324 39.4107 122.5 39.7353 122.676C39.8681 122.764 40.0894 122.676 40.2222 122.5C40.3107 122.324 40.3107 122.06 40.1337 121.972C39.8386 121.796 39.5288 121.62 39.2042 121.443L38.3191 120.915L37.4782 120.343C37.1684 120.167 36.8586 119.99 36.5931 119.77L34.8669 118.537L34.4686 118.273L34.0261 117.921L33.2294 117.304C32.1229 116.468 31.0607 115.499 29.9985 114.618L28.4938 113.165C28.2283 112.945 27.9627 112.681 27.7414 112.461L27.0333 111.712L26.2809 110.92C26.0449 110.685 25.8088 110.435 25.5727 110.171L24.2008 108.586C23.9795 108.322 23.7582 108.057 23.5811 107.793L22.9173 106.957L22.2534 106.164C22.0321 105.856 21.8551 105.592 21.6338 105.283C21.2503 104.726 20.852 104.168 20.4389 103.61L19.3324 101.849C18.9341 101.276 18.58 100.66 18.226 100.043L17.7391 99.1627L17.4736 98.7224L17.208 98.238L16.2786 96.3886C16.1015 96.0804 15.9688 95.7722 15.836 95.4639L15.3934 94.4952L14.9508 93.5265C14.818 93.2182 14.6853 92.91 14.5525 92.6018L13.8002 90.6203L13.1363 88.6828C13.0035 88.3305 12.915 88.0223 12.8265 87.6701L12.5166 86.6573L12.2511 85.6886C12.1184 85.3363 12.0298 85.0281 11.9856 84.6758L11.4988 82.6503C10.9234 79.9202 10.4808 77.1902 10.348 74.372L10.2595 73.3593C10.2153 73.007 10.2152 72.6547 10.2152 72.3025L10.171 70.2329C10.171 69.5284 10.171 68.8239 10.2152 68.1634V67.1066C10.2152 66.7543 10.2595 66.4021 10.3037 66.0498C11.1594 65.4627 12.0004 64.8756 12.8265 64.2885C13.6674 63.7601 14.5525 63.2316 15.4377 62.7033C15.5262 62.6739 15.5705 62.6152 15.5705 62.5271C16.4999 55.7901 18.6685 49.2731 21.9436 43.3287C25.2187 37.3842 29.6445 32.0562 34.8669 27.6969C34.9259 27.6382 34.9555 27.5501 34.9555 27.4327C34.9555 26.9043 34.9112 26.3759 34.9112 25.8475C34.9112 25.3191 34.926 24.7907 34.9555 24.2623C34.9555 23.7339 34.9555 23.1908 34.9555 22.6331C34.9998 22.1047 35.044 21.5763 35.0882 21.0039C35.8849 20.4314 36.6815 19.859 37.5224 19.3747C38.319 18.8463 39.16 18.2738 40.0009 17.8335C40.1779 17.7014 40.2222 17.4812 40.0894 17.3051C40.0009 17.0849 39.7354 17.0409 39.6026 17.1289Z" fill="#FFA600"/>
<path d="M8.88672 83.1352L9.46209 85.6891L10.1703 88.199C10.2588 88.4191 10.303 88.5953 10.3473 88.8154L10.5685 89.4319L11.0111 90.6648L11.1881 91.2813C11.2766 91.4868 11.3504 91.6923 11.4094 91.8977L11.8963 93.1307C13.1798 96.3451 14.7288 99.5155 16.5434 102.466C18.358 105.46 20.438 108.278 22.6952 110.92C23.8459 112.241 25.0409 113.518 26.2801 114.751L28.1833 116.556L30.1749 118.23L33.0516 114.795L31.1928 113.21L29.4225 111.537C28.316 110.392 27.1653 109.247 26.1031 108.014C24.023 105.548 22.0756 102.906 20.3938 100.176C18.712 97.4019 17.2958 94.4957 16.1008 91.4574L15.6582 90.3566C15.5697 90.1511 15.4959 89.9603 15.4369 89.7842L15.2599 89.2117L14.8615 88.0669L14.6403 87.4944C14.596 87.2743 14.5518 87.0981 14.4633 86.922L13.7994 84.5882L13.2683 82.2104L8.88672 83.1352Z" fill="#FFA600"/>
<path d="M24.7313 16.9976C20.8365 20.3441 17.2959 24.1309 14.1978 28.27C11.144 32.3651 8.48861 36.8565 6.40848 41.568C5.30203 43.9018 4.41685 46.3236 3.62021 48.7454L3.48741 49.2298L3.35461 49.6702L3.08913 50.5948L2.55795 52.4442L2.11537 54.3377L1.89408 55.2624C1.80556 55.6146 1.71705 55.9228 1.67279 56.2311C0.699113 61.2949 0.256533 66.4468 0.345049 71.5546C0.566339 81.8144 3.04487 92.0741 7.73622 101.277C10.0376 105.9 12.8701 110.216 16.1009 114.223C16.3075 114.458 16.514 114.707 16.7205 114.971L17.3844 115.676C17.7975 116.175 18.2106 116.659 18.6236 117.129L19.9957 118.538C20.4382 118.978 20.8808 119.463 21.3234 119.903L22.7396 121.224C22.9757 121.459 23.2118 121.679 23.4478 121.885L24.1559 122.545L25.6607 123.778C25.8968 123.983 26.1475 124.189 26.4131 124.394L27.1654 125.011C29.4226 124.923 31.724 124.659 33.8926 124.394C29.5554 121.444 25.5721 118.01 22.0315 114.179C18.4908 110.304 15.437 106.033 12.8701 101.453C10.3474 96.8737 8.40005 91.986 7.02805 86.9222C6.85102 86.3057 6.71824 85.6893 6.58547 85.0288C6.43794 84.3829 6.29042 83.7518 6.14289 83.1353L5.78881 81.1979C5.65603 80.5374 5.56754 79.9209 5.47902 79.2604C5.30199 77.9835 5.12496 76.6625 5.03644 75.3855L4.90364 73.404L4.85945 71.4666C4.54965 61.0307 6.89526 50.5068 11.5423 41.1277C12.162 39.9829 12.693 38.794 13.4012 37.6931L14.3749 35.9758L15.4371 34.3466L15.9681 33.51C16.1452 33.2458 16.3222 32.9816 16.5435 32.7174L17.65 31.1322C17.8565 30.868 18.063 30.6038 18.2695 30.3396L18.8892 29.547L19.4646 28.7984C19.6711 28.5342 19.8776 28.2847 20.0842 28.0499L21.3676 26.5528C21.5889 26.3326 21.8102 26.0684 22.0315 25.8042L22.6953 25.0997L24.0674 23.6906L25.4836 22.3256C26.413 21.4449 27.4309 20.6083 28.4489 19.7276L28.803 19.4194L29.2014 19.1111L29.9537 18.4947L30.7504 17.9222C31.0159 17.7021 31.2372 17.4819 31.5028 17.3058C30.9717 17.2618 30.4406 17.2177 29.8652 17.1737C29.3046 17.1443 28.744 17.115 28.1834 17.0856C27.608 17.0416 27.0326 16.9976 26.4573 16.9976C25.8967 16.9976 25.3214 16.9976 24.7313 16.9976Z" fill="#FFA600"/>
<path d="M31.7239 26.9053C29.3339 29.0629 27.121 31.3967 25.0852 33.9066C23.0936 36.4164 21.2347 39.1024 19.6857 41.9206C16.5877 47.5128 14.3747 53.6334 13.3125 59.9742L17.7383 60.7227C18.712 54.9103 20.7921 49.2741 23.6246 44.0782C25.0852 41.4802 26.7669 39.0144 28.5815 36.7247C30.4403 34.3909 32.5205 32.2333 34.7334 30.2518L31.7239 26.9053Z" fill="#FFA600"/>
<g opacity="0.2">
<path d="M11.7637 78.5114L11.808 79.0398L11.8965 79.5682L12.0735 80.581L16.1895 79.8324L16.0125 78.9077L15.924 78.4233L15.8797 77.939L11.7637 78.5114Z" fill="#FFA600"/>
</g>
<g opacity="0.5">
<path d="M11.3652 74.9005L11.4094 75.9573C11.4537 76.2656 11.498 76.6178 11.5422 76.9701L15.6582 76.4857C15.6582 76.1775 15.5697 75.8693 15.5697 75.517L15.4813 74.5923L11.3652 74.9005Z" fill="#FFA600"/>
</g>
<g opacity="0.7">
<path d="M11.1445 71.2902L11.1887 72.303C11.1887 72.6552 11.1888 73.0075 11.233 73.3598L15.3932 73.0956C15.349 72.7874 15.349 72.4791 15.349 72.1709L15.3047 71.2021L11.1445 71.2902Z" fill="#FFA600"/>
</g>
<path d="M11.1887 67.6357L11.1445 69.7053H15.3047L15.349 67.8119L11.1887 67.6357Z" fill="#FFA600"/>
<path d="M132.278 69.6608C132.234 68.6481 132.234 67.6353 132.19 66.6226C132.101 65.6098 132.013 64.597 131.924 63.5843C131.924 63.4962 131.88 63.4228 131.792 63.3641C130.847 62.7476 129.918 62.1605 129.003 61.6028L128.339 61.2065L127.631 60.8102C127.159 60.546 126.687 60.2964 126.215 60.0616C125.02 53.3245 122.542 46.8076 119.001 40.9512C115.416 35.0948 110.769 29.8989 105.325 25.7157C105.325 25.2167 105.325 24.703 105.325 24.1746C105.325 23.6902 105.281 23.1618 105.237 22.6775C105.178 21.65 105.104 20.6226 105.015 19.5952C105.015 19.4777 104.971 19.3897 104.883 19.3309C103.688 18.5824 102.493 17.7898 101.253 17.1293L100.324 16.6009C100.177 16.5128 100.029 16.4248 99.8816 16.3367L99.3947 16.0725L97.4916 15.1038C97.1818 14.9717 96.872 14.8396 96.5622 14.6634L95.5885 14.2231L94.6148 13.7828C94.2902 13.6654 93.9657 13.5479 93.6411 13.4305C92.9773 13.1663 92.3134 12.9021 91.6495 12.6379L89.6137 11.9774C88.9498 11.7132 88.2859 11.5371 87.5778 11.361L86.5598 11.0527L86.0731 10.9206C85.896 10.8619 85.7189 10.8179 85.5419 10.7885L83.4618 10.3041C83.2848 10.2748 83.1077 10.2454 82.9307 10.2161L82.4438 10.128L81.3817 9.90786C80.0097 9.64366 78.5934 9.51154 77.1772 9.33541C76.469 9.24734 75.7609 9.20333 75.0528 9.15929L73.9906 9.07122C73.6366 9.02719 73.2824 9.07123 72.9284 9.0272C61.5983 8.58687 50.1355 11.405 40.3102 16.9972C40.1332 17.0853 40.089 17.3054 40.2217 17.5256C40.3103 17.7017 40.5758 17.7898 40.7086 17.7017C50.4011 12.1976 61.6426 9.37945 72.8399 9.86381C73.1939 9.86381 73.5333 9.86381 73.8578 9.86381L74.92 9.95189C75.6281 9.99592 76.3363 10.04 77.0002 10.128L79.0803 10.3922C79.4344 10.4363 79.7884 10.4362 80.1424 10.5243L81.1604 10.7005C83.9044 11.1408 86.6042 11.8893 89.2596 12.6819L91.2512 13.3865C91.9151 13.6066 92.5789 13.8708 93.1986 14.135L94.1722 14.4873L95.146 14.9276C95.7656 15.2359 96.4294 15.5001 97.049 15.8083C98.2882 16.4248 99.5274 17.0412 100.722 17.7458L101.652 18.2742C101.799 18.3622 101.947 18.4503 102.094 18.5384L102.537 18.8025L104.307 19.9474C104.44 20.9602 104.484 22.017 104.529 23.0297C104.558 23.5288 104.588 24.0278 104.617 24.5268C104.617 25.0112 104.617 25.5396 104.617 26.024C104.617 26.1414 104.661 26.2295 104.75 26.2882C110.105 30.4273 114.752 35.5792 118.293 41.3916C121.833 47.2039 124.268 53.6328 125.418 60.3258C125.448 60.4139 125.507 60.4726 125.595 60.5019C126.067 60.7368 126.54 60.9863 127.012 61.2505C127.454 61.5147 127.897 61.7789 128.384 62.0871C129.298 62.6449 130.213 63.2173 131.128 63.8044L131.349 66.7546C131.393 67.7234 131.438 68.6921 131.438 69.6608C131.438 69.837 131.659 70.0131 131.88 70.0131C132.101 70.0131 132.278 69.837 132.278 69.6608Z" fill="#FFA600"/>
<path d="M90.1456 10.1726C86.8263 9.11578 83.4184 8.32317 79.9663 7.79477L77.355 7.48656C76.4699 7.3985 75.5847 7.35446 74.7438 7.2664C73.8587 7.17833 72.9735 7.17833 72.0884 7.17833L70.8049 7.13428C70.3623 7.13428 69.9198 7.13429 69.4772 7.17833H68.1936L67.5298 7.22235C67.2937 7.22235 67.0724 7.23704 66.8659 7.2664L64.2547 7.44251L61.6434 7.79477C61.4369 7.82413 61.2156 7.85349 60.9796 7.88285L60.36 7.97092L59.0766 8.19108C55.6244 8.85158 52.2165 9.77627 48.9414 10.9652L50.4904 15.1483C53.5442 14.0475 56.6865 13.2109 59.8731 12.5944L61.0682 12.4183L61.6877 12.2862C61.8943 12.2568 62.0861 12.2274 62.2631 12.1981L64.6973 11.8899L67.1315 11.7137C67.338 11.7137 67.5445 11.6991 67.7511 11.6697H68.3707L69.5657 11.6257C69.964 11.6257 70.3623 11.6257 70.8049 11.6257H71.9999C72.8408 11.6697 73.6374 11.6697 74.4341 11.7578C75.2307 11.8018 76.0716 11.8458 76.8682 11.9339L79.3024 12.2421C82.489 12.7265 85.6755 13.4751 88.7736 14.4438L90.1456 10.1726Z" fill="#FFA600"/>
<path d="M139.802 56.9355C138.829 51.8717 137.324 46.94 135.288 42.2284C133.208 37.4728 130.641 33.0255 127.587 28.8424C127.41 28.5782 127.218 28.3139 127.012 28.0497L126.436 27.3012L125.242 25.8041C125.035 25.5399 124.828 25.2903 124.622 25.0555L123.958 24.3069C123.545 23.8372 123.132 23.3529 122.719 22.8538L121.347 21.4888C120.904 21.0045 120.462 20.5201 120.019 20.0798L118.603 18.7588C118.382 18.5386 118.16 18.3184 117.895 18.0983L117.186 17.4818C113.292 14.0912 109.043 11.097 104.529 8.63113C95.4558 3.65539 85.2322 0.749205 74.9201 0.132741C69.7861 -0.175491 64.608 0.0446805 59.4741 0.88131C54.3844 1.71794 49.3833 3.08295 44.5591 5.02041C44.2936 5.51945 44.028 6.01851 43.7625 6.51755C43.5264 7.04595 43.2903 7.55967 43.0543 8.05871C42.8183 8.58711 42.597 9.10083 42.3904 9.59987C42.1249 10.1283 41.9479 10.6126 41.7266 11.141C51.1535 6.56158 61.7312 4.22781 72.2204 4.49201C72.8695 4.52136 73.5186 4.55072 74.1677 4.58008L76.1151 4.71217C77.4429 4.80024 78.7263 4.97637 80.054 5.1525C80.7179 5.19654 81.3375 5.32864 82.0013 5.46074L83.9488 5.813L85.8519 6.25333C86.4715 6.38543 87.1353 6.51753 87.7549 6.69366C89.0384 7.08996 90.2776 7.39821 91.5168 7.83854C92.1364 8.04403 92.7561 8.2642 93.3757 8.49904L95.2346 9.20356L96.1639 9.55582C96.4295 9.68792 96.7393 9.82003 97.0491 9.95213L98.8194 10.7447C98.9964 10.8328 99.1587 10.9062 99.3063 10.9649L99.7045 11.1851L100.59 11.6254L101.475 12.0657C101.785 12.2418 102.05 12.374 102.36 12.5501C106.919 15.06 111.256 18.1423 115.106 21.6209C118.957 25.1876 122.409 29.1506 125.374 33.4658C128.295 37.8251 130.685 42.4926 132.544 47.4243C134.314 52.312 135.509 57.4198 136.129 62.6158C136.778 61.7351 137.412 60.8104 138.032 59.8417C138.652 58.917 139.227 57.9483 139.802 56.9355Z" fill="#FFA600"/>
<path d="M127.676 57.9479L127.145 55.6141C126.924 54.8655 126.703 54.0729 126.481 53.3244L126.304 52.7519L126.127 52.1795L125.729 51.0346C125.596 50.6383 125.508 50.2421 125.331 49.8898L124.888 48.7449C123.693 45.7947 122.321 42.8885 120.639 40.1585C118.958 37.3844 117.054 34.7864 114.974 32.3646C112.85 29.8988 110.593 27.609 108.114 25.5835L105.193 29.0181C107.495 30.9115 109.619 33.0251 111.566 35.2708C113.47 37.5165 115.24 39.9383 116.789 42.4482C118.338 45.0021 119.621 47.6441 120.728 50.4182L121.126 51.431C121.259 51.7832 121.348 52.1355 121.48 52.4877L121.834 53.5445L122.011 54.0729L122.188 54.6013C122.365 55.3059 122.587 56.0104 122.808 56.7149L123.295 58.8725L127.676 57.9479Z" fill="#FFA600"/>
<g opacity="0.2">
<path d="M92.71 14.9722L91.7805 14.5759C91.4265 14.4878 91.1167 14.3557 90.8069 14.2236L89.3906 18.1426C89.7004 18.2306 90.0102 18.3627 90.2758 18.4508L91.2051 18.8031L92.71 14.9722Z" fill="#FFA600"/>
</g>
<g opacity="0.5">
<path d="M96.0738 16.425L94.215 15.5884L92.5332 19.3752L94.3035 20.1678L96.0738 16.425Z" fill="#FFA600"/>
</g>
<g opacity="0.7">
<path d="M99.3505 18.0541C99.0407 17.878 98.7309 17.7459 98.4211 17.5697L97.4916 17.1294L95.6328 20.7841L96.4738 21.2245C96.7836 21.4006 97.0491 21.5327 97.3589 21.7089L99.3505 18.0541Z" fill="#FFA600"/>
</g>
<path d="M102.492 19.9475L101.607 19.3751C101.312 19.199 101.017 19.0228 100.722 18.8467L98.5977 22.4134C98.8927 22.5895 99.1731 22.751 99.4386 22.8977L100.279 23.4261L102.492 19.9475Z" fill="#FFA600"/>
</g>
<g clip-path="url(#clip0_298_16447)">
<path d="M72.493 76.177C73.375 75.9334 74.2189 75.5454 75.0022 75.0172C76.8754 73.7566 78.1531 71.8508 78.5958 69.6487C79.515 65.1096 76.5472 60.7264 71.9855 59.867C67.4257 59.0188 62.9732 62.0126 62.0607 66.5562C61.1482 71.0998 64.1093 75.4785 68.6644 76.3334C69.9493 76.5733 71.2502 76.5184 72.4864 76.1724L72.493 76.177ZM68.1111 67.6868C68.2337 67.0966 68.5829 66.577 69.0831 66.2405C69.5833 65.9041 70.1942 65.7778 70.7836 65.8892C72.008 66.1172 72.8058 67.2958 72.5633 68.5205C72.3141 69.7406 71.122 70.5508 69.8909 70.3181C68.6665 70.0901 67.8686 68.9115 68.1111 67.6868ZM51.8962 82.4629L52.6697 80.2212L53.5413 81.0065L54.0808 79.206L54.9759 79.9285L55.4314 78.179L56.4122 79.0194L57.3863 78.2273C54.6396 74.7356 53.3525 70.1435 54.2003 65.4372L54.1865 65.4574C49.6211 74.8848 50.2882 81.1234 50.2882 81.1234L51.3479 83.0339L51.8916 82.4696L51.8962 82.4629ZM67.4157 82.6095C69.6439 83.0304 71.9422 82.9326 74.1339 82.3237C79.4368 80.8601 83.7564 76.5321 84.9059 70.8291C86.5154 62.8273 81.2946 55.1035 73.2655 53.6023C65.2363 52.1012 57.3914 57.3855 55.7752 65.3828C54.1657 73.3846 59.3865 81.1084 67.4157 82.6095ZM61.0601 66.3731C61.7892 62.7396 64.5426 59.9813 67.926 59.0462C69.3217 58.6591 70.785 58.5963 72.2041 58.8627C77.3256 59.8199 80.6482 64.7424 79.621 69.8388C79.1222 72.3083 77.6948 74.4468 75.5878 75.8627C73.4807 77.2786 70.955 77.8056 68.4816 77.3425C63.3601 76.3853 60.0375 71.4627 61.0647 66.3664L61.0601 66.3731ZM67.1099 84.1263C65.1425 83.7537 63.34 83.0404 61.7283 82.0633C66.3108 87.3764 76.3531 90.8401 76.3531 90.8401L78.5159 90.3996L78.1476 89.7229L76.2441 88.3287L77.2778 87.7354L75.7187 86.6958L76.6925 86.0613L75.1611 85.1098L76.2772 84.425L75.866 83.3538C73.0629 84.4 70.0342 84.6654 67.1033 84.1217L67.1099 84.1263ZM67.0939 52.1913C60.4789 51.2556 52.1732 53.3136 52.1732 53.3136L50.5895 54.8517L51.2796 55.2164L53.6508 55.3431L53.108 56.3915L54.9938 56.4121L54.5228 57.4702L56.3378 57.4226L55.7706 58.5923L56.6872 59.2407C58.9137 55.8941 62.2905 53.4549 66.1566 52.3871C66.4678 52.3046 66.7898 52.2492 67.1098 52.1825L67.0939 52.1913ZM84.6074 59.9403C83.4838 53.3394 78.7431 46.0435 78.7431 46.0435L76.774 45.0877L76.6468 45.8587L77.2829 48.1299L76.1133 47.9789L76.6993 49.752L75.5421 49.6687L76.1586 51.3543L74.8585 51.2223L74.5258 52.3358C76.6353 52.858 78.6152 53.8023 80.347 55.112C82.0788 56.4217 83.527 58.07 84.6049 59.9583L84.6074 59.9403ZM91.6391 68.5509L91.4224 67.396L89.9105 68.5296L89.637 67.4147L88.2194 68.5536L87.9483 67.2924L86.717 67.3457C86.7617 68.5799 86.678 69.8444 86.4258 71.1118C85.7166 74.6307 83.9086 77.6526 81.4414 79.9363C87.8279 77.0356 94.0774 69.2366 94.0774 69.2366L94.3917 67.0647L93.6238 67.1991L91.6503 68.5487L91.6391 68.5509Z" fill="#FFA600"/>
</g>
<defs>
<clipPath id="clip0_298_16447">
<rect width="56" height="56" fill="white" transform="translate(42.334 42)"/>
</clipPath>
</defs>
</svg>
