<svg width="141" height="140" viewBox="0 0 141 140" fill="none" xmlns="http://www.w3.org/2000/svg">
<g opacity="0.67">
<path d="M98.619 102.378C99.4599 102.554 100.345 102.73 101.23 102.863C102.086 102.98 102.971 103.083 103.886 103.171C108.179 98.9876 111.631 93.9678 114.021 88.4637C116.411 82.9595 117.694 76.971 117.827 71.0265L113.534 70.9385C113.445 76.1344 112.383 81.3743 110.347 86.1739C109.934 86.3207 109.507 86.4528 109.064 86.5702C108.621 86.6877 108.193 86.8051 107.78 86.9225C106.94 87.0986 106.054 87.2748 105.214 87.4509C104.196 89.3443 103.045 91.1937 101.761 92.9551C100.434 94.6723 98.9731 96.3016 97.3798 97.7987C94.2375 100.749 90.5641 103.215 86.5809 104.976C86.4481 105.416 86.3596 105.857 86.2268 106.253C86.1088 106.693 85.9907 107.134 85.8727 107.574C85.7252 107.985 85.5777 108.411 85.4301 108.851C85.2974 109.291 85.1204 109.732 84.9434 110.172C89.9445 108.455 94.5916 105.769 98.619 102.378Z" fill="#3CAB86"/>
<path d="M84.3234 102.642C87.51 101.365 90.5196 99.6038 93.175 97.4462C95.8305 95.3326 98.2205 92.7786 100.168 89.9605C100.433 89.6523 100.655 89.256 100.876 88.9037L101.23 88.3753C101.319 88.1992 101.451 88.0231 101.54 87.8029C101.746 87.4506 101.968 87.0837 102.204 86.7021L102.779 85.5572L102.912 85.293L103.045 84.9848L103.31 84.4123L103.576 83.8399C103.664 83.6197 103.753 83.4436 103.797 83.2235C103.974 82.8418 104.136 82.4455 104.284 82.0346L104.682 80.8457C104.859 80.4494 104.948 80.009 105.081 79.6127C105.169 79.2164 105.302 78.7761 105.39 78.3798L105.7 77.1469L105.921 75.8699C106.187 74.1967 106.364 72.4793 106.408 70.7621C106.408 70.674 106.497 70.5859 106.674 70.5859C106.807 70.5859 106.939 70.674 106.939 70.7621C106.851 74.2407 106.275 77.6753 105.213 80.9777L104.771 82.2107C104.638 82.607 104.461 83.0033 104.328 83.3996C104.24 83.6051 104.151 83.8106 104.063 84.016L103.797 84.5885L103.531 85.2049L103.399 85.4691L103.266 85.7774L102.646 86.9222C102.469 87.3185 102.248 87.6708 102.027 88.0671C101.909 88.2432 101.791 88.4193 101.673 88.5955L101.319 89.1679L101.009 89.6963L100.832 89.9605L100.61 90.2247L99.858 91.2815C99.5925 91.6338 99.3269 91.986 99.0614 92.3383C98.9286 92.4704 98.7959 92.6465 98.6631 92.8227L98.2205 93.307L97.8221 93.7914L97.6008 94.0556L97.3795 94.2758L96.4502 95.2445C96.1551 95.5381 95.8453 95.8316 95.5207 96.1252C95.2109 96.4334 94.9011 96.6976 94.5471 97.0058C94.2373 97.27 93.9275 97.5782 93.5734 97.8424C90.8737 100 87.8199 101.761 84.6333 103.082C83.7039 107.442 81.9336 111.845 79.3224 116.028C79.2929 116.087 79.2338 116.131 79.1453 116.16C74.0999 117.041 68.966 117.085 63.9206 116.336C58.9194 115.544 53.9625 114.003 49.4482 111.669C49.3154 111.581 49.2712 111.449 49.3154 111.317C49.4039 111.184 49.5367 111.14 49.6695 111.185C54.1396 113.518 59.0079 115.015 63.9648 115.808C66.4432 116.16 68.966 116.336 71.4444 116.336L73.3475 116.292C73.9672 116.234 74.5867 116.19 75.2064 116.16C75.826 116.116 76.4456 116.028 77.0652 115.94L77.9946 115.808C78.3192 115.749 78.6289 115.705 78.924 115.676C81.5352 111.493 83.3055 107.089 84.2349 102.774C84.2349 102.715 84.2644 102.671 84.3234 102.642Z" fill="#3CAB86"/>
<path d="M105.658 70.7617C105.658 70.3654 106.145 70.0132 106.676 70.0132C107.207 70.0132 107.65 70.3654 107.65 70.8058C107.65 71.2461 107.163 71.5543 106.632 71.5543C106.101 71.5103 105.658 71.158 105.658 70.7617Z" fill="#3CAB86"/>
<path d="M50.0246 110.523C49.5378 110.303 48.9182 110.479 48.6527 110.964C48.3871 111.448 48.6084 112.021 49.0952 112.285C49.6263 112.549 50.2459 112.373 50.4672 111.888C50.6885 111.404 50.5114 110.788 50.0246 110.523Z" fill="#3CAB86"/>
<path fill-rule="evenodd" clip-rule="evenodd" d="M90.0787 93.5267C94.2832 90.1362 97.6027 85.6007 99.4615 80.5369C99.491 80.5076 99.5352 80.4782 99.5942 80.4489C100.096 80.3314 100.583 80.1994 101.055 80.0526L101.807 79.7884C102.073 79.7296 102.324 79.6563 102.56 79.5682C103.032 79.3627 103.518 79.1719 104.02 78.9958L104.772 78.6875L105.481 78.3353C105.569 78.2912 105.702 78.2912 105.79 78.3353C105.879 78.4233 105.923 78.5114 105.879 78.5995C104.817 83.0028 102.825 87.1859 100.17 90.8847C97.4698 94.5835 94.1063 97.7539 90.2558 100.22C90.1673 100.264 90.0787 100.22 89.9902 100.176C89.9017 100.088 89.8574 99.9996 89.8574 99.9115C89.9164 99.3538 89.9755 98.8254 90.0345 98.3263C90.0788 97.7979 90.0787 97.2695 90.0787 96.7411C90.123 96.2127 90.123 95.7284 90.0787 95.2C90.0787 94.6716 90.064 94.1578 90.0345 93.6588C90.0345 93.6001 90.0492 93.5561 90.0787 93.5267ZM102.604 80.0085C102.161 80.1553 101.719 80.2874 101.276 80.4048C100.833 80.5369 100.391 80.669 99.9483 80.8011C98.0452 85.865 94.7259 90.4444 90.4771 93.879C90.5656 95.6843 90.5656 97.5778 90.3886 99.4712C94.0178 97.1374 97.2043 94.0991 99.727 90.5765C102.294 87.0979 104.153 83.1349 105.259 78.9517C104.374 79.348 103.489 79.7003 102.604 80.0085Z" fill="#3CAB86"/>
<g opacity="0.2">
<path d="M79.501 104.007C79.7371 103.948 79.9731 103.874 80.2092 103.786L80.9173 103.61C81.1385 103.522 81.3598 103.478 81.5811 103.39L82.2893 103.17C81.4041 106.957 79.8994 110.744 77.775 114.354L75.9161 114.619C75.6505 114.663 75.3407 114.663 75.0309 114.663L74.1016 114.751C76.4915 111.316 78.3061 107.661 79.501 104.007Z" fill="#3CAB86"/>
</g>
<g opacity="0.4">
<path d="M74.8098 104.799L76.2262 104.623C76.713 104.579 77.1998 104.491 77.6424 104.403C77.4654 104.843 77.2884 105.283 77.1113 105.724C76.89 106.208 76.7129 106.649 76.4917 107.089C76.0491 107.97 75.5918 108.85 75.1197 109.731C74.6181 110.611 74.0722 111.477 73.4821 112.329C73.2165 112.769 72.9067 113.165 72.5969 113.606C72.3019 114.017 71.9921 114.428 71.6676 114.839C71.048 114.883 70.4284 114.839 69.8088 114.839L68.8793 114.795C68.6138 114.795 68.3039 114.795 67.9941 114.751C70.8267 111.668 73.128 108.278 74.8098 104.799Z" fill="#3CAB86"/>
</g>
<g opacity="0.6">
<path d="M70.0283 104.975C70.9577 105.063 71.9314 104.975 72.9051 104.975C71.002 108.366 68.5677 111.58 65.5582 114.53L64.6287 114.398L64.1862 114.354L63.6994 114.266L61.8848 113.958C65.1599 111.272 67.8597 108.234 70.0283 104.975Z" fill="#3CAB86"/>
</g>
<g opacity="0.8">
<path d="M65.25 104.536L65.6041 104.624C65.7221 104.624 65.84 104.638 65.9581 104.668L66.6662 104.756L67.3744 104.844L68.1268 104.888C65.7811 108.014 62.9042 110.876 59.5406 113.386L57.7261 112.902C57.1508 112.726 56.5754 112.506 56 112.33C56.8852 111.757 57.7704 111.185 58.6113 110.568C59.4374 109.952 60.234 109.321 61.0012 108.675C61.7683 108.029 62.5059 107.368 63.2141 106.693C63.9222 105.989 64.6304 105.284 65.25 104.536Z" fill="#3CAB86"/>
</g>
<path d="M60.6025 103.479L61.9745 103.875C62.1958 103.919 62.4614 103.963 62.6827 104.007L63.3908 104.183C60.6468 106.957 57.4159 109.423 53.6983 111.449C52.5918 110.964 51.4411 110.48 50.3789 109.907C54.2294 108.19 57.6815 105.988 60.6025 103.479Z" fill="#3CAB86"/>
<path d="M79.5455 101.893C77.4654 102.422 75.341 102.774 73.1723 102.906C71.0037 103.038 68.7908 102.994 66.6664 102.686C62.3734 102.157 58.2131 100.748 54.4512 98.5908L55.6904 96.3892C59.1868 98.4147 63.0372 99.6917 66.9762 100.22C68.9678 100.484 71.0037 100.528 72.9953 100.396C74.9869 100.308 76.9785 99.9558 78.9259 99.4715L79.5455 101.893Z" fill="#3CAB86"/>
<path fill-rule="evenodd" clip-rule="evenodd" d="M96.9379 104.843C97.5576 104.374 98.1773 103.889 98.7969 103.39C98.8854 103.302 99.0623 103.346 99.1508 103.434L100.744 105.372C100.877 105.46 100.833 105.636 100.744 105.724C100.066 106.252 99.4017 106.766 98.7526 107.265C98.6198 107.353 98.4428 107.353 98.3543 107.221L96.8937 105.196C96.8052 105.108 96.8052 104.931 96.9379 104.843ZM98.9296 103.963L97.4248 105.152L98.6198 106.693L100.169 105.504L98.9296 103.963Z" fill="#3CAB86"/>
<path fill-rule="evenodd" clip-rule="evenodd" d="M93.3103 107.266C93.6201 107.09 93.9742 106.869 94.284 106.649L95.3019 105.989C95.4347 105.945 95.5675 105.945 95.656 106.077L97.0723 108.146C97.1608 108.278 97.1165 108.411 96.9838 108.499L95.9216 109.203C95.5676 109.423 95.2134 109.644 94.8594 109.864C94.7266 109.952 94.5496 109.908 94.4611 109.776L93.2218 107.618C93.1333 107.486 93.1776 107.354 93.3103 107.266ZM95.3904 106.561C94.8593 106.913 94.3283 107.251 93.7972 107.574L94.8152 109.291C95.3758 108.939 95.9363 108.587 96.4969 108.234L95.3904 106.561Z" fill="#3CAB86"/>
<path fill-rule="evenodd" clip-rule="evenodd" d="M89.4142 109.291C89.6208 109.203 89.8126 109.129 89.9896 109.07L90.5207 108.762L91.5386 108.234C91.6714 108.19 91.8485 108.234 91.8927 108.366L93.0877 110.568C93.1762 110.656 93.1319 110.832 92.9992 110.92L91.8484 111.492L91.2731 111.756C91.0961 111.845 90.9043 111.933 90.6978 112.021C90.565 112.109 90.4322 112.021 90.3437 111.889L89.3257 109.643C89.2372 109.511 89.3257 109.335 89.4142 109.291ZM91.5829 108.806C91.0076 109.114 90.4765 109.423 89.9011 109.687L90.742 111.448C91.3173 111.184 91.8927 110.876 92.5123 110.568L91.5829 108.806Z" fill="#3CAB86"/>
<path fill-rule="evenodd" clip-rule="evenodd" d="M85.3872 110.92L85.9625 110.744C86.1396 110.686 86.3166 110.612 86.4936 110.524L87.6001 110.084C87.7328 110.04 87.8656 110.128 87.9542 110.26L88.9278 112.55C88.9721 112.682 88.8835 112.814 88.7507 112.902L87.6001 113.342C87.3935 113.43 87.1869 113.504 86.9804 113.562L86.4051 113.782C86.2281 113.827 86.0953 113.738 86.051 113.606L85.2544 111.273C85.1659 111.14 85.2544 110.964 85.3872 110.92ZM87.5558 110.656L86.6706 111.008C86.3756 111.126 86.0805 111.243 85.7855 111.361L86.4493 113.21C86.7739 113.093 87.0837 112.975 87.3788 112.858L88.3081 112.506L87.5558 110.656Z" fill="#3CAB86"/>
<path d="M109.95 74.9013C109.375 74.8132 108.932 74.5931 108.578 74.2408C108.268 73.9326 108.091 73.4922 108.136 73.0519C108.136 72.6116 108.401 72.2153 108.8 71.9511C109.154 71.6428 109.685 71.5107 110.216 71.5107C110.747 71.5107 111.278 71.7309 111.632 72.0832C111.942 72.4354 112.163 72.8758 112.119 73.3601C112.075 73.8445 111.809 74.2848 111.411 74.549C111.012 74.8573 110.481 74.9894 109.95 74.9013Z" fill="#3CAB86"/>
<path d="M109.019 79.6565C107.957 79.3923 107.249 78.4677 107.47 77.631C107.559 77.1907 107.824 76.8384 108.267 76.5742C108.665 76.3541 109.196 76.266 109.727 76.3541C110.259 76.4421 110.745 76.7063 111.055 77.0586C111.321 77.4549 111.498 77.9393 111.365 78.4236C111.144 79.3924 110.126 79.9648 109.019 79.6565Z" fill="#3CAB86"/>
<path d="M107.516 84.2805C107.029 84.1043 106.63 83.7521 106.409 83.3117C106.291 83.1356 106.217 82.9301 106.188 82.6953C106.129 82.4898 106.143 82.2696 106.232 82.0348C106.365 81.6385 106.719 81.3303 107.161 81.1541C107.56 80.978 108.091 80.934 108.622 81.0661C109.153 81.2422 109.596 81.5504 109.861 81.9907C110.127 82.387 110.171 82.8714 110.038 83.3558C109.95 83.5906 109.817 83.7961 109.64 83.9722C109.463 84.1043 109.286 84.2365 109.02 84.3245C108.578 84.5007 108.047 84.5006 107.516 84.2805Z" fill="#3CAB86"/>
<path d="M29.0029 77.5868C28.4276 78.2473 27.8523 78.9079 27.3212 79.6124C26.7606 80.2876 26.2147 80.9921 25.6836 81.726C27.1884 87.5383 29.8439 93.0425 33.473 97.8421C37.0579 102.642 41.5722 106.737 46.7061 109.863L48.919 106.208C44.449 103.478 40.4659 99.9557 37.2793 95.8166C37.4563 94.9359 37.6776 94.0552 37.9431 93.2186C38.0612 92.8076 38.1791 92.3967 38.2971 91.9857C38.4447 91.5747 38.5922 91.1637 38.7397 90.7528C37.5447 88.9474 36.5268 87.0099 35.6859 85.0285C34.8008 83.047 34.1369 80.9774 33.65 78.8638C32.5878 74.6366 32.3666 70.2333 32.8092 65.9181C32.1601 65.331 31.5257 64.6998 30.9061 64.0246C30.2864 63.3641 29.7112 62.6596 29.0915 61.9551C28.0736 67.107 28.0735 72.435 29.0029 77.5868Z" fill="#3CAB86"/>
<path d="M35.9518 65.1695L35.7747 66.4464L35.6862 67.7234C35.6419 68.1637 35.6419 68.56 35.6419 69.0003V69.6608C35.6124 69.8663 35.5977 70.0718 35.5977 70.2773L35.6419 71.5543C35.6419 71.7891 35.6567 72.0093 35.6862 72.2148L35.7305 72.8312L35.7747 73.4917C35.8189 73.7119 35.8189 73.888 35.8632 74.1082L36.0403 75.3851C36.3058 77.0584 36.6598 78.7317 37.1909 80.3609C37.6778 81.9901 38.2975 83.5753 39.0498 85.1165C41.9709 91.3251 46.795 96.6091 52.637 100.132C52.7698 100.176 52.7697 100.352 52.6812 100.44C52.637 100.572 52.4599 100.616 52.3714 100.572C46.4409 97.0054 41.5725 91.6334 38.563 85.4247C37.8548 83.8395 37.2352 82.2103 36.7041 80.5811C36.2026 78.9371 35.8043 77.2492 35.5092 75.5172C35.4502 75.1063 35.3911 74.6806 35.3321 74.2403C35.3026 74.0348 35.2731 73.8293 35.2436 73.6238L35.1993 72.9633C35.1993 72.523 35.1551 72.0827 35.1108 71.6864V70.3654C35.1108 68.6481 35.155 66.8867 35.4206 65.2135C32.1012 62.2192 29.136 58.5205 26.7903 54.1612C26.7608 54.1025 26.7461 54.0291 26.7461 53.941C30.2867 44.3858 36.9254 36.0635 45.5114 30.6034C45.6442 30.5154 45.8213 30.5594 45.9098 30.6915C45.9983 30.8236 45.954 30.9557 45.8212 31.0438C37.3679 36.4158 30.7736 44.606 27.3215 54.029C29.6229 58.3443 32.5881 62.0431 35.8632 64.9933C35.9222 65.052 35.9518 65.1107 35.9518 65.1695Z" fill="#3CAB86"/>
<path d="M53.0337 99.5151C53.3877 99.6912 53.4763 100.264 53.1665 100.748C52.9009 101.188 52.3698 101.409 52.0157 101.188C51.6174 100.968 51.5732 100.396 51.883 99.9554C52.1486 99.4711 52.6796 99.2949 53.0337 99.5151Z" fill="#3CAB86"/>
<path d="M46.2184 31.6608C46.661 31.3526 46.7937 30.7362 46.5282 30.2958C46.2626 29.8115 45.5987 29.6794 45.1561 29.9876C44.6693 30.2958 44.5365 30.9123 44.8464 31.3967C45.1119 31.837 45.7758 31.9691 46.2184 31.6608Z" fill="#3CAB86"/>
<path fill-rule="evenodd" clip-rule="evenodd" d="M40.9957 74.6807C41.8366 80.0087 44.138 85.0725 47.5901 89.2557C47.6196 89.285 47.6344 89.3291 47.6344 89.3878C47.4869 89.8868 47.3542 90.3859 47.2361 90.8849L47.1033 91.6335L46.9705 92.382C46.8525 92.9104 46.764 93.4388 46.7049 93.9672C46.6164 94.4956 46.5722 95.024 46.528 95.5524C46.528 95.6405 46.4837 95.7286 46.351 95.7726C46.2625 95.8166 46.1739 95.8166 46.1297 95.7726C42.8103 92.6022 40.1106 88.8153 38.2517 84.6762C36.3486 80.5371 35.2864 76.0457 35.1094 71.4663C35.1094 71.3782 35.198 71.3342 35.2865 71.2901C35.375 71.2461 35.5077 71.2461 35.552 71.3342L36.2158 71.7745L36.8797 72.2589C37.3223 72.5524 37.7649 72.8313 38.2074 73.0955C38.65 73.3597 39.0926 73.6239 39.5352 73.8881C40.0073 74.123 40.4646 74.3578 40.9072 74.5926C40.9662 74.622 40.9957 74.6513 40.9957 74.6807ZM46.528 92.2499C46.705 91.3106 46.9115 90.4152 47.1475 89.5639C43.6511 85.3367 41.3497 80.2289 40.5088 74.8568C39.6679 74.4606 38.8713 74.0202 38.0304 73.5359C37.2338 73.0515 36.4814 72.5231 35.6848 71.9506C35.906 76.2659 36.9682 80.5371 38.7385 84.4561C40.5088 88.4191 43.0316 91.9857 46.1297 95.024C46.2182 94.0993 46.3509 93.1306 46.528 92.2499Z" fill="#3CAB86"/>
<g opacity="0.2">
<path d="M37.1903 60.3257C36.9248 61.2504 36.7035 62.1751 36.4822 63.0998C33.694 60.4578 31.127 57.2874 29.0469 53.6327C29.2682 53.1043 29.4895 52.4878 29.7107 51.9594C29.9763 51.387 30.2419 50.8145 30.5074 50.2861C32.322 54.073 34.5791 57.4636 37.1903 60.3257Z" fill="#3CAB86"/>
</g>
<g opacity="0.4">
<path d="M38.8281 55.8781C38.7396 56.0983 38.6067 56.3185 38.5182 56.5386L38.2527 57.1991L37.9871 57.8596C37.8986 58.0798 37.8543 58.3 37.7658 58.5201C35.3316 55.5259 33.2515 52.0473 31.6582 48.1283C31.968 47.5999 32.2336 47.0715 32.5877 46.5431L33.5613 45.002C34.8448 49.009 36.6152 52.6637 38.8281 55.8781Z" fill="#3CAB86"/>
</g>
<g opacity="0.6">
<path d="M41.04 51.6517C40.7744 52.048 40.5531 52.4884 40.2875 52.8847C40.0662 53.281 39.8449 53.7213 39.6237 54.1616C37.632 50.8592 36.0388 47.1163 34.9766 43.0212L36.1273 41.5681C36.5256 41.1278 36.9239 40.6435 37.3223 40.2031C38.0304 44.3422 39.3139 48.1731 41.04 51.6517Z" fill="#3CAB86"/>
</g>
<g opacity="0.8">
<path d="M43.8299 47.7766L42.9448 48.9214C42.635 49.2737 42.3695 49.67 42.1039 50.0663C40.5549 46.4996 39.4927 42.5806 39.0059 38.3975C39.891 37.5609 40.7762 36.7242 41.7056 35.9316C41.8384 40.1148 42.5907 44.1218 43.8299 47.7766Z" fill="#3CAB86"/>
</g>
<path d="M47.1024 44.2974C46.7483 44.6497 46.409 44.9873 46.0844 45.3102L45.0665 46.367C44.0043 42.6242 43.5174 38.5731 43.6059 34.39C44.0928 33.9937 44.5796 33.6854 45.0665 33.2891L45.8188 32.7607L46.6155 32.2764C46.1729 36.4595 46.3942 40.5106 47.1024 44.2974Z" fill="#3CAB86"/>
<path d="M39.0059 61.4266C40.1123 57.2875 42.0596 53.3245 44.7151 49.9339C47.3706 46.4994 50.6899 43.5932 54.4519 41.4355L55.6911 43.5932C52.239 45.6187 49.1852 48.3047 46.7067 51.4311C44.2725 54.6015 42.458 58.2562 41.44 62.0871L39.0059 61.4266Z" fill="#3CAB86"/>
<path fill-rule="evenodd" clip-rule="evenodd" d="M27.7186 74.9003L27.8513 76.0892C27.8809 76.2654 27.9103 76.4562 27.9398 76.6617L28.0726 77.2341C28.0726 77.3662 27.9841 77.4983 27.8513 77.5423L25.3729 77.9386C25.2401 77.9827 25.1073 77.8946 25.0631 77.7625L24.9303 77.102C24.9008 76.8965 24.8861 76.691 24.8861 76.4855L24.709 75.2526C24.709 75.0765 24.7975 74.9444 24.9303 74.9444L27.4088 74.6802C27.5858 74.6802 27.7186 74.7682 27.7186 74.9003ZM27.4973 77.102C27.4382 76.7791 27.394 76.4562 27.3645 76.1333L27.2317 75.2086L25.2844 75.4287L25.3729 76.4415C25.4319 76.7644 25.4909 77.0873 25.55 77.4102L27.4973 77.102Z" fill="#3CAB86"/>
<path fill-rule="evenodd" clip-rule="evenodd" d="M27.4522 70.585C27.4965 71.3776 27.4523 72.1262 27.5408 72.9188C27.5408 73.0509 27.4523 73.183 27.3195 73.183L24.7967 73.3591C24.6639 73.4031 24.5312 73.271 24.5312 73.1389C24.4427 72.3023 24.4427 71.4657 24.3984 70.629C24.3984 70.4529 24.5313 70.3649 24.664 70.3649L27.1867 70.3208C27.3195 70.3208 27.4522 70.4529 27.4522 70.585ZM27.0096 72.6986L26.9654 72.2583V71.7739L26.9211 70.8492H24.9295L24.9738 71.862V72.3463L25.018 72.8307L27.0096 72.6986Z" fill="#3CAB86"/>
<path fill-rule="evenodd" clip-rule="evenodd" d="M27.6299 66.2261C27.5414 67.0186 27.4971 67.8113 27.4528 68.6039C27.4528 68.736 27.3644 68.824 27.1873 68.824L24.7088 68.78C24.5318 68.78 24.4434 68.6479 24.4434 68.5158C24.4434 67.6351 24.5318 66.7985 24.576 65.9619C24.6203 65.8298 24.7089 65.7417 24.8859 65.7417L27.3643 65.9619C27.4971 65.9619 27.6299 66.094 27.6299 66.2261ZM26.966 68.3396C26.966 67.6791 27.0103 67.0627 27.0545 66.4462L25.1072 66.2701C25.063 66.9306 24.9744 67.5911 24.9744 68.2516L26.966 68.3396Z" fill="#3CAB86"/>
<path fill-rule="evenodd" clip-rule="evenodd" d="M28.205 61.9555C28.0722 62.7041 27.8951 63.4967 27.8066 64.2453C27.8066 64.4214 27.6739 64.5095 27.5411 64.4654L25.0626 64.1572C24.8856 64.1572 24.7971 64.0251 24.8414 63.849C24.9299 63.0123 25.0626 62.2197 25.2396 61.3831C25.2396 61.251 25.3725 61.1189 25.5495 61.1629L27.9837 61.6473C28.1165 61.6473 28.205 61.7794 28.205 61.9555ZM27.3198 63.937C27.4084 63.3206 27.5411 62.7041 27.6296 62.0876L25.6822 61.7354C25.5937 62.3959 25.4609 63.0123 25.3724 63.6728L27.3198 63.937Z" fill="#3CAB86"/>
<path d="M47.2813 101.101C47.6354 100.661 48.078 100.396 48.5206 100.264C49.0074 100.176 49.45 100.22 49.804 100.485C50.1581 100.749 50.3794 101.145 50.4679 101.585C50.5122 102.07 50.3795 102.554 50.1139 103.038C49.8041 103.523 49.3614 103.831 48.9189 103.963C48.432 104.095 47.9453 104.051 47.5469 103.743C47.1486 103.435 46.883 102.994 46.8388 102.554C46.7945 102.07 46.9715 101.541 47.2813 101.101Z" fill="#3CAB86"/>
<path d="M43.6072 97.9301C43.9613 97.5338 44.4481 97.3136 44.9349 97.2696C45.171 97.2402 45.3923 97.2549 45.5988 97.3136C45.8053 97.3723 45.9972 97.475 46.1742 97.6218C46.8381 98.1942 46.8381 99.3391 46.13 100.22C45.4219 101.056 44.2711 101.233 43.5187 100.572C43.2974 100.44 43.1646 100.22 43.0761 99.9996C42.9876 99.7648 42.9581 99.5299 42.9876 99.2951C42.9876 98.8107 43.2089 98.3264 43.6072 97.9301Z" fill="#3CAB86"/>
<path d="M40.3314 94.3193C40.774 93.967 41.2608 93.835 41.7476 93.835C42.1902 93.835 42.6328 93.967 42.9426 94.3193C43.2081 94.6716 43.2967 95.1119 43.2525 95.5523C43.2082 96.0366 42.9869 96.521 42.5443 96.8733C42.146 97.2696 41.6591 97.4897 41.1723 97.4897C40.6854 97.4897 40.2429 97.3136 39.8888 96.9613C39.579 96.565 39.4462 96.0807 39.5347 95.5963C39.6232 95.1119 39.8888 94.6716 40.3314 94.3193Z" fill="#3CAB86"/>
<path d="M85.3858 30.0313C85.1203 29.2093 84.8252 28.3727 84.5007 27.5214C84.1909 26.7288 83.8368 25.9362 83.4384 25.0996C80.5617 24.307 77.5521 23.7786 74.5868 23.5584C71.5773 23.3382 68.5678 23.3823 65.5582 23.7345C59.5834 24.4391 53.7413 26.2884 48.4746 29.1506L50.5105 32.8934C55.1134 30.3835 60.203 28.7103 65.4254 28.0498C66.7532 29.2387 67.9924 30.5156 69.0546 31.8366C71.2675 31.7486 73.4361 31.7926 75.6048 32.0568L76.4015 32.1449L76.7997 32.2329C76.9473 32.2329 77.0948 32.2476 77.2423 32.277C77.7734 32.365 78.3045 32.4678 78.8356 32.5852L80.429 32.9375C80.9601 33.0696 81.4911 33.2457 82.0222 33.3778C84.1023 33.9943 86.1382 34.7868 88.0855 35.7556C88.5724 36.0198 89.0592 36.2399 89.5461 36.5041L90.9623 37.3408L92.3343 38.1774C92.7769 38.4856 93.2195 38.8379 93.6621 39.1461L94.3259 38.926L94.9455 38.7498C95.3881 38.6618 95.8307 38.559 96.2733 38.4416C96.7158 38.3535 97.1584 38.2214 97.601 38.1774C98.0436 38.0893 98.5009 38.0013 98.973 37.9132C94.9898 34.4786 90.387 31.7926 85.3858 30.0313Z" fill="#3CAB86"/>
<path d="M92.7332 42.2283L92.2464 41.832C92.0694 41.6852 91.8923 41.5531 91.7153 41.4357C91.3612 41.2155 91.0071 40.9513 90.6531 40.6871L89.5909 40.0266C89.3844 39.9092 89.1926 39.7918 89.0155 39.6744L88.4845 39.3661L87.9091 39.0579L87.3337 38.7497C86.9354 38.5736 86.5814 38.3534 86.1831 38.1772L85.0323 37.6489C84.8258 37.5608 84.6193 37.4874 84.4127 37.4287L83.8374 37.1645L83.2177 36.9443C83.0112 36.8856 82.8047 36.8122 82.5981 36.7241C82.1998 36.592 81.8015 36.46 81.4032 36.3279L80.1639 35.9756L79.8541 35.8875L79.5444 35.8435L78.9247 35.6674C78.4821 35.5793 78.0838 35.4912 77.6412 35.4032L76.402 35.183C75.5168 35.0949 74.6759 34.9628 73.835 34.9188L73.1711 34.8747C72.9646 34.8454 72.7581 34.8307 72.5516 34.8307L71.268 34.7867C71.032 34.7867 70.8107 34.7867 70.6042 34.7867L69.9846 34.8307H69.3207C69.0994 34.8307 68.8781 34.8747 68.6568 34.8747L67.3734 34.9628L66.1342 35.139C65.6916 35.183 65.2489 35.271 64.8506 35.3151L64.231 35.4472L63.877 35.4912L63.5672 35.5793L62.3279 35.8435C61.9296 35.9756 61.487 36.1077 61.0887 36.1957L60.4691 36.3719L59.8495 36.5921C59.4512 36.7242 59.0528 36.8563 58.6545 36.9884C57.0612 37.6048 55.468 38.3093 53.9632 39.146C53.8747 39.19 53.7419 39.146 53.6534 39.0139C53.6092 38.8818 53.6091 38.7056 53.7419 38.6616C55.2467 37.869 56.8399 37.1204 58.4332 36.504C58.8758 36.3719 59.2741 36.2398 59.6725 36.0636L60.2921 35.8875L60.9117 35.7114C61.3543 35.5793 61.7526 35.4472 62.1951 35.3591L63.4344 35.0509L63.7885 35.0069L64.0983 34.9188L64.7179 34.8307C65.1605 34.7427 65.603 34.6546 66.0014 34.6106L67.3291 34.4344L68.6125 34.3464C68.8338 34.3464 69.0551 34.3023 69.2764 34.3023H69.8961C70.3387 34.3023 70.7813 34.2583 71.2238 34.2583L72.5073 34.3023H72.8614L73.1711 34.3464L73.835 34.3904C74.6759 34.4344 75.5611 34.5665 76.402 34.6546C76.8446 34.7426 77.2724 34.816 77.6854 34.8747C77.892 34.9335 78.1133 34.9775 78.3493 35.0069L78.969 35.139L79.5886 35.3151C79.8246 35.3444 80.0459 35.3885 80.2524 35.4472L81.4917 35.7995C81.89 35.9316 82.3326 36.0636 82.7309 36.1957L83.3505 36.4159L83.9259 36.6801C85.5634 37.2526 87.1567 38.0452 88.6614 38.8818C90.1662 39.7184 91.6268 40.6871 92.9988 41.7439C97.2475 40.3789 101.939 39.6744 106.896 39.8065C106.984 39.8065 107.058 39.8505 107.117 39.9386C110.348 43.8135 113.048 48.2168 114.862 52.9283L115.216 53.8531C115.334 54.1466 115.438 54.4402 115.526 54.7337L115.836 55.6144L115.969 56.0987L116.101 56.5391C116.278 57.1555 116.455 57.772 116.632 58.3885L117.075 60.2379C117.606 62.7037 117.916 65.2576 118.049 67.7675C118.049 67.8996 117.916 68.0317 117.783 68.0317C117.65 68.0317 117.518 67.9437 117.518 67.8116C117.385 65.3017 117.075 62.8358 116.544 60.37L116.146 58.5646C115.969 57.9481 115.792 57.3463 115.615 56.7592C115.482 56.1428 115.261 55.5263 115.039 54.9539L114.729 54.0732L114.42 53.1926C112.605 48.525 109.95 44.2098 106.763 40.3349C101.85 40.2028 97.159 40.8633 92.9103 42.2283C92.8512 42.2576 92.7922 42.2576 92.7332 42.2283Z" fill="#3CAB86"/>
<path d="M54.3182 39.7623C53.9641 39.9825 53.4772 39.7623 53.1674 39.2779C52.9019 38.7936 52.9904 38.2652 53.3887 38.045C53.7428 37.8248 54.2739 38.045 54.5395 38.5294C54.805 39.0138 54.6722 39.5422 54.3182 39.7623Z" fill="#3CAB86"/>
<path d="M116.81 67.8117C116.81 68.3841 117.253 68.7804 117.828 68.7804C118.359 68.7804 118.802 68.296 118.757 67.7236C118.757 67.1512 118.271 66.7549 117.695 66.7549C117.164 66.7989 116.766 67.2833 116.81 67.8117Z" fill="#3CAB86"/>
<path fill-rule="evenodd" clip-rule="evenodd" d="M81.934 41.8318L81.4915 41.6117L81.0046 41.4796L80.0309 41.1273L79.0573 40.8631C78.8802 40.8337 78.7179 40.7897 78.5704 40.731L78.0836 40.6429L77.0657 40.3787L76.092 40.2026C75.915 40.1733 75.738 40.1439 75.5609 40.1145L75.074 40.0705C74.7495 40.0412 74.4102 39.9971 74.0561 39.9384L73.0381 39.8503C72.8611 39.8503 72.6989 39.8503 72.5514 39.8503L72.0203 39.8063H71.0023H69.9844L69.4975 39.8503C69.3205 39.8503 69.1435 39.8503 68.9664 39.8503L67.9485 39.9384L66.9306 40.0705L66.4437 40.1145C66.2667 40.1439 66.1044 40.1733 65.9569 40.2026C65.8978 40.232 65.8537 40.2173 65.8242 40.1586C65.4701 39.8063 65.1013 39.454 64.7177 39.1018C64.3194 38.7495 63.921 38.3973 63.5227 38.089C63.1243 37.7368 62.726 37.3845 62.3277 37.0762C61.8851 36.7533 61.4426 36.4451 61 36.1516C60.9557 36.1075 60.8672 35.9754 60.8672 35.8874C60.9114 35.7553 60.9558 35.7112 61.0443 35.6672C65.4258 34.3902 70.0729 33.9939 74.6315 34.4342C79.19 34.8746 83.6158 36.2396 87.6876 38.3532C87.7318 38.3972 87.7761 38.4853 87.7761 38.5734C87.7318 38.6614 87.6876 38.7495 87.5991 38.7935C86.5812 39.2339 85.6517 39.6742 84.7223 40.2026C84.2502 40.4374 83.8076 40.687 83.3946 40.9512C82.952 41.2154 82.5094 41.4942 82.0668 41.7878C82.0373 41.8171 81.993 41.8318 81.934 41.8318ZM65.9127 39.6742C66.2667 39.6302 66.5766 39.5861 66.9306 39.5421C67.2847 39.4981 67.5944 39.454 67.9485 39.41L68.9664 39.3219C69.1435 39.3219 69.3205 39.3219 69.4975 39.3219L69.9844 39.2779H71.0465H72.0645L72.5956 39.3219L73.0824 39.366L74.1004 39.41C74.4545 39.4687 74.7938 39.5128 75.1184 39.5421L75.6494 39.6302C75.8265 39.6302 75.9887 39.6595 76.1362 39.7182L77.1542 39.8944C77.5082 39.9384 77.818 40.0265 78.1721 40.1145L78.659 40.2026C78.836 40.2613 78.9982 40.3053 79.1458 40.3347L80.1194 40.6429C80.444 40.731 80.7686 40.8338 81.0932 40.9512L81.58 41.1273C81.757 41.186 81.9193 41.2447 82.0668 41.3034C82.8192 40.8191 83.6159 40.2907 84.4125 39.8503C84.8256 39.6155 85.2534 39.3953 85.696 39.1898C86.1385 38.9697 86.5368 38.7935 86.9794 38.5734C83.129 36.6359 78.8803 35.403 74.543 34.9627C70.2499 34.5664 65.8241 34.9186 61.6639 36.0195C63.2129 37.1643 64.6292 38.3972 65.9127 39.6742Z" fill="#3CAB86"/>
<g opacity="0.2">
<path d="M96.3203 45.7071C96.1728 45.531 96.0105 45.3548 95.8335 45.1787L95.3024 44.6943L94.7713 44.21C94.6385 44.0338 94.4173 43.9017 94.2402 43.7256C97.9579 42.6248 102.03 42.0083 106.234 42.0083L106.809 42.7128C106.986 42.977 107.164 43.2265 107.341 43.4614L108.403 44.9585C104.198 44.6063 100.127 44.9145 96.3203 45.7071Z" fill="#3CAB86"/>
</g>
<g opacity="0.4">
<path d="M99.4181 49.3614L99.1968 49.0532L98.9756 48.789L98.533 48.2166C98.4002 48.0405 98.2674 47.8203 98.0904 47.6441L97.6035 47.1158C101.454 46.4993 105.526 46.4553 109.73 47.0277L110.66 48.6129L111.501 50.2421C107.385 49.3174 103.313 49.0532 99.4181 49.3614Z" fill="#3CAB86"/>
</g>
<g opacity="0.6">
<path d="M101.983 53.3684L101.275 52.1354C101.157 51.93 101.024 51.7245 100.877 51.519L100.479 50.9025C104.373 50.8145 108.445 51.3428 112.517 52.4437C112.753 53.0308 112.974 53.6032 113.181 54.161L113.358 54.6013L113.535 55.0416L113.8 55.8783C109.861 54.4252 105.878 53.5885 101.983 53.3684Z" fill="#3CAB86"/>
</g>
<g opacity="0.8">
<path d="M103.975 57.6845L103.444 56.3635L102.824 55.0425C106.719 55.4828 110.658 56.5396 114.508 58.2128C114.685 58.8293 114.818 59.4018 114.951 60.0182L115.172 60.8989C115.231 61.1924 115.29 61.5007 115.349 61.8236C111.632 59.8421 107.781 58.433 103.975 57.6845Z" fill="#3CAB86"/>
</g>
<path d="M105.348 62.2638C105.127 61.2951 104.861 60.4144 104.596 59.4897C108.358 60.4585 112.12 62.0437 115.705 64.2013C115.882 65.4342 115.97 66.6231 116.059 67.856C112.606 65.3902 108.977 63.5408 105.348 62.2638Z" fill="#3CAB86"/>
<path d="M94.4598 46.7202C97.5578 49.7585 99.992 53.4132 101.63 57.4203C103.311 61.3832 104.152 65.6985 104.152 70.0138H101.63C101.63 66.0067 100.877 62.0438 99.3282 58.345C97.7791 54.6902 95.522 51.2997 92.6895 48.4815L94.4598 46.7202Z" fill="#3CAB86"/>
<path fill-rule="evenodd" clip-rule="evenodd" d="M88.3955 30.2513C88.0414 30.0752 87.6431 29.9431 87.289 29.811L86.1826 29.3706C86.0498 29.3266 86.0055 29.1505 86.0498 29.0184L86.8907 26.6846C86.9792 26.5525 87.112 26.4645 87.2447 26.5525L88.4397 26.9929C88.838 27.169 89.2364 27.3011 89.5904 27.4772C89.7232 27.5653 89.8117 27.6974 89.7232 27.8295L88.7053 30.1192C88.661 30.2513 88.5283 30.2953 88.3955 30.2513ZM86.6252 28.9744C87.2005 29.1945 87.7758 29.4147 88.3512 29.6789L89.1479 27.8735C88.5282 27.6093 87.9087 27.3892 87.289 27.125L86.6252 28.9744Z" fill="#3CAB86"/>
<path fill-rule="evenodd" clip-rule="evenodd" d="M92.292 32.1887L91.8052 31.8805L91.2741 31.6163L90.2119 31.0879C90.0791 31.0438 90.0348 30.8677 90.0791 30.7356L91.1855 28.4899C91.2741 28.3578 91.4069 28.3138 91.5396 28.3578L92.6904 28.9302L93.2215 29.2385L93.7968 29.5467C93.9296 29.6348 93.9738 29.8109 93.8853 29.899L92.6461 32.1006C92.6018 32.1887 92.4248 32.2768 92.292 32.1887ZM90.6545 30.7356L91.4954 31.176C91.7905 31.2934 92.0707 31.4402 92.3363 31.6163L93.3099 29.899C93.0149 29.7228 92.7198 29.5614 92.4248 29.4146L91.5396 28.9743L90.6545 30.7356Z" fill="#3CAB86"/>
<path fill-rule="evenodd" clip-rule="evenodd" d="M96.0089 34.5223C95.3451 34.0379 94.6812 33.6416 94.0173 33.2013C93.8845 33.1132 93.8846 32.9811 93.9288 32.849L95.2566 30.7354C95.3451 30.6034 95.522 30.5593 95.6105 30.6474C96.3187 31.0877 97.0711 31.528 97.7349 32.0124C97.8677 32.1005 97.912 32.2766 97.8234 32.4087L96.363 34.4342C96.2745 34.5663 96.0974 34.5663 96.0089 34.5223ZM94.5041 32.8931L95.3008 33.3774C95.4483 33.4655 95.5811 33.5536 95.6991 33.6416L96.0974 33.9058L97.2039 32.3206L96.8056 32.0124C96.6876 31.9243 96.5547 31.8363 96.4072 31.7482L95.5663 31.2198L94.5041 32.8931Z" fill="#3CAB86"/>
<path fill-rule="evenodd" clip-rule="evenodd" d="M99.4612 37.1648C99.1513 36.9006 98.8415 36.6364 98.5317 36.4162L97.6022 35.6677C97.5137 35.5796 97.4695 35.4475 97.558 35.3154L99.1071 33.3339C99.1956 33.2018 99.3284 33.2018 99.4612 33.2899L100.435 34.0825C100.789 34.3467 101.099 34.6109 101.408 34.8751C101.541 34.9631 101.541 35.1393 101.453 35.2714L99.8151 37.1208C99.7266 37.2529 99.5497 37.2529 99.4612 37.1648ZM98.1334 35.4035C98.6202 35.7998 99.107 36.1961 99.5938 36.5924L100.877 35.0952C100.391 34.6549 99.8595 34.2586 99.3284 33.8623L98.1334 35.4035Z" fill="#3CAB86"/>
<path d="M55.7775 33.9943C56.22 35.007 55.9102 36.1519 55.1136 36.5042C54.671 36.6803 54.2284 36.6803 53.7858 36.5042C53.3875 36.328 52.9892 35.9758 52.7237 35.4914C52.4581 34.963 52.3696 34.4346 52.5024 33.9943C52.6352 33.5099 52.945 33.1136 53.3876 32.8934C54.2727 32.4971 55.3791 32.9815 55.7775 33.9943Z" fill="#3CAB86"/>
<path d="M60.4254 32.4092C60.5582 32.9376 60.5139 33.466 60.3369 33.9063C60.2484 34.1118 60.1157 34.2879 59.9386 34.4347C59.8059 34.6108 59.6288 34.7429 59.4076 34.787C58.965 34.9631 58.5223 34.875 58.124 34.6108C57.7257 34.3907 57.3716 33.9944 57.1504 33.466C56.9733 32.9816 56.9733 32.4092 57.1504 31.9688C57.3274 31.5285 57.6815 31.1762 58.1683 31.0001C58.4044 30.9414 58.6403 30.9267 58.8764 30.9561C59.1124 30.9854 59.3337 31.0735 59.5402 31.2203C59.9386 31.4404 60.2484 31.8808 60.4254 32.4092Z" fill="#3CAB86"/>
<path d="M65.2056 31.3962C65.3384 32.453 64.763 33.5098 63.8778 33.6419C63.4353 33.7299 62.9927 33.5978 62.6386 33.3336C62.2403 33.0254 61.9748 32.5851 61.842 32.0567C61.7093 31.5283 61.7535 30.9999 62.019 30.5596C62.2403 30.1633 62.6386 29.811 63.1255 29.7229C64.0992 29.5468 65.0286 30.2954 65.2056 31.3962Z" fill="#3CAB86"/>
<path d="M40.5096 123.249C40.9521 123.469 41.3947 123.734 41.8373 123.998L43.2093 124.702L43.8732 125.011C44.1092 125.128 44.3453 125.245 44.5814 125.363L45.9533 125.979C46.0418 126.009 46.1304 126.009 46.2189 125.979C46.75 125.759 47.1926 125.495 47.6794 125.275C48.181 125.011 48.6678 124.746 49.1399 124.482C49.6119 124.218 50.0841 123.954 50.5562 123.69C50.9988 123.425 51.4413 123.161 51.9281 122.853C58.3898 125.187 65.2498 126.243 72.154 126.111C75.6061 126.067 79.0141 125.671 82.3777 125.011C85.7413 124.306 89.0606 123.337 92.2472 122.016C92.6898 122.281 93.1324 122.545 93.575 122.765C94.0175 123 94.4748 123.235 94.9469 123.469C95.8321 123.954 96.8058 124.394 97.7352 124.834C97.8237 124.864 97.9122 124.849 98.0008 124.79C108.224 119.859 116.943 111.977 122.962 102.422C123.139 102.157 123.361 101.849 123.538 101.541L124.069 100.616L124.6 99.6915C124.777 99.3833 124.954 99.1191 125.087 98.7668L126.06 96.9174C126.149 96.7413 126.237 96.5798 126.326 96.4331L126.547 95.9487L126.99 94.98C127.609 93.703 128.052 92.382 128.583 91.061C128.819 90.4152 129.055 89.7547 129.291 89.0795C129.409 88.7273 129.512 88.3897 129.601 88.0668L129.911 87.054C130.752 84.368 131.283 81.5499 131.725 78.7758L131.991 76.7062C132.02 76.5301 132.035 76.354 132.035 76.1778L132.079 75.6494L132.168 74.5926C132.301 73.1836 132.301 71.7745 132.345 70.3654C132.345 70.1453 132.168 70.0132 131.947 70.0132C131.725 70.0132 131.548 70.1453 131.548 70.3654C131.504 71.7305 131.504 73.1395 131.371 74.5045L131.283 75.5613C131.253 75.9136 131.209 76.2512 131.15 76.5741L130.884 78.6437C130.486 81.3737 129.955 84.1478 129.158 86.7898L128.849 87.8026C128.76 88.1108 128.627 88.4631 128.539 88.7713L127.831 90.7528L127.078 92.6903C126.945 92.9985 126.857 93.3507 126.68 93.659L126.237 94.5837L125.839 95.5524C125.691 95.8753 125.544 96.1835 125.396 96.4771L124.423 98.3265C124.246 98.6788 124.069 98.9429 123.936 99.2512L123.405 100.176L122.874 101.057C122.697 101.365 122.52 101.673 122.298 101.937L121.192 103.699L119.953 105.416C119.776 105.68 119.554 105.988 119.333 106.252L118.714 107.045L118.05 107.882L117.74 108.278L117.386 108.674L116.014 110.259C115.792 110.524 115.571 110.788 115.306 111.008L114.598 111.757L113.845 112.549C113.609 112.784 113.358 113.019 113.093 113.254C112.606 113.738 112.119 114.222 111.588 114.663C110.526 115.587 109.508 116.512 108.401 117.349C107.295 118.229 106.144 119.022 104.994 119.815C104.418 120.211 103.843 120.563 103.267 120.96L102.382 121.532L101.453 122.06C100.833 122.369 100.258 122.765 99.6383 123.073L97.7795 123.998C96.8501 123.646 95.8764 123.161 94.9912 122.677C94.5191 122.471 94.0617 122.251 93.6192 122.016L92.9553 121.664L92.2914 121.268C92.2029 121.209 92.1291 121.194 92.0701 121.224C88.8835 122.501 85.6085 123.513 82.2892 124.218C78.9698 124.878 75.5619 125.231 72.154 125.319C65.294 125.451 58.4783 124.35 52.0609 122.06C51.9724 122.031 51.8839 122.046 51.7953 122.104C50.9102 122.633 49.9955 123.161 49.0514 123.69C48.6088 123.954 48.122 124.218 47.6351 124.482C47.163 124.717 46.6762 124.952 46.1746 125.187L44.8469 124.57C44.36 124.394 43.9617 124.13 43.5191 123.91L42.1914 123.249C41.7488 123.029 41.3505 122.765 40.9079 122.545C40.7752 122.457 40.5538 122.545 40.4211 122.721C40.3325 122.897 40.3768 123.161 40.5096 123.249Z" fill="#3CAB86"/>
<path d="M113.357 116.688C115.924 114.355 118.314 111.801 120.483 109.071C122.696 106.341 124.643 103.478 126.325 100.396C128.007 97.3578 129.467 94.1874 130.618 90.8849L131.06 89.652L131.237 89.0355C131.326 88.83 131.4 88.6245 131.459 88.419L132.167 85.9091C132.388 85.0725 132.565 84.1919 132.742 83.3552L132.919 82.7387C132.949 82.5039 132.978 82.2837 133.008 82.0782L133.273 80.8013L128.848 80.0527L128.626 81.2416C128.597 81.4471 128.552 81.6379 128.493 81.8141L128.361 82.4305C128.184 83.2231 128.007 84.0157 127.83 84.7643L127.166 87.098C127.107 87.3035 127.033 87.4943 126.944 87.6705L126.767 88.2429L126.369 89.3878C125.307 92.4701 123.979 95.4203 122.386 98.2384C120.837 101.101 119.022 103.743 116.986 106.296C114.95 108.806 112.738 111.184 110.348 113.386L113.357 116.688Z" fill="#3CAB86"/>
<path d="M47.8129 136.107C52.7255 137.78 57.771 138.969 62.9049 139.541C68.0389 140.114 73.217 140.158 78.3952 139.629C88.6631 138.573 98.7096 135.182 107.561 129.854C111.943 127.168 116.059 123.998 119.776 120.431C123.494 116.864 126.858 112.945 129.69 108.63C132.567 104.315 134.913 99.7354 136.771 94.9358C136.89 94.6129 137.008 94.3047 137.126 94.0111L137.435 93.1304L138.055 91.281L138.232 90.8407L138.365 90.3563L138.63 89.4316L139.161 87.5822C139.309 86.9364 139.457 86.3053 139.604 85.6888L139.781 84.7641C139.87 84.4559 139.958 84.1477 140.002 83.7954L140.356 81.902C140.445 81.2855 140.578 80.625 140.666 80.0085C140.017 79.0398 139.383 78.1005 138.763 77.1904C138.099 76.2657 137.391 75.341 136.727 74.5044L136.55 76.4419C136.506 77.1024 136.417 77.7629 136.329 78.3793L136.196 79.348C136.152 79.7003 136.108 80.0085 136.063 80.3168L135.709 82.2542L135.532 83.223L135.311 84.1917L134.868 86.0851C134.824 86.3934 134.691 86.7016 134.603 87.0538L134.337 87.9786L134.072 88.9032C133.983 89.2261 133.895 89.5491 133.806 89.872C132.169 94.8477 130 99.6033 127.3 104.095C124.512 108.542 121.281 112.681 117.564 116.38C113.846 120.035 109.686 123.293 105.216 126.023C100.701 128.709 95.9214 130.911 90.9203 132.496C90.6105 132.584 90.2564 132.672 89.9466 132.76L89.0171 133.024L88.0435 133.333C87.7337 133.421 87.4238 133.509 87.114 133.553L85.2109 133.993L84.2373 134.213L83.2636 134.389L81.3163 134.742C81.0065 134.786 80.6523 134.83 80.3425 134.874L79.3689 135.006L78.3952 135.138C78.0854 135.182 77.7314 135.226 77.4216 135.226L75.4742 135.358L74.4563 135.446C74.1317 135.476 73.8071 135.49 73.4825 135.49L71.5352 135.534H71.0484H70.5616L69.5436 135.49L67.5963 135.446L65.6489 135.314C64.985 135.27 64.3212 135.226 63.6573 135.138C62.3738 134.962 61.046 134.83 59.7626 134.566L57.8153 134.213C57.1956 134.096 56.5613 133.949 55.9121 133.773C54.6287 133.509 53.3895 133.157 52.106 132.804C51.4864 132.628 50.8667 132.408 50.2471 132.188L48.3883 131.571L46.5295 130.867C45.9099 130.603 45.2902 130.382 44.7148 130.118L45.0689 130.867C45.187 131.131 45.305 131.381 45.423 131.615C45.6591 132.114 45.9098 132.613 46.1754 133.113C46.4409 133.612 46.7065 134.111 46.972 134.61C47.2376 135.138 47.5474 135.622 47.8129 136.107Z" fill="#3CAB86"/>
<path d="M52.9902 125.142C56.044 126.111 59.1863 126.86 62.3729 127.344C65.5595 127.828 68.7903 128.005 72.0212 127.961L73.2603 127.917C73.6586 127.917 74.057 127.917 74.4554 127.873L76.8896 127.696C77.6862 127.608 78.4828 127.476 79.2794 127.388L79.8548 127.3L80.4744 127.212L81.6693 126.992C84.8117 126.419 87.954 125.583 90.9635 124.482L89.4588 120.299C86.6263 121.312 83.7495 122.06 80.8285 122.589L79.722 122.809L79.191 122.897L78.6599 122.985L76.4027 123.249L74.1898 123.425C73.8357 123.469 73.4374 123.469 73.0833 123.469H71.9769C68.9673 123.513 66.0021 123.381 63.0368 122.941C60.1158 122.456 57.1947 121.796 54.3622 120.871L52.9902 125.142Z" fill="#3CAB86"/>
<g opacity="0.2">
<path d="M107.872 116.512L108.713 115.895C108.978 115.675 109.244 115.411 109.509 115.191L106.809 112.064C106.544 112.285 106.323 112.505 106.057 112.681L105.305 113.253L107.872 116.512Z" fill="#3CAB86"/>
</g>
<g opacity="0.5">
<path d="M104.948 118.67L106.63 117.481L104.152 114.178L102.559 115.279L104.948 118.67Z" fill="#3CAB86"/>
</g>
<g opacity="0.7">
<path d="M101.895 120.696L103.621 119.551L101.364 116.116L99.7266 117.129L101.895 120.696Z" fill="#3CAB86"/>
</g>
<path d="M98.709 122.457C99.0188 122.281 99.3286 122.149 99.5942 121.973L100.524 121.444L98.4435 117.877L97.6026 118.362C97.337 118.538 97.0273 118.67 96.7617 118.802L98.709 122.457Z" fill="#3CAB86"/>
<path d="M39.9346 17.1289C39.0495 17.6133 38.2085 18.1858 37.3234 18.7142L36.7038 19.1104C36.4825 19.2425 36.2612 19.4187 36.0399 19.5508L34.8007 20.4314C34.7417 20.4901 34.6974 20.5782 34.6679 20.6956L34.6237 21.4882L34.5794 22.3249C34.5794 22.8533 34.5646 23.3963 34.5351 23.9541C34.5351 25.0109 34.5351 26.0677 34.5794 27.1245C29.3127 31.5718 24.8869 36.9439 21.5676 42.9324C18.2482 48.9209 16.0795 55.5258 15.1059 62.2629C14.2502 62.7913 13.3798 63.3344 12.4947 63.8922C11.6538 64.4205 10.8128 65.037 9.97189 65.6535C9.88338 65.7122 9.83921 65.7856 9.83921 65.8736C9.8097 66.2259 9.78011 66.5782 9.7506 66.9304L9.70641 67.9872C9.70641 68.6918 9.69161 69.3963 9.66211 70.1008L9.7506 72.2144C9.7506 72.5667 9.7506 72.9189 9.7506 73.2712L9.83921 74.328C9.88346 75.0325 9.92768 75.7371 10.0162 76.4416L10.2818 78.5552C10.3703 79.2597 10.503 79.9202 10.6358 80.6247L10.8129 81.6816C10.8571 82.0338 10.9456 82.342 10.9898 82.6943L11.4767 84.7639L11.6095 85.2923L11.7422 85.7766L12.0521 86.7894C12.4062 88.1544 12.893 89.4754 13.3355 90.8404C13.6011 91.5009 13.8667 92.1614 14.1322 92.8219L14.4863 93.7907L14.9289 94.7594C15.2387 95.3758 15.5042 96.0363 15.814 96.6968L16.7877 98.5462L17.0532 99.0306C17.1417 99.1774 17.2302 99.3242 17.3188 99.4709L17.8498 100.396C18.2039 101.012 18.5138 101.629 18.9121 102.245L20.0627 104.006C20.4611 104.579 20.9037 105.151 21.302 105.724C21.5085 106.017 21.715 106.311 21.9216 106.604L22.5854 107.441L23.2493 108.278C23.4706 108.542 23.6476 108.806 23.9132 109.07L25.2852 110.699C25.4032 110.817 25.5213 110.949 25.6393 111.096L25.9934 111.448L26.7457 112.241L27.4981 112.989C27.7194 113.253 27.9849 113.473 28.2505 113.738L29.7995 115.191L31.3928 116.556C31.6584 116.82 31.9239 117.04 32.1895 117.26L33.0304 117.921L33.8712 118.581L34.2696 118.89L34.7122 119.198L36.4382 120.431C36.748 120.651 37.0578 120.827 37.3234 121.003L38.2528 121.576L39.138 122.148C39.433 122.324 39.7428 122.5 40.0673 122.676C40.2001 122.764 40.4214 122.676 40.5542 122.5C40.6427 122.324 40.6428 122.06 40.4657 121.972C40.1707 121.796 39.8608 121.62 39.5363 121.443L38.6511 120.915L37.8102 120.343C37.5004 120.167 37.1906 119.99 36.9251 119.77L35.199 118.537L34.8007 118.273L34.3581 117.921L33.5614 117.304C32.455 116.468 31.3928 115.499 30.3306 114.618L28.8258 113.165C28.5603 112.945 28.2948 112.681 28.0735 112.461L27.3653 111.712L26.6129 110.92C26.3769 110.685 26.1408 110.435 25.9048 110.171L24.5328 108.586C24.3116 108.322 24.0902 108.057 23.9132 107.793L23.2493 106.957L22.5854 106.164C22.3641 105.856 22.1871 105.592 21.9659 105.283C21.5823 104.726 21.184 104.168 20.7709 103.61L19.6645 101.849C19.2661 101.276 18.9121 100.66 18.558 100.043L18.0711 99.1627L17.8056 98.7224L17.5401 98.238L16.6106 96.3886C16.4336 96.0804 16.3008 95.7722 16.168 95.4639L15.7254 94.4952L15.2829 93.5265C15.1501 93.2182 15.0173 92.91 14.8846 92.6018L14.1322 90.6203L13.4683 88.6828C13.3356 88.3305 13.2471 88.0223 13.1586 87.6701L12.8487 86.6573L12.5832 85.6886C12.4504 85.3363 12.3618 85.0281 12.3176 84.6758L11.8308 82.6503C11.2555 79.9202 10.8128 77.1902 10.6801 74.372L10.5916 73.3593C10.5473 73.007 10.5473 72.6547 10.5473 72.3025L10.5031 70.2329C10.5031 69.5284 10.503 68.8239 10.5473 68.1634V67.1066C10.5473 66.7543 10.5915 66.4021 10.6358 66.0498C11.4914 65.4627 12.3324 64.8756 13.1586 64.2885C13.9995 63.7601 14.8846 63.2316 15.7697 62.7033C15.8583 62.6739 15.9025 62.6152 15.9025 62.5271C16.8319 55.7901 19.0005 49.2731 22.2756 43.3287C25.5507 37.3842 29.9765 32.0562 35.199 27.6969C35.258 27.6382 35.2876 27.5501 35.2876 27.4327C35.2876 26.9043 35.2433 26.3759 35.2433 25.8475C35.2433 25.3191 35.2581 24.7907 35.2876 24.2623C35.2876 23.7339 35.2876 23.1908 35.2876 22.6331C35.3318 22.1047 35.376 21.5763 35.4202 21.0039C36.2169 20.4314 37.0135 19.859 37.8544 19.3747C38.6511 18.8463 39.492 18.2738 40.3329 17.8335C40.51 17.7014 40.5542 17.4812 40.4214 17.3051C40.3329 17.0849 40.0674 17.0409 39.9346 17.1289Z" fill="#3CAB86"/>
<path d="M9.21875 83.1352L9.79413 85.6891L10.5023 88.199C10.5908 88.4191 10.635 88.5953 10.6793 88.8154L10.9006 89.4319L11.3432 90.6648L11.5201 91.2813C11.6087 91.4868 11.6824 91.6923 11.7414 91.8977L12.2283 93.1307C13.5118 96.3451 15.0608 99.5155 16.8754 102.466C18.69 105.46 20.7701 108.278 23.0272 110.92C24.1779 112.241 25.3729 113.518 26.6122 114.751L28.5153 116.556L30.5069 118.23L33.3837 114.795L31.5248 113.21L29.7545 111.537C28.6481 110.392 27.4974 109.247 26.4352 108.014C24.3551 105.548 22.4076 102.906 20.7258 100.176C19.044 97.4019 17.6278 94.4957 16.4328 91.4574L15.9902 90.3566C15.9017 90.1511 15.828 89.9603 15.769 89.7842L15.592 89.2117L15.1936 88.0669L14.9723 87.4944C14.928 87.2743 14.8838 87.0981 14.7953 86.922L14.1314 84.5882L13.6004 82.2104L9.21875 83.1352Z" fill="#3CAB86"/>
<path d="M25.0633 16.9976C21.1686 20.3441 17.6279 24.1309 14.5299 28.27C11.4761 32.3651 8.82064 36.8565 6.74051 41.568C5.63406 43.9018 4.74888 46.3236 3.95224 48.7454L3.81944 49.2298L3.68665 49.6702L3.42116 50.5948L2.88998 52.4442L2.4474 54.3377L2.22611 55.2624C2.13759 55.6146 2.04908 55.9228 2.00482 56.2311C1.03114 61.2949 0.588564 66.4468 0.67708 71.5546C0.89837 81.8144 3.3769 92.0741 8.06825 101.277C10.3697 105.9 13.2021 110.216 16.433 114.223C16.6395 114.458 16.846 114.707 17.0525 114.971L17.7164 115.676C18.1295 116.175 18.5426 116.659 18.9557 117.129L20.3277 118.538C20.7703 118.978 21.2129 119.463 21.6554 119.903L23.0717 121.224C23.3077 121.459 23.5438 121.679 23.7798 121.885L24.4879 122.545L25.9927 123.778C26.2288 123.983 26.4796 124.189 26.7451 124.394L27.4975 125.011C29.7546 124.923 32.056 124.659 34.2247 124.394C29.8874 121.444 25.9041 118.01 22.3635 114.179C18.8229 110.304 15.7691 106.033 13.2021 101.453C10.6794 96.8737 8.73208 91.986 7.36008 86.9222C7.18305 86.3057 7.05028 85.6893 6.9175 85.0288C6.76998 84.3829 6.62245 83.7518 6.47492 83.1353L6.12084 81.1979C5.98806 80.5374 5.89957 79.9209 5.81105 79.2604C5.63402 77.9835 5.45699 76.6625 5.36847 75.3855L5.23568 73.404L5.19148 71.4666C4.88168 61.0307 7.22729 50.5068 11.8744 41.1277C12.494 39.9829 13.0251 38.794 13.7332 37.6931L14.707 35.9758L15.7691 34.3466L16.3002 33.51C16.4772 33.2458 16.6543 32.9816 16.8756 32.7174L17.982 31.1322C18.1885 30.868 18.395 30.6038 18.6016 30.3396L19.2212 29.547L19.7966 28.7984C20.0032 28.5342 20.2097 28.2847 20.4162 28.0499L21.6996 26.5528C21.9209 26.3326 22.1422 26.0684 22.3635 25.8042L23.0274 25.0997L24.3994 23.6906L25.8156 22.3256C26.7451 21.4449 27.763 20.6083 28.7809 19.7276L29.135 19.4194L29.5334 19.1111L30.2858 18.4947L31.0824 17.9222C31.348 17.7021 31.5692 17.4819 31.8348 17.3058C31.3037 17.2618 30.7726 17.2177 30.1973 17.1737C29.6367 17.1443 29.076 17.115 28.5154 17.0856C27.9401 17.0416 27.3647 16.9976 26.7893 16.9976C26.2287 16.9976 25.6534 16.9976 25.0633 16.9976Z" fill="#3CAB86"/>
<path d="M32.0559 26.9053C29.666 29.0629 27.4531 31.3967 25.4172 33.9066C23.4256 36.4164 21.5668 39.1024 20.0177 41.9206C16.9197 47.5128 14.7067 53.6334 13.6445 59.9742L18.0703 60.7227C19.044 54.9103 21.1242 49.2741 23.9567 44.0782C25.4172 41.4802 27.099 39.0144 28.9135 36.7247C30.7724 34.3909 32.8526 32.2333 35.0655 30.2518L32.0559 26.9053Z" fill="#3CAB86"/>
<g opacity="0.2">
<path d="M12.0957 78.5114L12.14 79.0398L12.2285 79.5682L12.4055 80.581L16.5215 79.8324L16.3445 78.9077L16.256 78.4233L16.2117 77.939L12.0957 78.5114Z" fill="#3CAB86"/>
</g>
<g opacity="0.5">
<path d="M11.6973 74.9005L11.7415 75.9573C11.7857 76.2656 11.83 76.6178 11.8743 76.9701L15.9903 76.4857C15.9903 76.1775 15.9018 75.8693 15.9018 75.517L15.8133 74.5923L11.6973 74.9005Z" fill="#3CAB86"/>
</g>
<g opacity="0.7">
<path d="M11.4766 71.2902L11.5208 72.303C11.5208 72.6552 11.5208 73.0075 11.5651 73.3598L15.7253 73.0956C15.681 72.7874 15.6811 72.4791 15.6811 72.1709L15.6368 71.2021L11.4766 71.2902Z" fill="#3CAB86"/>
</g>
<path d="M11.5208 67.6357L11.4766 69.7053H15.6368L15.6811 67.8119L11.5208 67.6357Z" fill="#3CAB86"/>
<path d="M132.61 69.6608C132.566 68.6481 132.566 67.6353 132.522 66.6226C132.433 65.6098 132.345 64.597 132.256 63.5843C132.256 63.4962 132.212 63.4228 132.124 63.3641C131.179 62.7476 130.25 62.1605 129.335 61.6028L128.672 61.2065L127.963 60.8102C127.491 60.546 127.019 60.2964 126.547 60.0616C125.352 53.3245 122.874 46.8076 119.333 40.9512C115.748 35.0948 111.101 29.8989 105.657 25.7157C105.657 25.2167 105.657 24.703 105.657 24.1746C105.657 23.6902 105.613 23.1618 105.569 22.6775C105.51 21.65 105.436 20.6226 105.347 19.5952C105.347 19.4777 105.303 19.3897 105.215 19.3309C104.02 18.5824 102.825 17.7898 101.586 17.1293L100.656 16.6009C100.509 16.5128 100.361 16.4248 100.214 16.3367L99.7267 16.0725L97.8236 15.1038C97.5138 14.9717 97.204 14.8396 96.8942 14.6634L95.9206 14.2231L94.9468 13.7828C94.6223 13.6654 94.2977 13.5479 93.9732 13.4305C93.3093 13.1663 92.6454 12.9021 91.9816 12.6379L89.9457 11.9774C89.2819 11.7132 88.618 11.5371 87.9098 11.361L86.8919 11.0527L86.4051 10.9206C86.2281 10.8619 86.051 10.8179 85.8739 10.7885L83.7938 10.3041C83.6168 10.2748 83.4398 10.2454 83.2627 10.2161L82.7759 10.128L81.7137 9.90786C80.3417 9.64366 78.9255 9.51154 77.5092 9.33541C76.8011 9.24734 76.0929 9.20333 75.3848 9.15929L74.3227 9.07122C73.9686 9.02719 73.6145 9.07123 73.2604 9.0272C61.9303 8.58687 50.4675 11.405 40.6423 16.9972C40.4652 17.0853 40.421 17.3054 40.5538 17.5256C40.6423 17.7017 40.9079 17.7898 41.0407 17.7017C50.7332 12.1976 61.9746 9.37945 73.1719 9.86381C73.526 9.86381 73.8653 9.86381 74.1899 9.86381L75.252 9.95189C75.9601 9.99592 76.6683 10.04 77.3322 10.128L79.4123 10.3922C79.7664 10.4363 80.1204 10.4362 80.4745 10.5243L81.4924 10.7005C84.2364 11.1408 86.9362 11.8893 89.5917 12.6819L91.5833 13.3865C92.2471 13.6066 92.911 13.8708 93.5306 14.135L94.5042 14.4873L95.478 14.9276C96.0976 15.2359 96.7614 15.5001 97.381 15.8083C98.6202 16.4248 99.8595 17.0412 101.054 17.7458L101.984 18.2742C102.131 18.3622 102.279 18.4503 102.426 18.5384L102.869 18.8025L104.639 19.9474C104.772 20.9602 104.816 22.017 104.861 23.0297C104.89 23.5288 104.92 24.0278 104.949 24.5268C104.949 25.0112 104.949 25.5396 104.949 26.024C104.949 26.1414 104.993 26.2295 105.082 26.2882C110.437 30.4273 115.084 35.5792 118.625 41.3916C122.165 47.2039 124.6 53.6328 125.75 60.3258C125.78 60.4139 125.839 60.4726 125.927 60.5019C126.4 60.7368 126.872 60.9863 127.344 61.2505C127.786 61.5147 128.229 61.7789 128.716 62.0871C129.63 62.6449 130.545 63.2173 131.46 63.8044L131.681 66.7546C131.725 67.7234 131.77 68.6921 131.77 69.6608C131.77 69.837 131.991 70.0131 132.212 70.0131C132.433 70.0131 132.61 69.837 132.61 69.6608Z" fill="#3CAB86"/>
<path d="M90.4777 10.1726C87.1583 9.11578 83.7505 8.32317 80.2983 7.79477L77.6871 7.48656C76.8019 7.3985 75.9168 7.35446 75.0759 7.2664C74.1907 7.17833 73.3056 7.17833 72.4204 7.17833L71.137 7.13428C70.6944 7.13428 70.2518 7.13429 69.8092 7.17833H68.5257L67.8618 7.22235C67.6258 7.22235 67.4045 7.23704 67.1979 7.2664L64.5867 7.44251L61.9755 7.79477C61.7689 7.82413 61.5476 7.85349 61.3116 7.88285L60.692 7.97092L59.4086 8.19108C55.9565 8.85158 52.5485 9.77627 49.2734 10.9652L50.8225 15.1483C53.8763 14.0475 57.0186 13.2109 60.2051 12.5944L61.4002 12.4183L62.0198 12.2862C62.2263 12.2568 62.4181 12.2274 62.5951 12.1981L65.0293 11.8899L67.4635 11.7137C67.6701 11.7137 67.8766 11.6991 68.0831 11.6697H68.7028L69.8977 11.6257C70.296 11.6257 70.6944 11.6257 71.137 11.6257H72.3319C73.1728 11.6697 73.9694 11.6697 74.7661 11.7578C75.5627 11.8018 76.4036 11.8458 77.2003 11.9339L79.6345 12.2421C82.821 12.7265 86.0076 13.4751 89.1056 14.4438L90.4777 10.1726Z" fill="#3CAB86"/>
<path d="M140.134 56.9355C139.161 51.8717 137.656 46.94 135.62 42.2284C133.54 37.4728 130.973 33.0255 127.919 28.8424C127.742 28.5782 127.55 28.3139 127.344 28.0497L126.768 27.3012L125.574 25.8041C125.367 25.5399 125.16 25.2903 124.954 25.0555L124.29 24.3069C123.877 23.8372 123.464 23.3529 123.051 22.8538L121.679 21.4888C121.236 21.0045 120.794 20.5201 120.351 20.0798L118.935 18.7588C118.714 18.5386 118.492 18.3184 118.227 18.0983L117.518 17.4818C113.624 14.0912 109.375 11.097 104.861 8.63113C95.7879 3.65539 85.5642 0.749205 75.2521 0.132741C70.1182 -0.175491 64.94 0.0446805 59.8061 0.88131C54.7164 1.71794 49.7153 3.08295 44.8912 5.02041C44.6256 5.51945 44.3601 6.01851 44.0945 6.51755C43.8585 7.04595 43.6224 7.55967 43.3863 8.05871C43.1503 8.58711 42.929 9.10083 42.7225 9.59987C42.4569 10.1283 42.2799 10.6126 42.0586 11.141C51.4855 6.56158 62.0633 4.22781 72.5524 4.49201C73.2015 4.52136 73.8506 4.55072 74.4997 4.58008L76.4472 4.71217C77.7749 4.80024 79.0583 4.97637 80.3861 5.1525C81.0499 5.19654 81.6695 5.32864 82.3334 5.46074L84.2808 5.813L86.1839 6.25333C86.8035 6.38543 87.4673 6.51753 88.0869 6.69366C89.3704 7.08996 90.6096 7.39821 91.8489 7.83854C92.4685 8.04403 93.0882 8.2642 93.7078 8.49904L95.5666 9.20356L96.4959 9.55582C96.7615 9.68792 97.0713 9.82003 97.3811 9.95213L99.1514 10.7447C99.3285 10.8328 99.4908 10.9062 99.6383 10.9649L100.037 11.1851L100.922 11.6254L101.807 12.0657C102.117 12.2418 102.382 12.374 102.692 12.5501C107.251 15.06 111.588 18.1423 115.438 21.6209C119.289 25.1876 122.741 29.1506 125.706 33.4658C128.627 37.8251 131.017 42.4926 132.876 47.4243C134.646 52.312 135.841 57.4198 136.461 62.6158C137.11 61.7351 137.744 60.8104 138.364 59.8417C138.984 58.917 139.559 57.9483 140.134 56.9355Z" fill="#3CAB86"/>
<path d="M128.008 57.9479L127.477 55.6141C127.256 54.8655 127.035 54.0729 126.813 53.3244L126.636 52.7519L126.459 52.1795L126.061 51.0346C125.928 50.6383 125.84 50.2421 125.663 49.8898L125.22 48.7449C124.025 45.7947 122.653 42.8885 120.971 40.1585C119.29 37.3844 117.386 34.7864 115.306 32.3646C113.182 29.8988 110.925 27.609 108.446 25.5835L105.525 29.0181C107.827 30.9115 109.951 33.0251 111.898 35.2708C113.802 37.5165 115.572 39.9383 117.121 42.4482C118.67 45.0021 119.953 47.6441 121.06 50.4182L121.458 51.431C121.591 51.7832 121.68 52.1355 121.812 52.4877L122.166 53.5445L122.343 54.0729L122.52 54.6013C122.697 55.3059 122.919 56.0104 123.14 56.7149L123.627 58.8725L128.008 57.9479Z" fill="#3CAB86"/>
<g opacity="0.2">
<path d="M93.042 14.9722L92.1125 14.5759C91.7585 14.4878 91.4487 14.3557 91.1389 14.2236L89.7227 18.1426C90.0325 18.2306 90.3423 18.3627 90.6078 18.4508L91.5372 18.8031L93.042 14.9722Z" fill="#3CAB86"/>
</g>
<g opacity="0.5">
<path d="M96.4059 16.425L94.5471 15.5884L92.8652 19.3752L94.6356 20.1678L96.4059 16.425Z" fill="#3CAB86"/>
</g>
<g opacity="0.7">
<path d="M99.6826 18.0541C99.3728 17.878 99.0629 17.7459 98.7531 17.5697L97.8237 17.1294L95.9648 20.7841L96.8058 21.2245C97.1156 21.4006 97.3812 21.5327 97.691 21.7089L99.6826 18.0541Z" fill="#3CAB86"/>
</g>
<path d="M102.824 19.9475L101.939 19.3751C101.644 19.199 101.349 19.0228 101.054 18.8467L98.9297 22.4134C99.2247 22.5895 99.5051 22.751 99.7707 22.8977L100.612 23.4261L102.824 19.9475Z" fill="#3CAB86"/>
</g>
<g clip-path="url(#clip0_298_16602)">
<path d="M72.825 76.177C73.707 75.9334 74.5509 75.5454 75.3343 75.0172C77.2075 73.7566 78.4851 71.8508 78.9279 69.6487C79.847 65.1096 76.8793 60.7264 72.3175 59.867C67.7578 59.0188 63.3053 62.0126 62.3927 66.5562C61.4802 71.0998 64.4413 75.4785 68.9964 76.3334C70.2813 76.5733 71.5822 76.5184 72.8184 76.1724L72.825 76.177ZM68.4432 67.6868C68.5657 67.0966 68.9149 66.577 69.4151 66.2405C69.9153 65.9041 70.5263 65.7778 71.1156 65.8892C72.34 66.1172 73.1379 67.2958 72.8953 68.5205C72.6462 69.7406 71.454 70.5508 70.2229 70.3181C68.9985 70.0901 68.2007 68.9115 68.4432 67.6868ZM52.2282 82.4629L53.0017 80.2212L53.8734 81.0065L54.4128 79.206L55.308 79.9285L55.7635 78.179L56.7443 79.0194L57.7183 78.2273C54.9716 74.7356 53.6845 70.1435 54.5324 65.4372L54.5186 65.4574C49.9531 74.8848 50.6202 81.1234 50.6202 81.1234L51.6799 83.0339L52.2236 82.4696L52.2282 82.4629ZM67.7477 82.6095C69.9759 83.0304 72.2742 82.9326 74.4659 82.3237C79.7688 80.8601 84.0885 76.5321 85.2379 70.8291C86.8475 62.8273 81.6267 55.1035 73.5975 53.6023C65.5683 52.1012 57.7235 57.3855 56.1072 65.3828C54.4977 73.3846 59.7185 81.1084 67.7477 82.6095ZM61.3921 66.3731C62.1212 62.7396 64.8746 59.9813 68.258 59.0462C69.6537 58.6591 71.117 58.5963 72.5362 58.8627C77.6576 59.8199 80.9803 64.7424 79.9531 69.8388C79.4543 72.3083 78.0268 74.4468 75.9198 75.8627C73.8128 77.2786 71.2871 77.8056 68.8136 77.3425C63.6921 76.3853 60.3695 71.4627 61.3967 66.3664L61.3921 66.3731ZM67.442 84.1263C65.4745 83.7537 63.672 83.0404 62.0603 82.0633C66.6429 87.3764 76.6851 90.8401 76.6851 90.8401L78.8479 90.3996L78.4796 89.7229L76.5762 88.3287L77.6098 87.7354L76.0508 86.6958L77.0245 86.0613L75.4932 85.1098L76.6092 84.425L76.198 83.3538C73.3949 84.4 70.3663 84.6654 67.4353 84.1217L67.442 84.1263ZM67.4259 52.1913C60.811 51.2556 52.5052 53.3136 52.5052 53.3136L50.9216 54.8517L51.6116 55.2164L53.9828 55.3431L53.4401 56.3915L55.3258 56.4121L54.8548 57.4702L56.6698 57.4226L56.1026 58.5923L57.0192 59.2407C59.2457 55.8941 62.6225 53.4549 66.4887 52.3871C66.7999 52.3046 67.1219 52.2492 67.4418 52.1825L67.4259 52.1913ZM84.9395 59.9403C83.8158 53.3394 79.0751 46.0435 79.0751 46.0435L77.1061 45.0877L76.9788 45.8587L77.6149 48.1299L76.4454 47.9789L77.0313 49.752L75.8741 49.6687L76.4907 51.3543L75.1905 51.2223L74.8578 52.3358C76.9673 52.858 78.9472 53.8023 80.6791 55.112C82.4109 56.4217 83.859 58.07 84.9369 59.9583L84.9395 59.9403ZM91.9711 68.5509L91.7544 67.396L90.2426 68.5296L89.9691 67.4147L88.5514 68.5536L88.2804 67.2924L87.049 67.3457C87.0938 68.5799 87.01 69.8444 86.7578 71.1118C86.0486 74.6307 84.2406 77.6526 81.7734 79.9363C88.1599 77.0356 94.4094 69.2366 94.4094 69.2366L94.7237 67.0647L93.9558 67.1991L91.9824 68.5487L91.9711 68.5509Z" fill="#3CAB86"/>
</g>
<defs>
<clipPath id="clip0_298_16602">
<rect width="56" height="56" fill="white" transform="translate(42.666 42)"/>
</clipPath>
</defs>
</svg>
