<svg width="140" height="140" viewBox="0 0 140 140" fill="none" xmlns="http://www.w3.org/2000/svg">
<g opacity="0.3">
<g opacity="0.67">
<path d="M97.953 102.378C98.7939 102.554 99.6791 102.73 100.564 102.863C101.42 102.98 102.305 103.083 103.22 103.171C107.513 98.9876 110.965 93.9678 113.355 88.4637C115.745 82.9595 117.028 76.971 117.161 71.0265L112.868 70.9385C112.779 76.1344 111.717 81.3743 109.681 86.1739C109.268 86.3207 108.841 86.4528 108.398 86.5702C107.955 86.6877 107.527 86.8051 107.114 86.9225C106.274 87.0986 105.388 87.2748 104.548 87.4509C103.53 89.3443 102.379 91.1937 101.095 92.9551C99.7676 94.6723 98.3071 96.3016 96.7138 97.7987C93.5715 100.749 89.8981 103.215 85.9149 104.976C85.7821 105.416 85.6936 105.857 85.5608 106.253C85.4428 106.693 85.3247 107.134 85.2067 107.574C85.0592 107.985 84.9116 108.411 84.7641 108.851C84.6313 109.291 84.4544 109.732 84.2773 110.172C89.2785 108.455 93.9255 105.769 97.953 102.378Z" fill="white"/>
<path d="M83.6574 102.642C86.844 101.365 89.8535 99.6038 92.509 97.4462C95.1645 95.3326 97.5545 92.7786 99.5018 89.9605C99.7674 89.6523 99.9887 89.256 100.21 88.9037L100.564 88.3753C100.653 88.1992 100.785 88.0231 100.874 87.8029C101.08 87.4506 101.302 87.0837 101.538 86.7021L102.113 85.5572L102.246 85.293L102.379 84.9848L102.644 84.4123L102.91 83.8399C102.998 83.6197 103.087 83.4436 103.131 83.2235C103.308 82.8418 103.47 82.4455 103.618 82.0346L104.016 80.8457C104.193 80.4494 104.282 80.009 104.414 79.6127C104.503 79.2164 104.636 78.7761 104.724 78.3798L105.034 77.1469L105.255 75.8699C105.521 74.1967 105.698 72.4793 105.742 70.7621C105.742 70.674 105.831 70.5859 106.008 70.5859C106.14 70.5859 106.273 70.674 106.273 70.7621C106.185 74.2407 105.609 77.6753 104.547 80.9777L104.105 82.2107C103.972 82.607 103.795 83.0033 103.662 83.3996C103.574 83.6051 103.485 83.8106 103.397 84.016L103.131 84.5885L102.865 85.2049L102.733 85.4691L102.6 85.7774L101.98 86.9222C101.803 87.3185 101.582 87.6708 101.361 88.0671C101.243 88.2432 101.125 88.4193 101.007 88.5955L100.653 89.1679L100.343 89.6963L100.166 89.9605L99.9444 90.2247L99.192 91.2815C98.9265 91.6338 98.6609 91.986 98.3954 92.3383C98.2626 92.4704 98.1299 92.6465 97.9971 92.8227L97.5545 93.307L97.1561 93.7914L96.9348 94.0556L96.7135 94.2758L95.7842 95.2445C95.4891 95.5381 95.1793 95.8316 94.8547 96.1252C94.5449 96.4334 94.2351 96.6976 93.8811 97.0058C93.5713 97.27 93.2615 97.5782 92.9074 97.8424C90.2077 100 87.1539 101.761 83.9673 103.082C83.0379 107.442 81.2676 111.845 78.6564 116.028C78.6268 116.087 78.5678 116.131 78.4793 116.16C73.4338 117.041 68.3 117.085 63.2545 116.336C58.2534 115.544 53.2965 114.003 48.7822 111.669C48.6494 111.581 48.6051 111.449 48.6494 111.317C48.7379 111.184 48.8707 111.14 49.0035 111.185C53.4736 113.518 58.3418 115.015 63.2987 115.808C65.7772 116.16 68.3 116.336 70.7784 116.336L72.6815 116.292C73.3011 116.234 73.9207 116.19 74.5403 116.16C75.16 116.116 75.7795 116.028 76.3992 115.94L77.3286 115.808C77.6532 115.749 77.9629 115.705 78.258 115.676C80.8692 111.493 82.6395 107.089 83.5689 102.774C83.5689 102.715 83.5984 102.671 83.6574 102.642Z" fill="white"/>
<path d="M104.992 70.7617C104.992 70.3654 105.479 70.0132 106.01 70.0132C106.541 70.0132 106.984 70.3654 106.984 70.8058C106.984 71.2461 106.497 71.5543 105.966 71.5543C105.435 71.5103 104.992 71.158 104.992 70.7617Z" fill="white"/>
<path d="M49.3586 110.523C48.8717 110.303 48.2522 110.479 47.9866 110.964C47.7211 111.448 47.9424 112.021 48.4292 112.285C48.9603 112.549 49.5799 112.373 49.8012 111.888C50.0225 111.404 49.8454 110.788 49.3586 110.523Z" fill="white"/>
<path fill-rule="evenodd" clip-rule="evenodd" d="M89.4127 93.5267C93.6172 90.1362 96.9366 85.6007 98.7955 80.5369C98.825 80.5076 98.8692 80.4782 98.9282 80.4489C99.4298 80.3314 99.9166 80.1994 100.389 80.0526L101.141 79.7884C101.407 79.7296 101.657 79.6563 101.894 79.5682C102.366 79.3627 102.852 79.1719 103.354 78.9958L104.106 78.6875L104.815 78.3353C104.903 78.2912 105.036 78.2912 105.124 78.3353C105.213 78.4233 105.257 78.5114 105.213 78.5995C104.151 83.0028 102.159 87.1859 99.5035 90.8847C96.8038 94.5835 93.4402 97.7539 89.5898 100.22C89.5013 100.264 89.4127 100.22 89.3242 100.176C89.2357 100.088 89.1914 99.9996 89.1914 99.9115C89.2504 99.3538 89.3095 98.8254 89.3685 98.3263C89.4128 97.7979 89.4127 97.2695 89.4127 96.7411C89.457 96.2127 89.457 95.7284 89.4127 95.2C89.4127 94.6716 89.398 94.1578 89.3685 93.6588C89.3685 93.6001 89.3832 93.5561 89.4127 93.5267ZM101.938 80.0085C101.495 80.1553 101.053 80.2874 100.61 80.4048C100.167 80.5369 99.7248 80.669 99.2823 80.8011C97.3792 85.865 94.0599 90.4444 89.8111 93.879C89.8996 95.6843 89.8996 97.5778 89.7226 99.4712C93.3517 97.1374 96.5383 94.0991 99.061 90.5765C101.628 87.0979 103.487 83.1349 104.593 78.9517C103.708 79.348 102.823 79.7003 101.938 80.0085Z" fill="white"/>
<g opacity="0.2">
<path d="M78.835 104.007C79.071 103.948 79.3071 103.874 79.5432 103.786L80.2512 103.61C80.4725 103.522 80.6938 103.478 80.9151 103.39L81.6233 103.17C80.7381 106.957 79.2334 110.744 77.109 114.354L75.2501 114.619C74.9845 114.663 74.6747 114.663 74.3649 114.663L73.4355 114.751C75.8255 111.316 77.64 107.661 78.835 104.007Z" fill="white"/>
</g>
<g opacity="0.4">
<path d="M74.1438 104.799L75.5602 104.623C76.047 104.579 76.5338 104.491 76.9764 104.403C76.7994 104.843 76.6223 105.283 76.4453 105.724C76.224 106.208 76.0469 106.649 75.8256 107.089C75.3831 107.97 74.9258 108.85 74.4537 109.731C73.9521 110.611 73.4062 111.477 72.8161 112.329C72.5505 112.769 72.2407 113.165 71.9309 113.606C71.6359 114.017 71.3261 114.428 71.0016 114.839C70.3819 114.883 69.7624 114.839 69.1427 114.839L68.2133 114.795C67.9477 114.795 67.6379 114.795 67.3281 114.751C70.1606 111.668 72.462 108.278 74.1438 104.799Z" fill="white"/>
</g>
<g opacity="0.6">
<path d="M69.3623 104.975C70.2917 105.063 71.2654 104.975 72.2391 104.975C70.336 108.366 67.9017 111.58 64.8922 114.53L63.9627 114.398L63.5201 114.354L63.0334 114.266L61.2188 113.958C64.4938 111.272 67.1936 108.234 69.3623 104.975Z" fill="white"/>
</g>
<g opacity="0.8">
<path d="M64.584 104.536L64.9381 104.624C65.0561 104.624 65.174 104.638 65.292 104.668L66.0002 104.756L66.7084 104.844L67.4607 104.888C65.1151 108.014 62.2382 110.876 58.8746 113.386L57.0601 112.902C56.4848 112.726 55.9093 112.506 55.334 112.33C56.2191 111.757 57.1044 111.185 57.9453 110.568C58.7714 109.952 59.568 109.321 60.3352 108.675C61.1023 108.029 61.8399 107.368 62.5481 106.693C63.2562 105.989 63.9644 105.284 64.584 104.536Z" fill="white"/>
</g>
<path d="M59.9365 103.479L61.3085 103.875C61.5298 103.919 61.7953 103.963 62.0166 104.007L62.7248 104.183C59.9808 106.957 56.7499 109.423 53.0322 111.449C51.9258 110.964 50.7751 110.48 49.7129 109.907C53.5633 108.19 57.0155 105.988 59.9365 103.479Z" fill="white"/>
<path d="M78.8795 101.893C76.7994 102.422 74.675 102.774 72.5063 102.906C70.3377 103.038 68.1248 102.994 66.0004 102.686C61.7074 102.157 57.5471 100.748 53.7852 98.5908L55.0244 96.3892C58.5208 98.4147 62.3712 99.6917 66.3102 100.22C68.3018 100.484 70.3377 100.528 72.3293 100.396C74.3209 100.308 76.3125 99.9558 78.2599 99.4715L78.8795 101.893Z" fill="white"/>
<path fill-rule="evenodd" clip-rule="evenodd" d="M96.2719 104.843C96.8915 104.374 97.5112 103.889 98.1308 103.39C98.2194 103.302 98.3963 103.346 98.4848 103.434L100.078 105.372C100.211 105.46 100.167 105.636 100.078 105.724C99.3995 106.252 98.7357 106.766 98.0865 107.265C97.9538 107.353 97.7768 107.353 97.6883 107.221L96.2277 105.196C96.1392 105.108 96.1392 104.931 96.2719 104.843ZM98.2635 103.963L96.7588 105.152L97.9538 106.693L99.5028 105.504L98.2635 103.963Z" fill="white"/>
<path fill-rule="evenodd" clip-rule="evenodd" d="M92.6443 107.266C92.9541 107.09 93.3082 106.869 93.618 106.649L94.6359 105.989C94.7687 105.945 94.9015 105.945 94.99 106.077L96.4062 108.146C96.4948 108.278 96.4505 108.411 96.3178 108.499L95.2556 109.203C94.9015 109.423 94.5474 109.644 94.1933 109.864C94.0606 109.952 93.8836 109.908 93.7951 109.776L92.5558 107.618C92.4673 107.486 92.5115 107.354 92.6443 107.266ZM94.7244 106.561C94.1933 106.913 93.6623 107.251 93.1312 107.574L94.1492 109.291C94.7098 108.939 95.2703 108.587 95.8309 108.234L94.7244 106.561Z" fill="white"/>
<path fill-rule="evenodd" clip-rule="evenodd" d="M88.7482 109.291C88.9547 109.203 89.1466 109.129 89.3236 109.07L89.8547 108.762L90.8726 108.234C91.0054 108.19 91.1824 108.234 91.2267 108.366L92.4216 110.568C92.5102 110.656 92.4659 110.832 92.3332 110.92L91.1824 111.492L90.6071 111.756C90.4301 111.845 90.2383 111.933 90.0318 112.021C89.899 112.109 89.7662 112.021 89.6777 111.889L88.6597 109.643C88.5712 109.511 88.6597 109.335 88.7482 109.291ZM90.9169 108.806C90.3416 109.114 89.8104 109.423 89.2351 109.687L90.076 111.448C90.6513 111.184 91.2267 110.876 91.8463 110.568L90.9169 108.806Z" fill="white"/>
<path fill-rule="evenodd" clip-rule="evenodd" d="M84.7212 110.92L85.2965 110.744C85.4736 110.686 85.6506 110.612 85.8276 110.524L86.9341 110.084C87.0668 110.04 87.1996 110.128 87.2881 110.26L88.2618 112.55C88.3061 112.682 88.2175 112.814 88.0847 112.902L86.9341 113.342C86.7275 113.43 86.5209 113.504 86.3144 113.562L85.7391 113.782C85.5621 113.827 85.4293 113.738 85.385 113.606L84.5884 111.273C84.4998 111.14 84.5884 110.964 84.7212 110.92ZM86.8898 110.656L86.0046 111.008C85.7095 111.126 85.4145 111.243 85.1194 111.361L85.7833 113.21C86.1079 113.093 86.4177 112.975 86.7128 112.858L87.6421 112.506L86.8898 110.656Z" fill="white"/>
<path d="M109.284 74.9013C108.709 74.8132 108.266 74.5931 107.912 74.2408C107.602 73.9326 107.425 73.4922 107.47 73.0519C107.47 72.6116 107.735 72.2153 108.133 71.9511C108.488 71.6428 109.019 71.5107 109.55 71.5107C110.081 71.5107 110.612 71.7309 110.966 72.0832C111.276 72.4354 111.497 72.8758 111.453 73.3601C111.409 73.8445 111.143 74.2848 110.745 74.549C110.346 74.8573 109.815 74.9894 109.284 74.9013Z" fill="white"/>
<path d="M108.353 79.6565C107.291 79.3923 106.583 78.4677 106.804 77.631C106.893 77.1907 107.158 76.8384 107.601 76.5742C107.999 76.3541 108.53 76.266 109.061 76.3541C109.593 76.4421 110.079 76.7063 110.389 77.0586C110.655 77.4549 110.832 77.9393 110.699 78.4236C110.478 79.3924 109.46 79.9648 108.353 79.6565Z" fill="white"/>
<path d="M106.849 84.2805C106.363 84.1043 105.964 83.7521 105.743 83.3117C105.625 83.1356 105.551 82.9301 105.522 82.6953C105.463 82.4898 105.477 82.2696 105.566 82.0348C105.699 81.6385 106.053 81.3303 106.495 81.1541C106.894 80.978 107.425 80.934 107.956 81.0661C108.487 81.2422 108.93 81.5504 109.195 81.9907C109.461 82.387 109.505 82.8714 109.372 83.3558C109.284 83.5906 109.151 83.7961 108.974 83.9722C108.797 84.1043 108.62 84.2365 108.354 84.3245C107.912 84.5007 107.381 84.5006 106.849 84.2805Z" fill="white"/>
<path d="M28.3369 77.5868C27.7616 78.2473 27.1863 78.9079 26.6552 79.6124C26.0946 80.2876 25.5487 80.9921 25.0176 81.726C26.5224 87.5383 29.1779 93.0425 32.807 97.8421C36.3919 102.642 40.9062 106.737 46.0401 109.863L48.253 106.208C43.783 103.478 39.7998 99.9557 36.6133 95.8166C36.7903 94.9359 37.0116 94.0552 37.2771 93.2186C37.3952 92.8076 37.5131 92.3967 37.6311 91.9857C37.7786 91.5747 37.9262 91.1637 38.0737 90.7528C36.8787 88.9474 35.8608 87.0099 35.0199 85.0285C34.1348 83.047 33.4709 80.9774 32.984 78.8638C31.9218 74.6366 31.7006 70.2333 32.1432 65.9181C31.494 65.331 30.8597 64.6998 30.24 64.0246C29.6204 63.3641 29.0451 62.6596 28.4255 61.9551C27.4076 67.107 27.4075 72.435 28.3369 77.5868Z" fill="white"/>
<path d="M35.2858 65.1695L35.1087 66.4464L35.0202 67.7234C34.9759 68.1637 34.9759 68.56 34.9759 69.0003V69.6608C34.9464 69.8663 34.9317 70.0718 34.9317 70.2773L34.9759 71.5543C34.9759 71.7891 34.9907 72.0093 35.0202 72.2148L35.0645 72.8312L35.1087 73.4917C35.1529 73.7119 35.1529 73.888 35.1972 74.1082L35.3743 75.3851C35.6398 77.0584 35.9938 78.7317 36.5249 80.3609C37.0117 81.9901 37.6314 83.5753 38.3838 85.1165C41.3049 91.3251 46.129 96.6091 51.971 100.132C52.1038 100.176 52.1037 100.352 52.0152 100.44C51.9709 100.572 51.7939 100.616 51.7054 100.572C45.7748 97.0054 40.9065 91.6334 37.8969 85.4247C37.1888 83.8395 36.5692 82.2103 36.0381 80.5811C35.5365 78.9371 35.1382 77.2492 34.8432 75.5172C34.7842 75.1063 34.7251 74.6806 34.6661 74.2403C34.6366 74.0348 34.6071 73.8293 34.5776 73.6238L34.5333 72.9633C34.5333 72.523 34.4891 72.0827 34.4448 71.6864V70.3654C34.4448 68.6481 34.489 66.8867 34.7546 65.2135C31.4352 62.2192 28.4699 58.5205 26.1243 54.1612C26.0948 54.1025 26.0801 54.0291 26.0801 53.941C29.6207 44.3858 36.2594 36.0635 44.8454 30.6034C44.9782 30.5154 45.1553 30.5594 45.2438 30.6915C45.3323 30.8236 45.288 30.9557 45.1552 31.0438C36.7019 36.4158 30.1076 44.606 26.6555 54.029C28.9569 58.3443 31.9221 62.0431 35.1972 64.9933C35.2562 65.052 35.2858 65.1107 35.2858 65.1695Z" fill="white"/>
<path d="M52.3677 99.5151C52.7217 99.6912 52.8103 100.264 52.5005 100.748C52.2349 101.188 51.7038 101.409 51.3497 101.188C50.9514 100.968 50.9072 100.396 51.217 99.9554C51.4826 99.4711 52.0136 99.2949 52.3677 99.5151Z" fill="white"/>
<path d="M45.5524 31.6608C45.995 31.3526 46.1277 30.7362 45.8622 30.2958C45.5966 29.8115 44.9327 29.6794 44.4901 29.9876C44.0033 30.2958 43.8705 30.9123 44.1803 31.3967C44.4459 31.837 45.1098 31.9691 45.5524 31.6608Z" fill="white"/>
<path fill-rule="evenodd" clip-rule="evenodd" d="M40.3297 74.6807C41.1706 80.0087 43.472 85.0725 46.9241 89.2557C46.9536 89.285 46.9684 89.3291 46.9684 89.3878C46.8209 89.8868 46.6881 90.3859 46.5701 90.8849L46.4373 91.6335L46.3045 92.382C46.1865 92.9104 46.0979 93.4388 46.0389 93.9672C45.9504 94.4956 45.9062 95.024 45.8619 95.5524C45.8619 95.6405 45.8177 95.7286 45.685 95.7726C45.5964 95.8166 45.5079 95.8166 45.4637 95.7726C42.1443 92.6022 39.4446 88.8153 37.5857 84.6762C35.6826 80.5371 34.6204 76.0457 34.4434 71.4663C34.4434 71.3782 34.5319 71.3342 34.6205 71.2901C34.709 71.2461 34.8417 71.2461 34.8859 71.3342L35.5498 71.7745L36.2137 72.2589C36.6563 72.5524 37.0988 72.8313 37.5414 73.0955C37.984 73.3597 38.4266 73.6239 38.8692 73.8881C39.3412 74.123 39.7986 74.3578 40.2412 74.5926C40.3002 74.622 40.3297 74.6513 40.3297 74.6807ZM45.8619 92.2499C46.039 91.3106 46.2455 90.4152 46.4815 89.5639C42.9851 85.3367 40.6837 80.2289 39.8428 74.8568C39.0019 74.4606 38.2053 74.0202 37.3644 73.5359C36.5678 73.0515 35.8154 72.5231 35.0187 71.9506C35.24 76.2659 36.3022 80.5371 38.0725 84.4561C39.8428 88.4191 42.3656 91.9857 45.4637 95.024C45.5522 94.0993 45.6849 93.1306 45.8619 92.2499Z" fill="white"/>
<g opacity="0.2">
<path d="M36.5243 60.3257C36.2587 61.2504 36.0375 62.1751 35.8162 63.0998C33.028 60.4578 30.461 57.2874 28.3809 53.6327C28.6021 53.1043 28.8234 52.4878 29.0447 51.9594C29.3103 51.387 29.5758 50.8145 29.8414 50.2861C31.656 54.073 33.9131 57.4636 36.5243 60.3257Z" fill="white"/>
</g>
<g opacity="0.4">
<path d="M38.1621 55.8781C38.0736 56.0983 37.9407 56.3185 37.8522 56.5386L37.5867 57.1991L37.3211 57.8596C37.2326 58.0798 37.1883 58.3 37.0998 58.5201C34.6656 55.5259 32.5855 52.0473 30.9922 48.1283C31.302 47.5999 31.5676 47.0715 31.9216 46.5431L32.8953 45.002C34.1788 49.009 35.9492 52.6637 38.1621 55.8781Z" fill="white"/>
</g>
<g opacity="0.6">
<path d="M40.374 51.6517C40.1084 52.048 39.8871 52.4884 39.6215 52.8847C39.4002 53.281 39.1789 53.7213 38.9576 54.1616C36.966 50.8592 35.3727 47.1163 34.3105 43.0212L35.4613 41.5681C35.8596 41.1278 36.2579 40.6435 36.6562 40.2031C37.3644 44.3422 38.6479 48.1731 40.374 51.6517Z" fill="white"/>
</g>
<g opacity="0.8">
<path d="M43.1639 47.7766L42.2788 48.9214C41.969 49.2737 41.7035 49.67 41.4379 50.0663C39.8889 46.4996 38.8267 42.5806 38.3398 38.3975C39.225 37.5609 40.1102 36.7242 41.0396 35.9316C41.1724 40.1148 41.9247 44.1218 43.1639 47.7766Z" fill="white"/>
</g>
<path d="M46.4363 44.2974C46.0823 44.6497 45.743 44.9873 45.4184 45.3102L44.4004 46.367C43.3382 42.6242 42.8514 38.5731 42.9399 34.39C43.4267 33.9937 43.9136 33.6854 44.4004 33.2891L45.1528 32.7607L45.9495 32.2764C45.5069 36.4595 45.7282 40.5106 46.4363 44.2974Z" fill="white"/>
<path d="M38.3398 61.4266C39.4463 57.2875 41.3936 53.3245 44.0491 49.9339C46.7046 46.4994 50.0239 43.5932 53.7858 41.4355L55.0251 43.5932C51.573 45.6187 48.5191 48.3047 46.0407 51.4311C43.6065 54.6015 41.792 58.2562 40.774 62.0871L38.3398 61.4266Z" fill="white"/>
<path fill-rule="evenodd" clip-rule="evenodd" d="M27.0525 74.9003L27.1853 76.0892C27.2148 76.2654 27.2443 76.4562 27.2738 76.6617L27.4066 77.2341C27.4066 77.3662 27.3181 77.4983 27.1853 77.5423L24.7068 77.9386C24.5741 77.9827 24.4413 77.8946 24.3971 77.7625L24.2643 77.102C24.2348 76.8965 24.2201 76.691 24.2201 76.4855L24.043 75.2526C24.043 75.0765 24.1315 74.9444 24.2643 74.9444L26.7428 74.6802C26.9198 74.6802 27.0525 74.7682 27.0525 74.9003ZM26.8312 77.102C26.7722 76.7791 26.728 76.4562 26.6984 76.1333L26.5657 75.2086L24.6183 75.4287L24.7068 76.4415C24.7658 76.7644 24.8249 77.0873 24.8839 77.4102L26.8312 77.102Z" fill="white"/>
<path fill-rule="evenodd" clip-rule="evenodd" d="M26.7862 70.585C26.8304 71.3776 26.7863 72.1262 26.8748 72.9188C26.8748 73.0509 26.7863 73.183 26.6535 73.183L24.1307 73.3591C23.9979 73.4031 23.8652 73.271 23.8652 73.1389C23.7767 72.3023 23.7767 71.4657 23.7324 70.629C23.7324 70.4529 23.8652 70.3649 23.998 70.3649L26.5207 70.3208C26.6535 70.3208 26.7862 70.4529 26.7862 70.585ZM26.3436 72.6986L26.2994 72.2583V71.7739L26.2551 70.8492H24.2635L24.3078 71.862V72.3463L24.352 72.8307L26.3436 72.6986Z" fill="white"/>
<path fill-rule="evenodd" clip-rule="evenodd" d="M26.9639 66.2261C26.8754 67.0186 26.8311 67.8113 26.7868 68.6039C26.7868 68.736 26.6984 68.824 26.5213 68.824L24.0428 68.78C23.8658 68.78 23.7773 68.6479 23.7773 68.5158C23.7773 67.6351 23.8658 66.7985 23.91 65.9619C23.9543 65.8298 24.0429 65.7417 24.2199 65.7417L26.6983 65.9619C26.8311 65.9619 26.9639 66.094 26.9639 66.2261ZM26.3 68.3396C26.3 67.6791 26.3443 67.0627 26.3885 66.4462L24.4412 66.2701C24.397 66.9306 24.3084 67.5911 24.3084 68.2516L26.3 68.3396Z" fill="white"/>
<path fill-rule="evenodd" clip-rule="evenodd" d="M27.539 61.9555C27.4062 62.7041 27.2291 63.4967 27.1406 64.2453C27.1406 64.4214 27.0079 64.5095 26.8751 64.4654L24.3966 64.1572C24.2196 64.1572 24.1311 64.0251 24.1753 63.849C24.2639 63.0123 24.3966 62.2197 24.5736 61.3831C24.5736 61.251 24.7065 61.1189 24.8835 61.1629L27.3177 61.6473C27.4505 61.6473 27.539 61.7794 27.539 61.9555ZM26.6538 63.937C26.7423 63.3206 26.8751 62.7041 26.9636 62.0876L25.0162 61.7354C24.9277 62.3959 24.7949 63.0123 24.7064 63.6728L26.6538 63.937Z" fill="white"/>
<path d="M46.6153 101.101C46.9694 100.661 47.412 100.396 47.8546 100.264C48.3414 100.176 48.7839 100.22 49.138 100.485C49.4921 100.749 49.7134 101.145 49.8019 101.585C49.8461 102.07 49.7135 102.554 49.4479 103.038C49.1381 103.523 48.6954 103.831 48.2529 103.963C47.766 104.095 47.2792 104.051 46.8809 103.743C46.4826 103.435 46.217 102.994 46.1727 102.554C46.1285 102.07 46.3055 101.541 46.6153 101.101Z" fill="white"/>
<path d="M42.9412 97.9301C43.2952 97.5338 43.7821 97.3136 44.2689 97.2696C44.505 97.2402 44.7263 97.2549 44.9328 97.3136C45.1393 97.3723 45.3311 97.475 45.5082 97.6218C46.172 98.1942 46.1721 99.3391 45.464 100.22C44.7558 101.056 43.6051 101.233 42.8527 100.572C42.6314 100.44 42.4986 100.22 42.4101 99.9996C42.3216 99.7648 42.2921 99.5299 42.3216 99.2951C42.3216 98.8107 42.5429 98.3264 42.9412 97.9301Z" fill="white"/>
<path d="M39.6654 94.3193C40.108 93.967 40.5948 93.835 41.0816 93.835C41.5242 93.835 41.9668 93.967 42.2766 94.3193C42.5421 94.6716 42.6307 95.1119 42.5865 95.5523C42.5422 96.0366 42.3209 96.521 41.8783 96.8733C41.48 97.2696 40.9931 97.4897 40.5062 97.4897C40.0194 97.4897 39.5769 97.3136 39.2228 96.9613C38.913 96.565 38.7802 96.0807 38.8687 95.5963C38.9572 95.1119 39.2228 94.6716 39.6654 94.3193Z" fill="white"/>
<path d="M84.7198 30.0313C84.4543 29.2093 84.1592 28.3727 83.8347 27.5214C83.5249 26.7288 83.1707 25.9362 82.7724 25.0996C79.8956 24.307 76.8861 23.7786 73.9208 23.5584C70.9113 23.3382 67.9018 23.3823 64.8922 23.7345C58.9174 24.4391 53.0753 26.2884 47.8086 29.1506L49.8445 32.8934C54.4473 30.3835 59.537 28.7103 64.7594 28.0498C66.0872 29.2387 67.3264 30.5156 68.3886 31.8366C70.6015 31.7486 72.7701 31.7926 74.9388 32.0568L75.7354 32.1449L76.1337 32.2329C76.2812 32.2329 76.4288 32.2476 76.5763 32.277C77.1074 32.365 77.6385 32.4678 78.1696 32.5852L79.763 32.9375C80.2941 33.0696 80.8251 33.2457 81.3562 33.3778C83.4363 33.9943 85.4722 34.7868 87.4195 35.7556C87.9063 36.0198 88.3932 36.2399 88.88 36.5041L90.2963 37.3408L91.6683 38.1774C92.1109 38.4856 92.5535 38.8379 92.9961 39.1461L93.6599 38.926L94.2795 38.7498C94.7221 38.6618 95.1647 38.559 95.6072 38.4416C96.0498 38.3535 96.4924 38.2214 96.935 38.1774C97.3776 38.0893 97.8349 38.0013 98.307 37.9132C94.3238 34.4786 89.721 31.7926 84.7198 30.0313Z" fill="white"/>
<path d="M92.0671 42.2283L91.5804 41.832C91.4033 41.6852 91.2263 41.5531 91.0493 41.4357C90.6952 41.2155 90.3411 40.9513 89.987 40.6871L88.9249 40.0266C88.7184 39.9092 88.5265 39.7918 88.3495 39.6744L87.8184 39.3661L87.2431 39.0579L86.6677 38.7497C86.2694 38.5736 85.9154 38.3534 85.517 38.1772L84.3663 37.6489C84.1598 37.5608 83.9533 37.4874 83.7467 37.4287L83.1714 37.1645L82.5517 36.9443C82.3451 36.8856 82.1386 36.8122 81.9321 36.7241C81.5338 36.592 81.1355 36.46 80.7372 36.3279L79.4979 35.9756L79.1881 35.8875L78.8783 35.8435L78.2587 35.6674C77.8161 35.5793 77.4178 35.4912 76.9752 35.4032L75.736 35.183C74.8508 35.0949 74.0099 34.9628 73.169 34.9188L72.5051 34.8747C72.2986 34.8454 72.0921 34.8307 71.8856 34.8307L70.602 34.7867C70.366 34.7867 70.1447 34.7867 69.9381 34.7867L69.3186 34.8307H68.6547C68.4334 34.8307 68.2121 34.8747 67.9908 34.8747L66.7074 34.9628L65.4681 35.139C65.0256 35.183 64.5829 35.271 64.1846 35.3151L63.565 35.4472L63.2109 35.4912L62.9012 35.5793L61.6619 35.8435C61.2636 35.9756 60.821 36.1077 60.4227 36.1957L59.8031 36.3719L59.1835 36.5921C58.7852 36.7242 58.3868 36.8563 57.9885 36.9884C56.3952 37.6048 54.802 38.3093 53.2972 39.146C53.2087 39.19 53.0759 39.146 52.9874 39.0139C52.9432 38.8818 52.9431 38.7056 53.0759 38.6616C54.5807 37.869 56.1739 37.1204 57.7672 36.504C58.2098 36.3719 58.6081 36.2398 59.0064 36.0636L59.6261 35.8875L60.2457 35.7114C60.6883 35.5793 61.0865 35.4472 61.5291 35.3591L62.7684 35.0509L63.1225 35.0069L63.4322 34.9188L64.0519 34.8307C64.4945 34.7427 64.937 34.6546 65.3354 34.6106L66.6631 34.4344L67.9465 34.3464C68.1678 34.3464 68.3891 34.3023 68.6104 34.3023H69.2301C69.6727 34.3023 70.1152 34.2583 70.5578 34.2583L71.8413 34.3023H72.1953L72.5051 34.3464L73.169 34.3904C74.0099 34.4344 74.8951 34.5665 75.736 34.6546C76.1786 34.7426 76.6063 34.816 77.0194 34.8747C77.226 34.9335 77.4473 34.9775 77.6833 35.0069L78.303 35.139L78.9225 35.3151C79.1586 35.3444 79.3799 35.3885 79.5864 35.4472L80.8257 35.7995C81.224 35.9316 81.6666 36.0636 82.0649 36.1957L82.6845 36.4159L83.2598 36.6801C84.8974 37.2526 86.4907 38.0452 87.9954 38.8818C89.5002 39.7184 90.9607 40.6871 92.3327 41.7439C96.5815 40.3789 101.273 39.6744 106.23 39.8065C106.318 39.8065 106.392 39.8505 106.451 39.9386C109.682 43.8135 112.382 48.2168 114.196 52.9283L114.55 53.8531C114.668 54.1466 114.772 54.4402 114.86 54.7337L115.17 55.6144L115.303 56.0987L115.435 56.5391C115.612 57.1555 115.789 57.772 115.966 58.3885L116.409 60.2379C116.94 62.7037 117.25 65.2576 117.383 67.7675C117.383 67.8996 117.25 68.0317 117.117 68.0317C116.984 68.0317 116.852 67.9437 116.852 67.8116C116.719 65.3017 116.409 62.8358 115.878 60.37L115.48 58.5646C115.303 57.9481 115.126 57.3463 114.949 56.7592C114.816 56.1428 114.595 55.5263 114.373 54.9539L114.063 54.0732L113.754 53.1926C111.939 48.525 109.284 44.2098 106.097 40.3349C101.184 40.2028 96.493 40.8633 92.2442 42.2283C92.1852 42.2576 92.1262 42.2576 92.0671 42.2283Z" fill="white"/>
<path d="M53.6522 39.7623C53.2981 39.9825 52.8112 39.7623 52.5014 39.2779C52.2359 38.7936 52.3244 38.2652 52.7227 38.045C53.0768 37.8248 53.6079 38.045 53.8734 38.5294C54.139 39.0138 54.0062 39.5422 53.6522 39.7623Z" fill="white"/>
<path d="M116.144 67.8117C116.144 68.3841 116.587 68.7804 117.162 68.7804C117.693 68.7804 118.136 68.296 118.091 67.7236C118.091 67.1512 117.604 66.7549 117.029 66.7549C116.498 66.7989 116.1 67.2833 116.144 67.8117Z" fill="white"/>
<path fill-rule="evenodd" clip-rule="evenodd" d="M81.268 41.8318L80.8254 41.6117L80.3386 41.4796L79.3649 41.1273L78.3913 40.8631C78.2142 40.8337 78.0519 40.7897 77.9044 40.731L77.4176 40.6429L76.3996 40.3787L75.426 40.2026C75.249 40.1733 75.0719 40.1439 74.8949 40.1145L74.408 40.0705C74.0835 40.0412 73.7441 39.9971 73.3901 39.9384L72.3721 39.8503C72.1951 39.8503 72.0329 39.8503 71.8853 39.8503L71.3543 39.8063H70.3363H69.3184L68.8315 39.8503C68.6545 39.8503 68.4774 39.8503 68.3004 39.8503L67.2825 39.9384L66.2646 40.0705L65.7777 40.1145C65.6007 40.1439 65.4384 40.1733 65.2908 40.2026C65.2318 40.232 65.1877 40.2173 65.1582 40.1586C64.8041 39.8063 64.4353 39.454 64.0517 39.1018C63.6534 38.7495 63.255 38.3973 62.8567 38.089C62.4583 37.7368 62.06 37.3845 61.6617 37.0762C61.2191 36.7533 60.7765 36.4451 60.334 36.1516C60.2897 36.1075 60.2012 35.9754 60.2012 35.8874C60.2454 35.7553 60.2898 35.7112 60.3783 35.6672C64.7598 34.3902 69.4069 33.9939 73.9655 34.4342C78.524 34.8746 82.9498 36.2396 87.0216 38.3532C87.0658 38.3972 87.1101 38.4853 87.1101 38.5734C87.0658 38.6614 87.0216 38.7495 86.9331 38.7935C85.9151 39.2339 84.9857 39.6742 84.0563 40.2026C83.5842 40.4374 83.1416 40.687 82.7286 40.9512C82.286 41.2154 81.8434 41.4942 81.4008 41.7878C81.3713 41.8171 81.327 41.8318 81.268 41.8318ZM65.2466 39.6742C65.6007 39.6302 65.9105 39.5861 66.2646 39.5421C66.6187 39.4981 66.9284 39.454 67.2825 39.41L68.3004 39.3219C68.4774 39.3219 68.6545 39.3219 68.8315 39.3219L69.3184 39.2779H70.3805H71.3985L71.9295 39.3219L72.4164 39.366L73.4344 39.41C73.7884 39.4687 74.1278 39.5128 74.4523 39.5421L74.9834 39.6302C75.1604 39.6302 75.3227 39.6595 75.4702 39.7182L76.4881 39.8944C76.8422 39.9384 77.152 40.0265 77.5061 40.1145L77.993 40.2026C78.17 40.2613 78.3322 40.3053 78.4797 40.3347L79.4534 40.6429C79.778 40.731 80.1026 40.8338 80.4272 40.9512L80.9139 41.1273C81.091 41.186 81.2533 41.2447 81.4008 41.3034C82.1532 40.8191 82.9499 40.2907 83.7465 39.8503C84.1596 39.6155 84.5874 39.3953 85.03 39.1898C85.4725 38.9697 85.8708 38.7935 86.3134 38.5734C82.4629 36.6359 78.2142 35.403 73.877 34.9627C69.5839 34.5664 65.1581 34.9186 60.9978 36.0195C62.5469 37.1643 63.9632 38.3972 65.2466 39.6742Z" fill="white"/>
<g opacity="0.2">
<path d="M95.6543 45.7071C95.5068 45.531 95.3445 45.3548 95.1674 45.1787L94.6364 44.6943L94.1053 44.21C93.9725 44.0338 93.7513 43.9017 93.5742 43.7256C97.2919 42.6248 101.364 42.0083 105.568 42.0083L106.143 42.7128C106.32 42.977 106.497 43.2265 106.675 43.4614L107.737 44.9585C103.532 44.6063 99.4605 44.9145 95.6543 45.7071Z" fill="white"/>
</g>
<g opacity="0.4">
<path d="M98.7521 49.3614L98.5308 49.0532L98.3095 48.789L97.867 48.2166C97.7342 48.0405 97.6014 47.8203 97.4244 47.6441L96.9375 47.1158C100.788 46.4993 104.86 46.4553 109.064 47.0277L109.994 48.6129L110.835 50.2421C106.719 49.3174 102.647 49.0532 98.7521 49.3614Z" fill="white"/>
</g>
<g opacity="0.6">
<path d="M101.317 53.3684L100.609 52.1354C100.491 51.93 100.358 51.7245 100.211 51.519L99.8125 50.9025C103.707 50.8145 107.779 51.3428 111.851 52.4437C112.087 53.0308 112.308 53.6032 112.515 54.161L112.692 54.6013L112.869 55.0416L113.134 55.8783C109.195 54.4252 105.212 53.5885 101.317 53.3684Z" fill="white"/>
</g>
<g opacity="0.8">
<path d="M103.309 57.6845L102.778 56.3635L102.158 55.0425C106.053 55.4828 109.992 56.5396 113.842 58.2128C114.019 58.8293 114.152 59.4018 114.285 60.0182L114.506 60.8989C114.565 61.1924 114.624 61.5007 114.683 61.8236C110.966 59.8421 107.115 58.433 103.309 57.6845Z" fill="white"/>
</g>
<path d="M104.682 62.2638C104.461 61.2951 104.195 60.4144 103.93 59.4897C107.692 60.4585 111.454 62.0437 115.038 64.2013C115.216 65.4342 115.304 66.6231 115.393 67.856C111.94 65.3902 108.311 63.5408 104.682 62.2638Z" fill="white"/>
<path d="M93.7938 46.7202C96.8918 49.7585 99.326 53.4132 100.964 57.4203C102.645 61.3832 103.486 65.6985 103.486 70.0138H100.964C100.964 66.0067 100.211 62.0438 98.6621 58.345C97.1131 54.6902 94.8559 51.2997 92.0234 48.4815L93.7938 46.7202Z" fill="white"/>
<path fill-rule="evenodd" clip-rule="evenodd" d="M87.7295 30.2513C87.3754 30.0752 86.9771 29.9431 86.623 29.811L85.5166 29.3706C85.3838 29.3266 85.3395 29.1505 85.3838 29.0184L86.2246 26.6846C86.3132 26.5525 86.446 26.4645 86.5787 26.5525L87.7737 26.9929C88.172 27.169 88.5704 27.3011 88.9244 27.4772C89.0572 27.5653 89.1457 27.6974 89.0572 27.8295L88.0393 30.1192C87.995 30.2513 87.8623 30.2953 87.7295 30.2513ZM85.9592 28.9744C86.5345 29.1945 87.1098 29.4147 87.6852 29.6789L88.4818 27.8735C87.8622 27.6093 87.2426 27.3892 86.623 27.125L85.9592 28.9744Z" fill="white"/>
<path fill-rule="evenodd" clip-rule="evenodd" d="M91.626 32.1887L91.1392 31.8805L90.6081 31.6163L89.5459 31.0879C89.4131 31.0438 89.3688 30.8677 89.4131 30.7356L90.5195 28.4899C90.608 28.3578 90.7408 28.3138 90.8736 28.3578L92.0244 28.9302L92.5554 29.2385L93.1308 29.5467C93.2636 29.6348 93.3078 29.8109 93.2193 29.899L91.9801 32.1006C91.9358 32.1887 91.7588 32.2768 91.626 32.1887ZM89.9885 30.7356L90.8294 31.176C91.1245 31.2934 91.4047 31.4402 91.6703 31.6163L92.6439 29.899C92.3489 29.7228 92.0538 29.5614 91.7588 29.4146L90.8736 28.9743L89.9885 30.7356Z" fill="white"/>
<path fill-rule="evenodd" clip-rule="evenodd" d="M95.3429 34.5223C94.679 34.0379 94.0152 33.6416 93.3513 33.2013C93.2185 33.1132 93.2185 32.9811 93.2628 32.849L94.5905 30.7354C94.6791 30.6034 94.856 30.5593 94.9445 30.6474C95.6527 31.0877 96.4051 31.528 97.0689 32.0124C97.2017 32.1005 97.2459 32.2766 97.1574 32.4087L95.697 34.4342C95.6085 34.5663 95.4314 34.5663 95.3429 34.5223ZM93.8381 32.8931L94.6347 33.3774C94.7823 33.4655 94.9151 33.5536 95.0331 33.6416L95.4314 33.9058L96.5379 32.3206L96.1396 32.0124C96.0216 31.9243 95.8887 31.8363 95.7412 31.7482L94.9003 31.2198L93.8381 32.8931Z" fill="white"/>
<path fill-rule="evenodd" clip-rule="evenodd" d="M98.7951 37.1648C98.4853 36.9006 98.1755 36.6364 97.8657 36.4162L96.9362 35.6677C96.8477 35.5796 96.8035 35.4475 96.892 35.3154L98.4411 33.3339C98.5296 33.2018 98.6624 33.2018 98.7951 33.2899L99.7688 34.0825C100.123 34.3467 100.433 34.6109 100.742 34.8751C100.875 34.9631 100.875 35.1393 100.787 35.2714L99.1491 37.1208C99.0606 37.2529 98.8837 37.2529 98.7951 37.1648ZM97.4674 35.4035C97.9542 35.7998 98.441 36.1961 98.9278 36.5924L100.211 35.0952C99.7245 34.6549 99.1934 34.2586 98.6623 33.8623L97.4674 35.4035Z" fill="white"/>
<path d="M55.1114 33.9943C55.554 35.007 55.2442 36.1519 54.4476 36.5042C54.005 36.6803 53.5624 36.6803 53.1198 36.5042C52.7215 36.328 52.3232 35.9758 52.0577 35.4914C51.7921 34.963 51.7036 34.4346 51.8364 33.9943C51.9692 33.5099 52.279 33.1136 52.7216 32.8934C53.6067 32.4971 54.7131 32.9815 55.1114 33.9943Z" fill="white"/>
<path d="M59.7594 32.4092C59.8922 32.9376 59.8479 33.466 59.6709 33.9063C59.5824 34.1118 59.4496 34.2879 59.2726 34.4347C59.1398 34.6108 58.9628 34.7429 58.7415 34.787C58.299 34.9631 57.8563 34.875 57.458 34.6108C57.0597 34.3907 56.7056 33.9944 56.4843 33.466C56.3073 32.9816 56.3073 32.4092 56.4843 31.9688C56.6614 31.5285 57.0155 31.1762 57.5023 31.0001C57.7383 30.9414 57.9743 30.9267 58.2104 30.9561C58.4464 30.9854 58.6677 31.0735 58.8742 31.2203C59.2725 31.4404 59.5824 31.8808 59.7594 32.4092Z" fill="white"/>
<path d="M64.5396 31.3962C64.6723 32.453 64.097 33.5098 63.2118 33.6419C62.7693 33.7299 62.3267 33.5978 61.9726 33.3336C61.5743 33.0254 61.3088 32.5851 61.176 32.0567C61.0433 31.5283 61.0875 30.9999 61.353 30.5596C61.5743 30.1633 61.9726 29.811 62.4595 29.7229C63.4331 29.5468 64.3625 30.2954 64.5396 31.3962Z" fill="white"/>
<path d="M39.8435 123.249C40.2861 123.469 40.7287 123.734 41.1713 123.998L42.5433 124.702L43.2072 125.011C43.4432 125.128 43.6793 125.245 43.9154 125.363L45.2873 125.979C45.3758 126.009 45.4644 126.009 45.5529 125.979C46.084 125.759 46.5266 125.495 47.0134 125.275C47.515 125.011 48.0018 124.746 48.4738 124.482C48.9459 124.218 49.4181 123.954 49.8902 123.69C50.3328 123.425 50.7753 123.161 51.2621 122.853C57.7238 125.187 64.5838 126.243 71.488 126.111C74.9401 126.067 78.348 125.671 81.7117 125.011C85.0753 124.306 88.3946 123.337 91.5812 122.016C92.0238 122.281 92.4664 122.545 92.9089 122.765C93.3515 123 93.8088 123.235 94.2809 123.469C95.166 123.954 96.1397 124.394 97.0692 124.834C97.1577 124.864 97.2462 124.849 97.3347 124.79C107.558 119.859 116.277 111.977 122.296 102.422C122.473 102.157 122.695 101.849 122.872 101.541L123.403 100.616L123.934 99.6915C124.111 99.3833 124.288 99.1191 124.421 98.7668L125.394 96.9174C125.483 96.7413 125.571 96.5798 125.66 96.4331L125.881 95.9487L126.324 94.98C126.943 93.703 127.386 92.382 127.917 91.061C128.153 90.4152 128.389 89.7547 128.625 89.0795C128.743 88.7273 128.846 88.3897 128.935 88.0668L129.245 87.054C130.086 84.368 130.617 81.5499 131.059 78.7758L131.325 76.7062C131.354 76.5301 131.369 76.354 131.369 76.1778L131.413 75.6494L131.502 74.5926C131.635 73.1836 131.635 71.7745 131.679 70.3654C131.679 70.1453 131.502 70.0132 131.281 70.0132C131.059 70.0132 130.882 70.1453 130.882 70.3654C130.838 71.7305 130.838 73.1395 130.705 74.5045L130.617 75.5613C130.587 75.9136 130.543 76.2512 130.484 76.5741L130.218 78.6437C129.82 81.3737 129.289 84.1478 128.492 86.7898L128.183 87.8026C128.094 88.1108 127.961 88.4631 127.873 88.7713L127.165 90.7528L126.412 92.6903C126.279 92.9985 126.191 93.3507 126.014 93.659L125.571 94.5837L125.173 95.5524C125.025 95.8753 124.878 96.1835 124.73 96.4771L123.757 98.3265C123.58 98.6788 123.403 98.9429 123.27 99.2512L122.739 100.176L122.208 101.057C122.031 101.365 121.854 101.673 121.632 101.937L120.526 103.699L119.287 105.416C119.11 105.68 118.888 105.988 118.667 106.252L118.048 107.045L117.384 107.882L117.074 108.278L116.72 108.674L115.348 110.259C115.126 110.524 114.905 110.788 114.64 111.008L113.932 111.757L113.179 112.549C112.943 112.784 112.692 113.019 112.427 113.254C111.94 113.738 111.453 114.222 110.922 114.663C109.86 115.587 108.842 116.512 107.735 117.349C106.629 118.229 105.478 119.022 104.328 119.815C103.752 120.211 103.177 120.563 102.601 120.96L101.716 121.532L100.787 122.06C100.167 122.369 99.5919 122.765 98.9723 123.073L97.1135 123.998C96.184 123.646 95.2103 123.161 94.3252 122.677C93.8531 122.471 93.3957 122.251 92.9531 122.016L92.2893 121.664L91.6254 121.268C91.5369 121.209 91.4631 121.194 91.4041 121.224C88.2175 122.501 84.9425 123.513 81.6232 124.218C78.3038 124.878 74.8959 125.231 71.488 125.319C64.628 125.451 57.8123 124.35 51.3949 122.06C51.3064 122.031 51.2178 122.046 51.1293 122.104C50.2442 122.633 49.3295 123.161 48.3854 123.69C47.9428 123.954 47.456 124.218 46.9691 124.482C46.497 124.717 46.0102 124.952 45.5086 125.187L44.1808 124.57C43.694 124.394 43.2957 124.13 42.8531 123.91L41.5254 123.249C41.0828 123.029 40.6845 122.765 40.2419 122.545C40.1091 122.457 39.8878 122.545 39.755 122.721C39.6665 122.897 39.7108 123.161 39.8435 123.249Z" fill="white"/>
<path d="M112.691 116.688C115.258 114.355 117.648 111.801 119.817 109.071C122.03 106.341 123.977 103.478 125.659 100.396C127.341 97.3578 128.801 94.1874 129.952 90.8849L130.394 89.652L130.571 89.0355C130.66 88.83 130.734 88.6245 130.793 88.419L131.501 85.9091C131.722 85.0725 131.899 84.1919 132.076 83.3552L132.253 82.7387C132.283 82.5039 132.312 82.2837 132.342 82.0782L132.607 80.8013L128.182 80.0527L127.96 81.2416C127.931 81.4471 127.886 81.6379 127.827 81.8141L127.695 82.4305C127.518 83.2231 127.341 84.0157 127.164 84.7643L126.5 87.098C126.441 87.3035 126.367 87.4943 126.278 87.6705L126.101 88.2429L125.703 89.3878C124.641 92.4701 123.313 95.4203 121.72 98.2384C120.171 101.101 118.356 103.743 116.32 106.296C114.284 108.806 112.072 111.184 109.682 113.386L112.691 116.688Z" fill="white"/>
<path d="M47.1469 136.107C52.0595 137.78 57.105 138.969 62.2389 139.541C67.3728 140.114 72.551 140.158 77.7292 139.629C87.9971 138.573 98.0436 135.182 106.895 129.854C111.277 127.168 115.393 123.998 119.11 120.431C122.828 116.864 126.192 112.945 129.024 108.63C131.901 104.315 134.247 99.7354 136.105 94.9358C136.223 94.6129 136.342 94.3047 136.46 94.0111L136.769 93.1304L137.389 91.281L137.566 90.8407L137.699 90.3563L137.964 89.4316L138.495 87.5822C138.643 86.9364 138.791 86.3053 138.938 85.6888L139.115 84.7641C139.204 84.4559 139.292 84.1477 139.336 83.7954L139.69 81.902C139.779 81.2855 139.912 80.625 140 80.0085C139.351 79.0398 138.717 78.1005 138.097 77.1904C137.433 76.2657 136.725 75.341 136.061 74.5044L135.884 76.4419C135.84 77.1024 135.751 77.7629 135.663 78.3793L135.53 79.348C135.486 79.7003 135.442 80.0085 135.397 80.3168L135.043 82.2542L134.866 83.223L134.645 84.1917L134.202 86.0851C134.158 86.3934 134.025 86.7016 133.937 87.0538L133.671 87.9786L133.406 88.9032C133.317 89.2261 133.229 89.5491 133.14 89.872C131.503 94.8477 129.334 99.6033 126.634 104.095C123.846 108.542 120.615 112.681 116.898 116.38C113.18 120.035 109.02 123.293 104.55 126.023C100.035 128.709 95.2554 130.911 90.2542 132.496C89.9444 132.584 89.5904 132.672 89.2806 132.76L88.3511 133.024L87.3775 133.333C87.0677 133.421 86.7578 133.509 86.448 133.553L84.5449 133.993L83.5712 134.213L82.5976 134.389L80.6503 134.742C80.3405 134.786 79.9863 134.83 79.6765 134.874L78.7029 135.006L77.7292 135.138C77.4194 135.182 77.0654 135.226 76.7556 135.226L74.8081 135.358L73.7903 135.446C73.4657 135.476 73.1411 135.49 72.8165 135.49L70.8692 135.534H70.3823H69.8956L68.8776 135.49L66.9303 135.446L64.9829 135.314C64.319 135.27 63.6551 135.226 62.9913 135.138C61.7078 134.962 60.38 134.83 59.0965 134.566L57.1492 134.213C56.5296 134.096 55.8952 133.949 55.2461 133.773C53.9626 133.509 52.7235 133.157 51.44 132.804C50.8204 132.628 50.2007 132.408 49.5811 132.188L47.7223 131.571L45.8634 130.867C45.2438 130.603 44.6242 130.382 44.0488 130.118L44.4029 130.867C44.5209 131.131 44.639 131.381 44.757 131.615C44.993 132.114 45.2438 132.613 45.5094 133.113C45.7749 133.612 46.0405 134.111 46.306 134.61C46.5716 135.138 46.8813 135.622 47.1469 136.107Z" fill="white"/>
<path d="M52.3242 125.142C55.378 126.111 58.5203 126.86 61.7069 127.344C64.8935 127.828 68.1243 128.005 71.3552 127.961L72.5943 127.917C72.9926 127.917 73.391 127.917 73.7894 127.873L76.2235 127.696C77.0202 127.608 77.8168 127.476 78.6134 127.388L79.1888 127.3L79.8084 127.212L81.0033 126.992C84.1456 126.419 87.288 125.583 90.2975 124.482L88.7928 120.299C85.9603 121.312 83.0835 122.06 80.1625 122.589L79.056 122.809L78.5249 122.897L77.9939 122.985L75.7367 123.249L73.5238 123.425C73.1697 123.469 72.7714 123.469 72.4173 123.469H71.3109C68.3013 123.513 65.3361 123.381 62.3708 122.941C59.4497 122.456 56.5287 121.796 53.6962 120.871L52.3242 125.142Z" fill="white"/>
<g opacity="0.2">
<path d="M107.206 116.512L108.047 115.895C108.312 115.675 108.578 115.411 108.843 115.191L106.143 112.064C105.878 112.285 105.657 112.505 105.391 112.681L104.639 113.253L107.206 116.512Z" fill="white"/>
</g>
<g opacity="0.5">
<path d="M104.282 118.67L105.964 117.481L103.486 114.178L101.893 115.279L104.282 118.67Z" fill="white"/>
</g>
<g opacity="0.7">
<path d="M101.229 120.696L102.955 119.551L100.698 116.116L99.0605 117.129L101.229 120.696Z" fill="white"/>
</g>
<path d="M98.043 122.457C98.3528 122.281 98.6626 122.149 98.9282 121.973L99.8576 121.444L97.7775 117.877L96.9366 118.362C96.671 118.538 96.3613 118.67 96.0957 118.802L98.043 122.457Z" fill="white"/>
<path d="M39.2686 17.1289C38.3835 17.6133 37.5425 18.1858 36.6573 18.7142L36.0378 19.1104C35.8165 19.2425 35.5952 19.4187 35.3739 19.5508L34.1347 20.4314C34.0756 20.4901 34.0314 20.5782 34.0019 20.6956L33.9577 21.4882L33.9134 22.3249C33.9134 22.8533 33.8986 23.3963 33.8691 23.9541C33.8691 25.0109 33.8691 26.0677 33.9134 27.1245C28.6467 31.5718 24.2209 36.9439 20.9016 42.9324C17.5822 48.9209 15.4135 55.5258 14.4398 62.2629C13.5842 62.7913 12.7138 63.3344 11.8287 63.8922C10.9878 64.4205 10.1468 65.037 9.30588 65.6535C9.21736 65.7122 9.17319 65.7856 9.17319 65.8736C9.14369 66.2259 9.11409 66.5782 9.08459 66.9304L9.04039 67.9872C9.04039 68.6918 9.0256 69.3963 8.99609 70.1008L9.08459 72.2144C9.08459 72.5667 9.08459 72.9189 9.08459 73.2712L9.17319 74.328C9.21745 75.0325 9.26166 75.7371 9.35018 76.4416L9.61577 78.5552C9.70429 79.2597 9.83697 79.9202 9.96975 80.6247L10.1468 81.6816C10.1911 82.0338 10.2796 82.342 10.3238 82.6943L10.8107 84.7639L10.9435 85.2923L11.0762 85.7766L11.3861 86.7894C11.7402 88.1544 12.2269 89.4754 12.6695 90.8404C12.9351 91.5009 13.2006 92.1614 13.4662 92.8219L13.8203 93.7907L14.2629 94.7594C14.5727 95.3758 14.8382 96.0363 15.148 96.6968L16.1217 98.5462L16.3872 99.0306C16.4757 99.1774 16.5642 99.3242 16.6527 99.4709L17.1838 100.396C17.5379 101.012 17.8478 101.629 18.2461 102.245L19.3967 104.006C19.795 104.579 20.2376 105.151 20.636 105.724C20.8425 106.017 21.049 106.311 21.2555 106.604L21.9194 107.441L22.5833 108.278C22.8046 108.542 22.9816 108.806 23.2471 109.07L24.6192 110.699C24.7372 110.817 24.8553 110.949 24.9733 111.096L25.3274 111.448L26.0797 112.241L26.8321 112.989C27.0534 113.253 27.3189 113.473 27.5845 113.738L29.1335 115.191L30.7268 116.556C30.9924 116.82 31.2579 117.04 31.5235 117.26L32.3643 117.921L33.2052 118.581L33.6036 118.89L34.0462 119.198L35.7722 120.431C36.082 120.651 36.3918 120.827 36.6573 121.003L37.5868 121.576L38.472 122.148C38.767 122.324 39.0768 122.5 39.4013 122.676C39.5341 122.764 39.7554 122.676 39.8882 122.5C39.9767 122.324 39.9767 122.06 39.7997 121.972C39.5047 121.796 39.1948 121.62 38.8702 121.443L37.9851 120.915L37.1442 120.343C36.8344 120.167 36.5246 119.99 36.2591 119.77L34.5329 118.537L34.1347 118.273L33.6921 117.921L32.8954 117.304C31.789 116.468 30.7268 115.499 29.6646 114.618L28.1598 113.165C27.8943 112.945 27.6288 112.681 27.4075 112.461L26.6993 111.712L25.9469 110.92C25.7109 110.685 25.4748 110.435 25.2388 110.171L23.8668 108.586C23.6455 108.322 23.4242 108.057 23.2471 107.793L22.5833 106.957L21.9194 106.164C21.6981 105.856 21.5211 105.592 21.2998 105.283C20.9163 104.726 20.518 104.168 20.1049 103.61L18.9984 101.849C18.6001 101.276 18.2461 100.66 17.892 100.043L17.4051 99.1627L17.1396 98.7224L16.874 98.238L15.9446 96.3886C15.7675 96.0804 15.6348 95.7722 15.502 95.4639L15.0594 94.4952L14.6168 93.5265C14.4841 93.2182 14.3513 92.91 14.2186 92.6018L13.4662 90.6203L12.8023 88.6828C12.6696 88.3305 12.5811 88.0223 12.4925 87.6701L12.1826 86.6573L11.9172 85.6886C11.7844 85.3363 11.6958 85.0281 11.6516 84.6758L11.1648 82.6503C10.5894 79.9202 10.1468 77.1902 10.014 74.372L9.92555 73.3593C9.8813 73.007 9.88125 72.6547 9.88125 72.3025L9.83706 70.2329C9.83706 69.5284 9.837 68.8239 9.88125 68.1634V67.1066C9.88125 66.7543 9.92549 66.4021 9.96975 66.0498C10.8254 65.4627 11.6664 64.8756 12.4925 64.2885C13.3334 63.7601 14.2186 63.2316 15.1037 62.7033C15.1922 62.6739 15.2365 62.6152 15.2365 62.5271C16.1659 55.7901 18.3345 49.2731 21.6096 43.3287C24.8847 37.3842 29.3105 32.0562 34.5329 27.6969C34.5919 27.6382 34.6215 27.5501 34.6215 27.4327C34.6215 26.9043 34.5772 26.3759 34.5772 25.8475C34.5772 25.3191 34.592 24.7907 34.6215 24.2623C34.6215 23.7339 34.6215 23.1908 34.6215 22.6331C34.6658 22.1047 34.71 21.5763 34.7542 21.0039C35.5509 20.4314 36.3475 19.859 37.1884 19.3747C37.9851 18.8463 38.826 18.2738 39.6669 17.8335C39.8439 17.7014 39.8882 17.4812 39.7554 17.3051C39.6669 17.0849 39.4014 17.0409 39.2686 17.1289Z" fill="white"/>
<path d="M8.55273 83.1352L9.12811 85.6891L9.83628 88.199C9.9248 88.4191 9.96901 88.5953 10.0133 88.8154L10.2346 89.4319L10.6771 90.6648L10.8541 91.2813C10.9426 91.4868 11.0164 91.6923 11.0754 91.8977L11.5623 93.1307C12.8458 96.3451 14.3948 99.5155 16.2094 102.466C18.024 105.46 20.1041 108.278 22.3612 110.92C23.5119 112.241 24.7069 113.518 25.9462 114.751L27.8493 116.556L29.8409 118.23L32.7176 114.795L30.8588 113.21L29.0885 111.537C27.9821 110.392 26.8314 109.247 25.7692 108.014C23.689 105.548 21.7416 102.906 20.0598 100.176C18.378 97.4019 16.9618 94.4957 15.7668 91.4574L15.3242 90.3566C15.2357 90.1511 15.162 89.9603 15.1029 89.7842L14.926 89.2117L14.5276 88.0669L14.3063 87.4944C14.262 87.2743 14.2178 87.0981 14.1293 86.922L13.4654 84.5882L12.9343 82.2104L8.55273 83.1352Z" fill="white"/>
<path d="M24.3973 16.9976C20.5026 20.3441 16.9619 24.1309 13.8638 28.27C10.81 32.3651 8.15462 36.8565 6.0745 41.568C4.96805 43.9018 4.08287 46.3236 3.28622 48.7454L3.15343 49.2298L3.02063 49.6702L2.75515 50.5948L2.22396 52.4442L1.78138 54.3377L1.56009 55.2624C1.47158 55.6146 1.38306 55.9228 1.3388 56.2311C0.365129 61.2949 -0.0774515 66.4468 0.0110645 71.5546C0.232355 81.8144 2.71089 92.0741 7.40224 101.277C9.70365 105.9 12.5361 110.216 15.767 114.223C15.9735 114.458 16.18 114.707 16.3865 114.971L17.0504 115.676C17.4635 116.175 17.8766 116.659 18.2896 117.129L19.6617 118.538C20.1043 118.978 20.5468 119.463 20.9894 119.903L22.4057 121.224C22.6417 121.459 22.8778 121.679 23.1138 121.885L23.8219 122.545L25.3267 123.778C25.5628 123.983 25.8135 124.189 26.0791 124.394L26.8315 125.011C29.0886 124.923 31.39 124.659 33.5587 124.394C29.2214 121.444 25.2381 118.01 21.6975 114.179C18.1568 110.304 15.1031 106.033 12.5361 101.453C10.0134 96.8737 8.06606 91.986 6.69407 86.9222C6.51703 86.3057 6.38426 85.6893 6.25149 85.0288C6.10396 84.3829 5.95643 83.7518 5.80891 83.1353L5.45482 81.1979C5.32205 80.5374 5.23355 79.9209 5.14504 79.2604C4.968 77.9835 4.79097 76.6625 4.70246 75.3855L4.56966 73.404L4.52547 71.4666C4.21566 61.0307 6.56127 50.5068 11.2084 41.1277C11.828 39.9829 12.359 38.794 13.0672 37.6931L14.0409 35.9758L15.1031 34.3466L15.6342 33.51C15.8112 33.2458 15.9882 32.9816 16.2095 32.7174L17.316 31.1322C17.5225 30.868 17.729 30.6038 17.9356 30.3396L18.5552 29.547L19.1306 28.7984C19.3371 28.5342 19.5436 28.2847 19.7502 28.0499L21.0336 26.5528C21.2549 26.3326 21.4762 26.0684 21.6975 25.8042L22.3614 25.0997L23.7334 23.6906L25.1496 22.3256C26.0791 21.4449 27.097 20.6083 28.1149 19.7276L28.469 19.4194L28.8674 19.1111L29.6197 18.4947L30.4164 17.9222C30.6819 17.7021 30.9032 17.4819 31.1688 17.3058C30.6377 17.2618 30.1066 17.2177 29.5312 17.1737C28.9706 17.1443 28.41 17.115 27.8494 17.0856C27.2741 17.0416 26.6986 16.9976 26.1233 16.9976C25.5627 16.9976 24.9874 16.9976 24.3973 16.9976Z" fill="white"/>
<path d="M31.3899 26.9053C29 29.0629 26.7871 31.3967 24.7512 33.9066C22.7596 36.4164 20.9008 39.1024 19.3517 41.9206C16.2537 47.5128 14.0407 53.6334 12.9785 59.9742L17.4043 60.7227C18.378 54.9103 20.4581 49.2741 23.2907 44.0782C24.7512 41.4802 26.4329 39.0144 28.2475 36.7247C30.1064 34.3909 32.1866 32.2333 34.3995 30.2518L31.3899 26.9053Z" fill="white"/>
<g opacity="0.2">
<path d="M11.4297 78.5114L11.474 79.0398L11.5625 79.5682L11.7395 80.581L15.8555 79.8324L15.6785 78.9077L15.59 78.4233L15.5457 77.939L11.4297 78.5114Z" fill="white"/>
</g>
<g opacity="0.5">
<path d="M11.0312 74.9005L11.0754 75.9573C11.1197 76.2656 11.164 76.6178 11.2082 76.9701L15.3243 76.4857C15.3243 76.1775 15.2358 75.8693 15.2358 75.517L15.1473 74.5923L11.0312 74.9005Z" fill="white"/>
</g>
<g opacity="0.7">
<path d="M10.8105 71.2902L10.8547 72.303C10.8547 72.6552 10.8548 73.0075 10.899 73.3598L15.0593 73.0956C15.015 72.7874 15.0151 72.4791 15.0151 72.1709L14.9708 71.2021L10.8105 71.2902Z" fill="white"/>
</g>
<path d="M10.8547 67.6357L10.8105 69.7053H14.9708L15.0151 67.8119L10.8547 67.6357Z" fill="white"/>
<path d="M131.944 69.6608C131.9 68.6481 131.9 67.6353 131.856 66.6226C131.767 65.6098 131.679 64.597 131.59 63.5843C131.59 63.4962 131.546 63.4228 131.458 63.3641C130.513 62.7476 129.584 62.1605 128.669 61.6028L128.005 61.2065L127.297 60.8102C126.825 60.546 126.353 60.2964 125.881 60.0616C124.686 53.3245 122.208 46.8076 118.667 40.9512C115.082 35.0948 110.435 29.8989 104.991 25.7157C104.991 25.2167 104.991 24.703 104.991 24.1746C104.991 23.6902 104.947 23.1618 104.903 22.6775C104.844 21.65 104.77 20.6226 104.681 19.5952C104.681 19.4777 104.637 19.3897 104.549 19.3309C103.354 18.5824 102.159 17.7898 100.92 17.1293L99.9901 16.6009C99.8426 16.5128 99.6951 16.4248 99.5476 16.3367L99.0607 16.0725L97.1576 15.1038C96.8478 14.9717 96.538 14.8396 96.2282 14.6634L95.2546 14.2231L94.2808 13.7828C93.9562 13.6654 93.6317 13.5479 93.3071 13.4305C92.6433 13.1663 91.9794 12.9021 91.3155 12.6379L89.2797 11.9774C88.6159 11.7132 87.952 11.5371 87.2438 11.361L86.2259 11.0527L85.7391 10.9206C85.5621 10.8619 85.3849 10.8179 85.2079 10.7885L83.1278 10.3041C82.9508 10.2748 82.7738 10.2454 82.5967 10.2161L82.1098 10.128L81.0477 9.90786C79.6757 9.64366 78.2594 9.51154 76.8432 9.33541C76.1351 9.24734 75.4269 9.20333 74.7188 9.15929L73.6566 9.07122C73.3026 9.02719 72.9484 9.07123 72.5944 9.0272C61.2643 8.58687 49.8015 11.405 39.9762 16.9972C39.7992 17.0853 39.755 17.3054 39.8878 17.5256C39.9763 17.7017 40.2419 17.7898 40.3746 17.7017C50.0671 12.1976 61.3086 9.37945 72.5059 9.86381C72.8599 9.86381 73.1993 9.86381 73.5238 9.86381L74.586 9.95189C75.2941 9.99592 76.0023 10.04 76.6662 10.128L78.7463 10.3922C79.1004 10.4363 79.4544 10.4362 79.8085 10.5243L80.8264 10.7005C83.5704 11.1408 86.2702 11.8893 88.9256 12.6819L90.9173 13.3865C91.5811 13.6066 92.245 13.8708 92.8646 14.135L93.8382 14.4873L94.812 14.9276C95.4316 15.2359 96.0954 15.5001 96.715 15.8083C97.9542 16.4248 99.1935 17.0412 100.388 17.7458L101.318 18.2742C101.465 18.3622 101.613 18.4503 101.76 18.5384L102.203 18.8025L103.973 19.9474C104.106 20.9602 104.15 22.017 104.195 23.0297C104.224 23.5288 104.254 24.0278 104.283 24.5268C104.283 25.0112 104.283 25.5396 104.283 26.024C104.283 26.1414 104.327 26.2295 104.416 26.2882C109.771 30.4273 114.418 35.5792 117.959 41.3916C121.499 47.2039 123.934 53.6328 125.084 60.3258C125.114 60.4139 125.173 60.4726 125.261 60.5019C125.733 60.7368 126.206 60.9863 126.678 61.2505C127.12 61.5147 127.563 61.7789 128.05 62.0871C128.964 62.6449 129.879 63.2173 130.794 63.8044L131.015 66.7546C131.059 67.7234 131.104 68.6921 131.104 69.6608C131.104 69.837 131.325 70.0131 131.546 70.0131C131.767 70.0131 131.944 69.837 131.944 69.6608Z" fill="white"/>
<path d="M89.8117 10.1726C86.4923 9.11578 83.0844 8.32317 79.6323 7.79477L77.021 7.48656C76.1359 7.3985 75.2508 7.35446 74.4099 7.2664C73.5247 7.17833 72.6395 7.17833 71.7544 7.17833L70.4709 7.13428C70.0284 7.13428 69.5858 7.13429 69.1432 7.17833H67.8597L67.1958 7.22235C66.9597 7.22235 66.7384 7.23704 66.5319 7.2664L63.9207 7.44251L61.3094 7.79477C61.1029 7.82413 60.8816 7.85349 60.6456 7.88285L60.026 7.97092L58.7426 8.19108C55.2904 8.85158 51.8825 9.77627 48.6074 10.9652L50.1565 15.1483C53.2103 14.0475 56.3526 13.2109 59.5391 12.5944L60.7342 12.4183L61.3537 12.2862C61.5603 12.2568 61.7521 12.2274 61.9291 12.1981L64.3633 11.8899L66.7975 11.7137C67.004 11.7137 67.2105 11.6991 67.4171 11.6697H68.0367L69.2317 11.6257C69.63 11.6257 70.0284 11.6257 70.4709 11.6257H71.6659C72.5068 11.6697 73.3034 11.6697 74.1001 11.7578C74.8967 11.8018 75.7376 11.8458 76.5343 11.9339L78.9685 12.2421C82.155 12.7265 85.3416 13.4751 88.4396 14.4438L89.8117 10.1726Z" fill="white"/>
<path d="M139.468 56.9355C138.495 51.8717 136.99 46.94 134.954 42.2284C132.874 37.4728 130.307 33.0255 127.253 28.8424C127.076 28.5782 126.884 28.3139 126.678 28.0497L126.102 27.3012L124.908 25.8041C124.701 25.5399 124.494 25.2903 124.288 25.0555L123.624 24.3069C123.211 23.8372 122.798 23.3529 122.385 22.8538L121.013 21.4888C120.57 21.0045 120.128 20.5201 119.685 20.0798L118.269 18.7588C118.048 18.5386 117.826 18.3184 117.561 18.0983L116.852 17.4818C112.958 14.0912 108.709 11.097 104.195 8.63113C95.1219 3.65539 84.8982 0.749205 74.5861 0.132741C69.4522 -0.175491 64.274 0.0446805 59.1401 0.88131C54.0504 1.71794 49.0493 3.08295 44.2252 5.02041C43.9596 5.51945 43.694 6.01851 43.4285 6.51755C43.1924 7.04595 42.9564 7.55967 42.7203 8.05871C42.4843 8.58711 42.263 9.10083 42.0564 9.59987C41.7909 10.1283 41.6139 10.6126 41.3926 11.141C50.8195 6.56158 61.3973 4.22781 71.8864 4.49201C72.5355 4.52136 73.1846 4.55072 73.8337 4.58008L75.7811 4.71217C77.1089 4.80024 78.3923 4.97637 79.7201 5.1525C80.3839 5.19654 81.0035 5.32864 81.6674 5.46074L83.6148 5.813L85.5179 6.25333C86.1375 6.38543 86.8013 6.51753 87.4209 6.69366C88.7044 7.08996 89.9436 7.39821 91.1828 7.83854C91.8024 8.04403 92.4221 8.2642 93.0418 8.49904L94.9006 9.20356L95.8299 9.55582C96.0955 9.68792 96.4053 9.82003 96.7151 9.95213L98.4854 10.7447C98.6624 10.8328 98.8248 10.9062 98.9723 10.9649L99.3706 11.1851L100.256 11.6254L101.141 12.0657C101.451 12.2418 101.716 12.374 102.026 12.5501C106.585 15.06 110.922 18.1423 114.772 21.6209C118.623 25.1876 122.075 29.1506 125.04 33.4658C127.961 37.8251 130.351 42.4926 132.21 47.4243C133.98 52.312 135.175 57.4198 135.795 62.6158C136.444 61.7351 137.078 60.8104 137.698 59.8417C138.318 58.917 138.893 57.9483 139.468 56.9355Z" fill="white"/>
<path d="M127.342 57.9479L126.811 55.6141C126.59 54.8655 126.369 54.0729 126.147 53.3244L125.97 52.7519L125.793 52.1795L125.395 51.0346C125.262 50.6383 125.174 50.2421 124.997 49.8898L124.554 48.7449C123.359 45.7947 121.987 42.8885 120.305 40.1585C118.624 37.3844 116.72 34.7864 114.64 32.3646C112.516 29.8988 110.259 27.609 107.78 25.5835L104.859 29.0181C107.161 30.9115 109.285 33.0251 111.232 35.2708C113.136 37.5165 114.906 39.9383 116.455 42.4482C118.004 45.0021 119.287 47.6441 120.394 50.4182L120.792 51.431C120.925 51.7832 121.014 52.1355 121.146 52.4877L121.5 53.5445L121.677 54.0729L121.854 54.6013C122.031 55.3059 122.253 56.0104 122.474 56.7149L122.961 58.8725L127.342 57.9479Z" fill="white"/>
<g opacity="0.2">
<path d="M92.376 14.9722L91.4465 14.5759C91.0925 14.4878 90.7827 14.3557 90.4729 14.2236L89.0566 18.1426C89.3664 18.2306 89.6763 18.3627 89.9418 18.4508L90.8712 18.8031L92.376 14.9722Z" fill="white"/>
</g>
<g opacity="0.5">
<path d="M95.7399 16.425L93.881 15.5884L92.1992 19.3752L93.9695 20.1678L95.7399 16.425Z" fill="white"/>
</g>
<g opacity="0.7">
<path d="M99.0166 18.0541C98.7068 17.878 98.3969 17.7459 98.0871 17.5697L97.1576 17.1294L95.2988 20.7841L96.1398 21.2245C96.4496 21.4006 96.7151 21.5327 97.025 21.7089L99.0166 18.0541Z" fill="white"/>
</g>
<path d="M102.158 19.9475L101.273 19.3751C100.978 19.199 100.683 19.0228 100.388 18.8467L98.2637 22.4134C98.5587 22.5895 98.8391 22.751 99.1046 22.8977L99.9455 23.4261L102.158 19.9475Z" fill="white"/>
</g>
<g clip-path="url(#clip0_298_16757)">
<path d="M72.159 76.177C73.041 75.9334 73.8849 75.5454 74.6682 75.0172C76.5415 73.7566 77.8191 71.8508 78.2618 69.6487C79.181 65.1096 76.2132 60.7264 71.6515 59.867C67.0918 59.0188 62.6392 62.0126 61.7267 66.5562C60.8142 71.0998 63.7753 75.4785 68.3304 76.3334C69.6153 76.5733 70.9162 76.5184 72.1524 76.1724L72.159 76.177ZM67.7771 67.6868C67.8997 67.0966 68.2489 66.577 68.7491 66.2405C69.2493 65.9041 69.8603 65.7778 70.4496 65.8892C71.674 66.1172 72.4718 67.2958 72.2293 68.5205C71.9802 69.7406 70.788 70.5508 69.5569 70.3181C68.3325 70.0901 67.5346 68.9115 67.7771 67.6868ZM51.5622 82.4629L52.3357 80.2212L53.2074 81.0065L53.7468 79.206L54.642 79.9285L55.0975 78.179L56.0783 79.0194L57.0523 78.2273C54.3056 74.7356 53.0185 70.1435 53.8664 65.4372L53.8526 65.4574C49.2871 74.8848 49.9542 81.1234 49.9542 81.1234L51.0139 83.0339L51.5576 82.4696L51.5622 82.4629ZM67.0817 82.6095C69.3099 83.0304 71.6082 82.9326 73.7999 82.3237C79.1028 80.8601 83.4224 76.5321 84.5719 70.8291C86.1815 62.8273 80.9607 55.1035 72.9315 53.6023C64.9023 52.1012 57.0574 57.3855 55.4412 65.3828C53.8317 73.3846 59.0525 81.1084 67.0817 82.6095ZM60.7261 66.3731C61.4552 62.7396 64.2086 59.9813 67.592 59.0462C68.9877 58.6591 70.451 58.5963 71.8701 58.8627C76.9916 59.8199 80.3142 64.7424 79.2871 69.8388C78.7882 72.3083 77.3608 74.4468 75.2538 75.8627C73.1467 77.2786 70.621 77.8056 68.1476 77.3425C63.0261 76.3853 59.7035 71.4627 60.7307 66.3664L60.7261 66.3731ZM66.776 84.1263C64.8085 83.7537 63.006 83.0404 61.3943 82.0633C65.9768 87.3764 76.0191 90.8401 76.0191 90.8401L78.1819 90.3996L77.8136 89.7229L75.9101 88.3287L76.9438 87.7354L75.3848 86.6958L76.3585 86.0613L74.8272 85.1098L75.9432 84.425L75.532 83.3538C72.7289 84.4 69.7002 84.6654 66.7693 84.1217L66.776 84.1263ZM66.7599 52.1913C60.1449 51.2556 51.8392 53.3136 51.8392 53.3136L50.2555 54.8517L50.9456 55.2164L53.3168 55.3431L52.7741 56.3915L54.6598 56.4121L54.1888 57.4702L56.0038 57.4226L55.4366 58.5923L56.3532 59.2407C58.5797 55.8941 61.9565 53.4549 65.8226 52.3871C66.1339 52.3046 66.4559 52.2492 66.7758 52.1825L66.7599 52.1913ZM84.2735 59.9403C83.1498 53.3394 78.4091 46.0435 78.4091 46.0435L76.44 45.0877L76.3128 45.8587L76.9489 48.1299L75.7793 47.9789L76.3653 49.752L75.2081 49.6687L75.8246 51.3543L74.5245 51.2223L74.1918 52.3358C76.3013 52.858 78.2812 53.8023 80.013 55.112C81.7449 56.4217 83.193 58.07 84.2709 59.9583L84.2735 59.9403ZM91.3051 68.5509L91.0884 67.396L89.5765 68.5296L89.3031 67.4147L87.8854 68.5536L87.6143 67.2924L86.383 67.3457C86.4278 68.5799 86.344 69.8444 86.0918 71.1118C85.3826 74.6307 83.5746 77.6526 81.1074 79.9363C87.4939 77.0356 93.7434 69.2366 93.7434 69.2366L94.0577 67.0647L93.2898 67.1991L91.3163 68.5487L91.3051 68.5509Z" fill="white"/>
</g>
</g>
<defs>
<clipPath id="clip0_298_16757">
<rect width="56" height="56" fill="white" transform="translate(42 42)"/>
</clipPath>
</defs>
</svg>
