<svg width="40" height="41" viewBox="0 0 40 41" fill="none" xmlns="http://www.w3.org/2000/svg">
<rect y="0.5" width="40" height="40" rx="8" fill="#6357F4"/>
<path d="M20.7861 26.5525V28.0928H27.2525V29.6433H12.769V28.0928H19.2355V26.5525H10.0281C9.86869 26.552 9.716 26.4884 9.60346 26.3755C9.49093 26.2627 9.42773 26.1098 9.42773 25.9504V11.635C9.42773 11.3022 9.69531 11.0347 10.0281 11.0347H29.9935C30.3263 11.0347 30.5955 11.3022 30.5955 11.635V25.9521C30.5951 26.1115 30.5315 26.2642 30.4186 26.3767C30.3057 26.4893 30.1529 26.5525 29.9935 26.5525H20.7861ZM12.5117 19.3107V23.4479H14.5803V19.3107H12.5117ZM16.8204 17.2387V23.4479H18.8924V17.2387H16.8204ZM21.1308 14.1341V23.4479H23.2011V14.1341H21.1308ZM25.443 17.2387V23.4479H27.5115V17.2387H25.4447H25.443Z" fill="white"/>
</svg>
