<svg width="32" height="32" viewBox="0 0 32 32" fill="none" xmlns="http://www.w3.org/2000/svg">
<path d="M15.9993 21.3337C23.3631 21.3337 29.3327 18.9459 29.3327 16.0003C29.3327 13.0548 23.3631 10.667 15.9993 10.667C8.63555 10.667 2.66602 13.0548 2.66602 16.0003C2.66602 18.9459 8.63555 21.3337 15.9993 21.3337Z" stroke="white" stroke-width="2" stroke-linecap="round" stroke-linejoin="round"/>
<path d="M21.3327 16.0003C21.3327 23.3641 18.9449 29.3337 15.9993 29.3337C13.0538 29.3337 10.666 23.3641 10.666 16.0003C10.666 8.63653 13.0538 2.66699 15.9993 2.66699C18.9449 2.66699 21.3327 8.63653 21.3327 16.0003Z" stroke="white" stroke-width="2" stroke-linecap="round" stroke-linejoin="round"/>
<path d="M15.9993 29.3337C23.3631 29.3337 29.3327 23.3641 29.3327 16.0003C29.3327 8.63653 23.3631 2.66699 15.9993 2.66699C8.63555 2.66699 2.66602 8.63653 2.66602 16.0003C2.66602 23.3641 8.63555 29.3337 15.9993 29.3337Z" stroke="white" stroke-width="2" stroke-linejoin="round"/>
</svg>
