<svg width="107" height="60" viewBox="0 0 107 60" fill="none" xmlns="http://www.w3.org/2000/svg">
<g clip-path="url(#clip0_131_7184)">
<mask id="mask0_131_7184" style="mask-type:luminance" maskUnits="userSpaceOnUse" x="0" y="0" width="107" height="60">
<path d="M0 0H106.667V60H0V0Z" fill="white"/>
</mask>
<g mask="url(#mask0_131_7184)">
<path d="M14.5401 51.567C16.5997 51.567 18.2241 49.9135 18.2241 47.8683C18.2241 45.8233 16.5997 44.1698 14.5401 44.1698C12.4659 44.1698 10.8415 45.8233 10.8415 47.8683C10.8415 49.9135 12.4659 51.567 14.5401 51.567ZM9.24609 47.8683C9.24609 44.9675 11.5523 42.6468 14.5401 42.6468C17.528 42.6468 19.8195 44.9675 19.8195 47.8683C19.8195 50.7692 17.528 53.0898 14.5401 53.0898C11.5523 53.0898 9.24609 50.7692 9.24609 47.8683Z" fill="white"/>
<path d="M27.5195 42.7943H29.0715V51.4534H34.3799V52.9473H27.5195V42.7943Z" fill="white"/>
<path d="M43.1815 49.3648L39.2363 42.7943H41.0203L43.9937 47.7692L46.822 42.7943H48.5481L44.7334 49.3357V52.9473H43.1815V49.3648Z" fill="white"/>
<path d="M60.0636 51.567C62.1231 51.567 63.7476 49.9135 63.7476 47.8683C63.7476 45.8233 62.1231 44.1698 60.0636 44.1698C57.9894 44.1698 56.3649 45.8233 56.3649 47.8683C56.3649 49.9135 57.9894 51.567 60.0636 51.567ZM54.7695 47.8683C54.7695 44.9675 57.0758 42.6468 60.0636 42.6468C63.0514 42.6468 65.343 44.9675 65.343 47.8683C65.343 50.7692 63.0514 53.0898 60.0636 53.0898C57.0758 53.0898 54.7695 50.7692 54.7695 47.8683Z" fill="white"/>
<path d="M74.5949 46.202V52.9465H73.043V42.3729L80.2224 49.5381V42.7936H81.7744V53.3672L74.5949 46.202Z" fill="white"/>
<path d="M90.0078 42.7943H97.3033V44.2882H91.5598V47.015H96.8682V48.509H91.5598V51.4534H97.4484V52.9473H90.0078V42.7943Z" fill="white"/>
</g>
<path d="M9.85352 21.6996C9.85352 30.0016 16.6077 36.7559 24.9097 36.7559C33.2117 36.7559 39.966 30.0016 39.966 21.6996C39.966 13.3976 33.2117 6.64341 24.9097 6.64341C16.6077 6.64341 9.85352 13.3976 9.85352 21.6996ZM16.6875 21.6996C16.6875 17.1659 20.376 13.4774 24.9097 13.4774C29.4435 13.4774 33.132 17.1659 33.132 21.6996C33.132 26.2334 29.4435 29.9219 24.9097 29.9219C20.376 29.9219 16.6875 26.2334 16.6875 21.6996Z" fill="url(#paint0_linear_131_7184)"/>
<path d="M41.375 6.91967V36.4492H49.6285V23.6262L60.7145 36.4492H66.0187V18.5675H59.8234L49.6285 6.91967H41.375Z" fill="url(#paint1_linear_131_7184)"/>
<path d="M59.7383 6.91841V13.1934C63.2038 13.1934 66.0132 10.384 66.0132 6.91841H59.7383Z" fill="url(#paint2_linear_131_7184)"/>
<path d="M79.0718 6.91967H77.4934H72.7969V36.4492H77.4934H79.0718H97.2344C97.2559 36.4492 97.2733 36.4318 97.2733 36.4104V30.5668H79.0718V24.3719H95.4753V18.5675H79.0718V12.7632H96.8432V6.91967H79.0718Z" fill="url(#paint3_linear_131_7184)"/>
</g>
<defs>
<linearGradient id="paint0_linear_131_7184" x1="24.9097" y1="4.22997" x2="24.9097" y2="45.5293" gradientUnits="userSpaceOnUse">
<stop stop-color="#B408D7"/>
<stop offset="1" stop-color="#0D0EC9"/>
</linearGradient>
<linearGradient id="paint1_linear_131_7184" x1="53.6968" y1="4.22673" x2="53.6968" y2="45.526" gradientUnits="userSpaceOnUse">
<stop stop-color="#B408D7"/>
<stop offset="1" stop-color="#0D0EC9"/>
</linearGradient>
<linearGradient id="paint2_linear_131_7184" x1="62.8757" y1="4.22547" x2="62.8757" y2="45.5248" gradientUnits="userSpaceOnUse">
<stop stop-color="#B408D7"/>
<stop offset="1" stop-color="#0D0EC9"/>
</linearGradient>
<linearGradient id="paint3_linear_131_7184" x1="85.0351" y1="4.22673" x2="85.0351" y2="45.526" gradientUnits="userSpaceOnUse">
<stop stop-color="#B408D7"/>
<stop offset="1" stop-color="#0D0EC9"/>
</linearGradient>
<clipPath id="clip0_131_7184">
<rect width="106.667" height="60" fill="white"/>
</clipPath>
</defs>
</svg>
