<svg width="30" height="31" viewBox="0 0 30 31" fill="none" xmlns="http://www.w3.org/2000/svg">
<circle cx="15" cy="15.5" r="15" fill="#D9BFFF"/>
<path d="M4.16992 15.8993C4.16992 17.9569 5.84392 19.6309 7.90153 19.6309C9.95913 19.6309 11.6331 17.9569 11.6331 15.8993C11.6331 13.8416 9.95913 12.1676 7.90153 12.1676C5.84392 12.1676 4.16992 13.8416 4.16992 15.8993ZM5.86368 15.8993C5.86368 14.7756 6.77785 13.8614 7.90153 13.8614C9.02519 13.8614 9.93936 14.7756 9.93936 15.8993C9.93936 17.0229 9.02519 17.9371 7.90153 17.9371C6.77785 17.9371 5.86368 17.0229 5.86368 15.8993Z" fill="url(#paint0_linear_179_21870)"/>
<path d="M11.9824 12.234V19.5527H14.028V16.3746L16.7756 19.5527H18.0902V15.1208H16.5548L14.028 12.234H11.9824Z" fill="url(#paint1_linear_179_21870)"/>
<path d="M16.5352 12.2358V13.791C17.3941 13.791 18.0904 13.0947 18.0904 12.2358H16.5352Z" fill="url(#paint2_linear_179_21870)"/>
<path d="M21.3208 12.234H20.9296H19.7656V19.5527H20.9296H21.3208H25.8223C25.8277 19.5527 25.832 19.5484 25.832 19.5431V18.0948H21.3208V16.5594H25.3863V15.1208H21.3208V13.6823H25.7254V12.234H21.3208Z" fill="url(#paint3_linear_179_21870)"/>
<defs>
<linearGradient id="paint0_linear_179_21870" x1="7.90153" y1="11.5695" x2="7.90153" y2="21.8053" gradientUnits="userSpaceOnUse">
<stop stop-color="#B408D7"/>
<stop offset="1" stop-color="#0D0EC9"/>
</linearGradient>
<linearGradient id="paint1_linear_179_21870" x1="15.0363" y1="11.5666" x2="15.0363" y2="21.8024" gradientUnits="userSpaceOnUse">
<stop stop-color="#B408D7"/>
<stop offset="1" stop-color="#0D0EC9"/>
</linearGradient>
<linearGradient id="paint2_linear_179_21870" x1="17.3128" y1="11.5684" x2="17.3128" y2="21.8042" gradientUnits="userSpaceOnUse">
<stop stop-color="#B408D7"/>
<stop offset="1" stop-color="#0D0EC9"/>
</linearGradient>
<linearGradient id="paint3_linear_179_21870" x1="22.7988" y1="11.5666" x2="22.7988" y2="21.8024" gradientUnits="userSpaceOnUse">
<stop stop-color="#B408D7"/>
<stop offset="1" stop-color="#0D0EC9"/>
</linearGradient>
</defs>
</svg>
