<svg width="24" height="24" viewBox="0 0 24 24" fill="none" xmlns="http://www.w3.org/2000/svg">
<path d="M11.9207 10.832H12.0038C13.9232 10.8098 15.4743 9.27817 15.4743 7.39476V6.2481C15.4743 4.34807 13.9011 2.80811 11.9623 2.80811C10.0235 2.80811 8.45029 4.34807 8.45029 6.2481V7.39476C8.45029 9.27817 10.0013 10.8098 11.9207 10.832ZM18.7342 11.3333C19.9806 11.3333 20.9916 10.3694 20.9916 9.184V8.46387C20.9916 7.27566 19.9806 6.31457 18.7342 6.31457C17.4879 6.31457 16.4769 7.27843 16.4769 8.46387V9.18123C16.4769 10.3694 17.4879 11.3333 18.7342 11.3333ZM5.19033 11.3333C6.4367 11.3333 7.44765 10.3694 7.44765 9.184V8.46387C7.44765 7.27566 6.4367 6.31457 5.19033 6.31457C3.94396 6.31457 2.93301 7.27843 2.93301 8.46387V9.18123C2.93024 10.3694 3.94119 11.3333 5.19033 11.3333ZM1.93314 13.5214C1.34042 13.8233 0.927734 14.4991 0.927734 15.2912V16.1748C0.927734 16.7592 1.26564 17.2466 1.72818 17.4073C2.44831 17.5956 3.18505 17.7203 3.93842 17.7895V16.2302C3.93842 14.837 4.44251 13.6155 5.20972 12.8428H5.19033C4.04367 12.8373 2.94409 13.081 1.93314 13.5214ZM21.9997 13.5241C20.986 13.081 19.8865 12.8373 18.7342 12.8373H18.7176C19.4876 13.6128 19.9889 14.8342 19.9889 16.2246V17.7867C20.7395 17.7175 21.479 17.5929 22.1936 17.4045C22.6562 17.2466 22.9996 16.7564 22.9996 16.1692V15.294C22.9996 14.5019 22.5869 13.8288 21.9997 13.5241ZM16.9533 13.4355C15.4023 12.7237 13.7211 12.3332 11.9623 12.3332C10.2063 12.3332 8.53061 12.7237 6.98234 13.43C6.07664 13.9091 5.44237 14.9921 5.44237 16.2579V17.6704C5.44237 18.6066 5.96031 19.3904 6.66659 19.6452C8.37274 20.1078 10.1426 20.3626 11.9651 20.3626C13.7848 20.3626 15.5518 20.1133 17.2552 19.648C17.967 19.3959 18.485 18.6093 18.485 17.6732V16.2606C18.485 14.9976 17.8535 13.9174 16.9533 13.4355Z" fill="url(#paint0_linear_292_14696)"/>
<defs>
<linearGradient id="paint0_linear_292_14696" x1="0.927734" y1="9.68782" x2="22.9996" y2="9.68782" gradientUnits="userSpaceOnUse">
<stop stop-color="#B408D7"/>
<stop offset="1" stop-color="#576AF4"/>
</linearGradient>
</defs>
</svg>
