<svg width="24" height="24" viewBox="0 0 24 24" fill="none" xmlns="http://www.w3.org/2000/svg">
<path d="M17.7853 11.0231C17.9028 10.9052 18.0593 10.8344 18.2254 10.8239C18.3914 10.8134 18.5556 10.864 18.687 10.9661L18.7513 11.0231L20.8004 13.0794C20.9067 13.1862 20.9745 13.3248 20.9944 13.4743L21.0005 13.5641V20.1348C21.0005 20.3028 20.939 20.465 20.8279 20.5903C20.7169 20.7157 20.5636 20.7959 20.3973 20.8156L20.3175 20.8203H3.92355C3.75618 20.8203 3.5947 20.7586 3.46985 20.6471C3.34471 20.5354 3.26481 20.3817 3.24527 20.2151L3.24052 20.1348V19.7578C3.24052 19.5909 3.30113 19.4294 3.41127 19.3041L3.47008 19.2453L8.90721 14.3948C9.02661 14.2885 9.1796 14.2275 9.33943 14.2225C9.49925 14.2175 9.65576 14.2688 9.78158 14.3675L9.8431 14.4222L11.6375 16.223C11.755 16.3409 11.9115 16.4117 12.0776 16.4222C12.2437 16.4327 12.4079 16.3821 12.5393 16.28L12.6035 16.223L17.7851 11.0231H17.7853ZM20.8071 3.73454C20.8239 3.82116 20.8239 3.91004 20.8071 3.99644L20.0798 7.74996C20.0561 7.87183 19.9998 7.98499 19.9168 8.07739C19.8339 8.16979 19.7275 8.23797 19.6089 8.27467C19.4903 8.31113 19.3639 8.31448 19.2436 8.28434C19.1232 8.25421 19.0133 8.19174 18.9259 8.10369L18.3844 7.5602L12.6035 13.3633C12.4861 13.4812 12.3296 13.5522 12.1635 13.5628C11.9974 13.5734 11.8332 13.5228 11.7018 13.4207L11.6375 13.3633L9.33761 11.0559L5.05915 14.9815C4.9296 15.1006 4.75899 15.1651 4.58304 15.1613C4.40708 15.1575 4.23941 15.0858 4.11512 14.9612L3.14937 13.9918C3.02119 13.8631 2.94922 13.6889 2.94922 13.5072C2.94922 13.3256 3.02119 13.1514 3.14937 13.0227L8.95515 7.71852C9.08497 7.59982 9.25564 7.53589 9.43149 7.54011C9.60734 7.54432 9.77476 7.61635 9.89873 7.74114L12.1206 9.96959L16.4527 5.62102L15.9133 5.07957C15.8254 4.99155 15.7631 4.88128 15.733 4.76056C15.703 4.63984 15.7063 4.51323 15.7427 4.39427C15.779 4.27553 15.8467 4.16884 15.9388 4.0856C16.0309 4.00235 16.1439 3.94566 16.2656 3.92158L20.006 3.19195C20.1387 3.1659 20.2762 3.17995 20.4008 3.23232C20.5255 3.28468 20.6318 3.37299 20.706 3.48597C20.7558 3.56106 20.79 3.6452 20.8071 3.7334V3.73476V3.73454Z" fill="url(#paint0_linear_292_14762)"/>
<defs>
<linearGradient id="paint0_linear_292_14762" x1="2.94922" y1="10.0929" x2="21.0005" y2="10.0929" gradientUnits="userSpaceOnUse">
<stop stop-color="#B408D7"/>
<stop offset="1" stop-color="#576AF4"/>
</linearGradient>
</defs>
</svg>
