<svg width="20" height="20" viewBox="0 0 20 20" fill="none" xmlns="http://www.w3.org/2000/svg">
<path d="M7.6176 17.9895C6.22131 17.5738 4.97843 16.802 3.99429 15.7794C4.36143 15.3442 4.58268 14.782 4.58268 14.1682C4.58268 12.7874 3.46339 11.6682 2.08268 11.6682C1.99916 11.6682 1.91659 11.6723 1.83518 11.6803C1.72426 11.138 1.66602 10.5766 1.66602 10.0015C1.66602 9.1304 1.79967 8.29053 2.04759 7.50124C2.05927 7.5014 2.07097 7.50149 2.08268 7.50149C3.46339 7.50149 4.58268 6.3822 4.58268 5.00149C4.58268 4.60511 4.49043 4.23032 4.32627 3.89733C5.28997 3.00124 6.46622 2.33062 7.77106 1.96942C8.18452 2.77986 9.02714 3.33483 9.99935 3.33483C10.9716 3.33483 11.8142 2.77986 12.2276 1.96942C13.5325 2.33062 14.7087 3.00124 15.6724 3.89733C15.5083 4.23032 15.416 4.60511 15.416 5.00149C15.416 6.3822 16.5353 7.50149 17.916 7.50149C17.9277 7.50149 17.9394 7.5014 17.9511 7.50124C18.199 8.29053 18.3327 9.1304 18.3327 10.0015C18.3327 10.5766 18.2744 11.138 18.1635 11.6803C18.0821 11.6723 17.9996 11.6682 17.916 11.6682C16.5353 11.6682 15.416 12.7874 15.416 14.1682C15.416 14.782 15.6373 15.3442 16.0044 15.7794C15.0203 16.802 13.7774 17.5738 12.3811 17.9895C12.0588 16.9814 11.1143 16.2515 9.99935 16.2515C8.88435 16.2515 7.93985 16.9814 7.6176 17.9895Z" stroke="white" stroke-width="1.25" stroke-linejoin="round"/>
<path d="M10.0007 12.9166C11.6115 12.9166 12.9173 11.6108 12.9173 9.99998C12.9173 8.38915 11.6115 7.08331 10.0007 7.08331C8.38982 7.08331 7.08398 8.38915 7.08398 9.99998C7.08398 11.6108 8.38982 12.9166 10.0007 12.9166Z" stroke="white" stroke-width="1.25" stroke-linejoin="round"/>
</svg>
