<svg width="40" height="40" viewBox="0 0 40 40" fill="none" xmlns="http://www.w3.org/2000/svg">
<rect width="40" height="40" rx="8" fill="#6357F4"/>
<path d="M22.2843 16.5463C21.9891 16.2958 21.6528 16.0933 21.2822 15.9457C20.3967 15.5922 19.429 15.6025 18.5573 15.9766C16.759 16.7453 15.9422 18.8388 16.7315 20.6439C17.5243 22.4456 19.628 23.2864 21.4263 22.5143C23.2246 21.7421 24.0414 19.6521 23.252 17.8504C23.029 17.3425 22.6995 16.8998 22.2843 16.5497V16.5463ZM20.3762 20.1223C20.1416 20.2212 19.8775 20.2237 19.6411 20.1293C19.4048 20.0348 19.2151 19.8511 19.1132 19.6178C18.9005 19.1339 19.1201 18.5711 19.604 18.3617C20.0879 18.1558 20.6541 18.3789 20.8669 18.8662C21.0797 19.3501 20.86 19.9129 20.3762 20.1223ZM29.3847 22.2535L28.4204 22.5211L28.4856 22.027L27.7306 22.2706L27.7683 21.7833L27.0511 22.0441L27.1094 21.4985L26.6015 21.3475C26.0421 23.1492 24.7518 24.7038 22.9123 25.5377H22.9226C27.2913 24.872 29.3024 23.1389 29.3024 23.1389L29.7142 22.3084L29.3882 22.2535H29.3847ZM25.7333 16.7797C25.3481 15.8977 24.7657 15.1158 24.0311 14.4941C22.2568 12.9875 19.7207 12.5139 17.4625 13.4817C14.2949 14.8407 12.8535 18.5265 14.2469 21.7009C15.6402 24.8754 19.35 26.3545 22.5176 24.9989C25.6852 23.6399 27.1266 19.9541 25.7333 16.7797ZM21.6013 22.9089C20.1634 23.5267 18.547 23.2247 17.4145 22.2638C16.9468 21.8677 16.5759 21.37 16.33 20.8087C15.4412 18.7839 16.3609 16.4365 18.3788 15.5717C19.3569 15.153 20.4414 15.1392 21.4366 15.5373C22.4318 15.9354 23.2177 16.6939 23.6467 17.6719C24.5355 19.6967 23.6158 22.0441 21.5979 22.9089H21.6013ZM26.3338 16.5223C26.6736 17.3013 26.8555 18.1044 26.9001 18.904C27.6551 16.0212 26.4642 11.6696 26.4642 11.6696L25.795 11.0176L25.6475 11.3093L25.6166 12.3114L25.1636 12.0918L25.1739 12.888L24.7209 12.6992L24.7552 13.4645L24.2507 13.238L23.9762 13.6395C25.0089 14.3704 25.8237 15.3679 26.3338 16.5257V16.5223ZM15.2284 24.2027C16.481 26.7457 19.1784 29.1618 19.1784 29.1618L20.0913 29.3471L20.0536 29.0176L19.5319 28.1562L20.0261 28.0945L19.5834 27.4287L20.0639 27.3395L19.6143 26.7149L20.1565 26.6325L20.1634 26.1555C18.468 26.1795 16.8139 25.5823 15.5201 24.4842C15.4171 24.3949 15.321 24.2954 15.2215 24.1993L15.2284 24.2027ZM13.7458 16.2031C11.7176 18.1833 10.3105 21.598 10.3105 21.598L10.4478 22.5177L10.7464 22.377L11.3847 21.6083L11.6112 22.0544L12.0882 21.423L12.3353 21.8485L12.7746 21.2273L13.0389 21.7147L13.5056 21.5637C13.184 20.6989 13.0401 19.7781 13.0826 18.8565C13.125 17.9348 13.353 17.0312 13.7527 16.1997L13.7458 16.2031ZM15.0637 11.6696L14.7136 12.0231L15.4686 12.2805L15.146 12.6443L15.8804 12.8674L15.5064 13.2655L15.8187 13.6841C16.2373 13.3718 16.6972 13.0973 17.1983 12.8811C18.5916 12.2839 20.0741 12.1913 21.4572 12.507C18.9245 10.9661 14.7205 10.6504 14.7205 10.6504L13.89 11.0622L14.1199 11.299L15.0602 11.6662L15.0637 11.6696Z" fill="white"/>
</svg>
