<?xml version="1.0" standalone="no"?><!DOCTYPE svg PUBLIC "-//W3C//DTD SVG 1.1//EN" "http://www.w3.org/Graphics/SVG/1.1/DTD/svg11.dtd"><svg t="1753307988389" class="icon" viewBox="0 0 1024 1024" version="1.1" xmlns="http://www.w3.org/2000/svg" p-id="6339" xmlns:xlink="http://www.w3.org/1999/xlink" width="200" height="200"><path d="M512.000788 0c282.781538 0 512 229.218462 512 512S794.782326 1024 512.000788 1024 0.000788 794.781538 0.000788 512 229.219249 0 512.000788 0" fill="#F0F0F0" p-id="6340"></path><path d="M992.099249 690.018462C1012.776172 634.683077 1024.000788 574.621538 1024.000788 512c0-62.621538-11.224615-122.683077-31.901539-178.018462H31.902326A507.825231 507.825231 0 0 0 0.000788 512c0 62.621538 11.224615 122.683077 31.901538 178.018462L512.000788 734.523077l480.098461-44.504615z" fill="#104B97" p-id="6341"></path><path d="M512.000788 1024c220.16 0 407.827692-138.830769 480.098461-333.981538H31.902326C104.173095 885.169231 291.840788 1024 512.000788 1024" fill="#C0192A" p-id="6342"></path></svg>