<svg viewBox="0 0 89 12" fill="none" xmlns="http://www.w3.org/2000/svg">
<path d="M5.54015 9.56701C7.5997 9.56701 9.22415 7.91346 9.22415 5.86834C9.22415 3.82334 7.5997 2.16979 5.54015 2.16979C3.46593 2.16979 1.84148 3.82334 1.84148 5.86834C1.84148 7.91346 3.46593 9.56701 5.54015 9.56701ZM0.246094 5.86834C0.246094 2.96751 2.55232 0.64679 5.54015 0.64679C8.52798 0.64679 10.8195 2.96751 10.8195 5.86834C10.8195 8.76918 8.52798 11.0898 5.54015 11.0898C2.55232 11.0898 0.246094 8.76918 0.246094 5.86834Z" fill="white"/>
<path d="M18.5195 0.794321H20.0715V9.45338H25.3799V10.9473H18.5195V0.794321Z" fill="white"/>
<path d="M34.1795 7.36477L30.2344 0.794321H32.0184L34.9918 5.76921L37.82 0.794321H39.5462L35.7315 7.33571V10.9473H34.1795V7.36477Z" fill="white"/>
<path d="M51.0636 9.56701C53.1231 9.56701 54.7476 7.91346 54.7476 5.86834C54.7476 3.82334 53.1231 2.16979 51.0636 2.16979C48.9894 2.16979 47.3649 3.82334 47.3649 5.86834C47.3649 7.91346 48.9894 9.56701 51.0636 9.56701ZM45.7695 5.86834C45.7695 2.96751 48.0758 0.64679 51.0636 0.64679C54.0514 0.64679 56.343 2.96751 56.343 5.86834C56.343 8.76918 54.0514 11.0898 51.0636 11.0898C48.0758 11.0898 45.7695 8.76918 45.7695 5.86834Z" fill="white"/>
<path d="M65.5949 4.20202V10.9465H64.043V0.37291L71.2224 7.53808V0.793575H72.7744V11.3672L65.5949 4.20202Z" fill="white"/>
<path d="M81.0078 0.794321H88.3033V2.28821H82.5598V5.01504H87.8682V6.50904H82.5598V9.45338H88.4484V10.9473H81.0078V0.794321Z" fill="white"/>
</svg>
