<svg viewBox="0 0 77 27" fill="none" xmlns="http://www.w3.org/2000/svg">
<g opacity="0.2">
<path d="M0 13.1851C0 20.4553 5.91479 26.3701 13.185 26.3701C20.4552 26.3701 26.37 20.4553 26.37 13.1851C26.37 5.91491 20.4552 0.000110626 13.185 0.000110626C5.91479 0.000110626 0 5.91491 0 13.1851ZM5.98461 13.1851C5.98461 9.21481 9.21469 5.98472 13.185 5.98472C17.1553 5.98472 20.3853 9.21481 20.3853 13.1851C20.3853 17.1554 17.1553 20.3855 13.185 20.3855C9.21469 20.3855 5.98461 17.1554 5.98461 13.1851Z" fill="white" fill-opacity="0.22"/>
<path d="M27.5996 0.290834V26.1504H34.8273V14.921L44.5356 26.1504H49.1805V10.491H43.7552L34.8273 0.290834H27.5996Z" fill="white" fill-opacity="0.22"/>
<path d="M43.6953 0.317512V5.80957C46.7285 5.80957 49.1874 3.35069 49.1874 0.317512H43.6953Z" fill="white" fill-opacity="0.22"/>
<path d="M60.6045 0.290834H59.2222H55.1094V26.1504H59.2222H60.6045H76.5097C76.5286 26.1504 76.5438 26.1352 76.5438 26.1164V20.9991H60.6045V15.5741H74.9692V10.491H60.6045V5.40809H76.1672V0.290834H60.6045Z" fill="white" fill-opacity="0.22"/>
</g>
</svg>
