<svg width="24" height="24" viewBox="0 0 24 24" fill="none" xmlns="http://www.w3.org/2000/svg">
<path d="M5.11589 1.94043H18.8819C19.4435 1.94043 19.9822 2.16356 20.3794 2.56073C20.7766 2.9579 20.9997 3.49658 20.9997 4.05827V19.9421C20.9997 20.5038 20.7766 21.0424 20.3794 21.4396C19.9822 21.8368 19.4435 22.0599 18.8819 22.0599H5.11589C4.5542 22.0599 4.01552 21.8368 3.61835 21.4396C3.22118 21.0424 2.99805 20.5038 2.99805 19.9421V4.05827C2.99805 3.49658 3.22118 2.9579 3.61835 2.56073C4.01552 2.16356 4.5542 1.94043 5.11589 1.94043ZM7.76319 6.70557C7.62412 6.70555 7.4864 6.73293 7.35791 6.78613C7.22942 6.83934 7.11267 6.91734 7.01433 7.01567C6.91598 7.114 6.83797 7.23074 6.78474 7.35923C6.73152 7.48771 6.70412 7.62542 6.70412 7.76449C6.70412 7.90356 6.73152 8.04127 6.78474 8.16976C6.83797 8.29824 6.91598 8.41498 7.01433 8.51331C7.11267 8.61164 7.22942 8.68964 7.35791 8.74285C7.4864 8.79605 7.62412 8.82343 7.76319 8.82341H16.764C16.9031 8.82343 17.0408 8.79605 17.1693 8.74285C17.2978 8.68964 17.4145 8.61164 17.5129 8.51331C17.6112 8.41498 17.6892 8.29824 17.7425 8.16976C17.7957 8.04127 17.8231 7.90356 17.8231 7.76449C17.8231 7.62542 17.7957 7.48771 17.7425 7.35923C17.6892 7.23074 17.6112 7.114 17.5129 7.01567C17.4145 6.91734 17.2978 6.83934 17.1693 6.78613C17.0408 6.73293 16.9031 6.70555 16.764 6.70557H7.76319ZM7.76319 10.9413C7.48234 10.9413 7.213 11.0528 7.01442 11.2514C6.81583 11.45 6.70427 11.7193 6.70427 12.0002C6.70427 12.281 6.81583 12.5504 7.01442 12.7489C7.213 12.9475 7.48234 13.0591 7.76319 13.0591H16.764C17.0449 13.0591 17.3142 12.9475 17.5128 12.7489C17.7114 12.5504 17.8229 12.281 17.8229 12.0002C17.8229 11.7193 17.7114 11.45 17.5128 11.2514C17.3142 11.0528 17.0449 10.9413 16.764 10.9413H7.76319ZM7.76319 15.1769C7.62412 15.1769 7.4864 15.2043 7.35791 15.2575C7.22942 15.3107 7.11267 15.3887 7.01433 15.487C6.91598 15.5854 6.83797 15.7021 6.78474 15.8306C6.73152 15.9591 6.70412 16.0968 6.70412 16.2359C6.70412 16.3749 6.73152 16.5126 6.78474 16.6411C6.83797 16.7696 6.91598 16.8863 7.01433 16.9847C7.11267 17.083 7.22942 17.161 7.35791 17.2142C7.4864 17.2674 7.62412 17.2948 7.76319 17.2948H11.4694C11.6085 17.2948 11.7462 17.2674 11.8747 17.2142C12.0032 17.161 12.1199 17.083 12.2183 16.9847C12.3166 16.8863 12.3946 16.7696 12.4479 16.6411C12.5011 16.5126 12.5285 16.3749 12.5285 16.2359C12.5285 16.0968 12.5011 15.9591 12.4479 15.8306C12.3946 15.7021 12.3166 15.5854 12.2183 15.487C12.1199 15.3887 12.0032 15.3107 11.8747 15.2575C11.7462 15.2043 11.6085 15.1769 11.4694 15.1769H7.76319Z" fill="url(#paint0_linear_337_15026)"/>
<defs>
<linearGradient id="paint0_linear_337_15026" x1="2.99805" y1="9.82539" x2="20.9997" y2="9.82539" gradientUnits="userSpaceOnUse">
<stop stop-color="#B408D7"/>
<stop offset="1" stop-color="#576AF4"/>
</linearGradient>
</defs>
</svg>
