<svg width="24" height="24" viewBox="0 0 24 24" fill="none" xmlns="http://www.w3.org/2000/svg">
<path d="M21.1808 4.05635V4.0676C21.1808 4.14635 21.1583 4.2251 21.1358 4.30385L21.0683 4.43885L18.2333 9.81635L18.132 10.0076C18.0083 10.1651 17.817 10.2663 17.6033 10.2663C17.4908 10.2663 17.3783 10.2326 17.2883 10.1876C17.2545 10.1763 17.2208 10.1538 17.1983 10.1313C17.187 10.1313 17.187 10.1201 17.187 10.1201C17.1758 10.1088 17.1533 10.0863 17.1308 10.0751C16.3433 9.3776 15.4095 8.84885 14.4083 8.51135C14.352 8.48885 14.2845 8.4776 14.217 8.4551C14.2058 8.4551 14.2058 8.44385 14.1945 8.44385C14.1608 8.42135 14.1158 8.39885 14.082 8.37635L13.9808 8.2751V8.26385L13.9695 8.2526L13.8795 8.08385V8.0726L12.732 5.9576V5.94635L12.6308 5.76635C12.6083 5.69885 12.597 5.6201 12.597 5.54135C12.597 5.4176 12.6308 5.3051 12.687 5.2151C12.6983 5.20385 12.6983 5.18135 12.7208 5.1701L13.4858 3.8201V3.80885L13.5983 3.6176L13.6883 3.5276L13.6995 3.51635C13.722 3.49385 13.7558 3.47135 13.7895 3.4601C13.8458 3.42635 13.902 3.40385 13.9695 3.3926C13.992 3.38135 14.0145 3.38135 14.037 3.38135H20.6295C20.6408 3.38135 20.6633 3.38135 20.6745 3.3926C20.6858 3.3926 20.6858 3.3926 20.697 3.40385C20.7758 3.42635 20.8545 3.44885 20.9108 3.49385C20.922 3.49385 20.922 3.5051 20.922 3.5051C21.0345 3.58385 21.1133 3.6851 21.1583 3.80885C21.1583 3.8876 21.1808 3.9776 21.1808 4.05635ZM12.327 7.47635V7.4876C12.3158 7.85885 12.0233 8.15135 11.652 8.15135H11.6295C9.89703 8.2301 8.24328 8.89385 6.94953 10.0301C6.91578 10.0638 6.88203 10.0863 6.83703 10.1201C6.72453 10.1876 6.60078 10.2326 6.46578 10.2326C6.35328 10.2326 6.24078 10.1988 6.15078 10.1538C6.11703 10.1313 6.07203 10.1088 6.03828 10.0863C5.99328 10.0526 5.94828 10.0076 5.92578 9.9626L5.84703 9.81635V9.8051L2.96703 4.46135V4.4501L2.86578 4.2701C2.84328 4.2026 2.83203 4.12385 2.83203 4.0451C2.83203 3.8876 2.88828 3.74135 2.97828 3.6176L3.06828 3.5276L3.07953 3.51635C3.15828 3.4601 3.24828 3.4151 3.33828 3.3926H10.0208C10.1108 3.4151 10.1895 3.44885 10.257 3.49385C10.2683 3.49385 10.2683 3.5051 10.2683 3.5051C10.347 3.56135 10.4033 3.6176 10.4483 3.69635L10.5045 3.80885L12.1808 7.0376L12.192 7.04885V7.0601L12.2145 7.1051L12.2708 7.2176V7.22885L12.282 7.25135L12.2933 7.2626C12.3158 7.3301 12.327 7.3976 12.327 7.47635ZM12.0008 9.1076C8.27703 9.1076 5.25078 12.1338 5.25078 15.8576C5.25078 19.5813 8.27703 22.6076 12.0008 22.6076C15.7245 22.6076 18.7508 19.5813 18.7508 15.8576C18.7508 12.1226 15.7245 9.1076 12.0008 9.1076ZM14.5095 19.4688L12.0008 18.1413L9.49203 19.4576L9.97578 16.6563L7.93953 14.6876L10.752 14.2826L12.0008 11.7401L13.2608 14.2826L16.0733 14.6876L14.037 16.6676L14.5095 19.4688Z" fill="url(#paint0_linear_292_14804)"/>
<defs>
<linearGradient id="paint0_linear_292_14804" x1="2.83203" y1="10.9162" x2="21.1808" y2="10.9162" gradientUnits="userSpaceOnUse">
<stop stop-color="#B408D7"/>
<stop offset="1" stop-color="#576AF4"/>
</linearGradient>
</defs>
</svg>
