<svg width="24" height="24" viewBox="0 0 24 24" fill="none" xmlns="http://www.w3.org/2000/svg">
<path d="M10 9.5C10 9.77614 9.77614 10 9.5 10H2.5C2.22386 10 2 9.77614 2 9.5V2.55325C2 2.27711 2.22386 2.05325 2.5 2.05325H9.5C9.77614 2.05325 10 2.27711 10 2.55325V9.5ZM17.1727 10.4492C16.9775 10.6445 16.6609 10.6445 16.4656 10.4492L12.8026 6.78618C12.6073 6.59092 12.6073 6.27434 12.8026 6.07907L16.4656 2.41602C16.6609 2.22076 16.9775 2.22076 17.1727 2.41602L20.8358 6.07907C21.0311 6.27434 21.0311 6.59092 20.8358 6.78618L17.1727 10.4492ZM10 20.5C10 20.7761 9.77614 21 9.5 21H2.5C2.22386 21 2 20.7761 2 20.5V13.5532C2 13.2771 2.22386 13.0532 2.5 13.0532H9.5C9.77614 13.0532 10 13.2771 10 13.5532V20.5ZM21 20.5C21 20.7761 20.7761 21 20.5 21H13.5C13.2239 21 13 20.7761 13 20.5V13.5546C13 13.2785 13.2239 13.0546 13.5 13.0546H20.5C20.7761 13.0546 21 13.2785 21 13.5546V20.5Z" fill="url(#paint0_linear_346_15702)"/>
<defs>
<linearGradient id="paint0_linear_346_15702" x1="2" y1="9.47858" x2="21.1893" y2="9.47858" gradientUnits="userSpaceOnUse">
<stop stop-color="#B408D7"/>
<stop offset="1" stop-color="#576AF4"/>
</linearGradient>
</defs>
</svg>
