<svg width="24" height="24" viewBox="0 0 24 24" fill="none" xmlns="http://www.w3.org/2000/svg">
<path d="M2.275 10.1944L6.475 5.99443C6.70835 5.76108 6.98335 5.59443 7.3 5.49443C7.61665 5.39443 7.94165 5.37778 8.275 5.44443L10.2 5.79443C9.28335 6.82778 8.54165 7.80693 7.975 8.73193C7.40835 9.65693 6.88335 10.7361 6.4 11.9694L2.275 10.1944ZM7.325 12.4194C7.775 11.2028 8.34165 10.0569 9.025 8.98193C9.70835 7.90693 10.4834 6.93608 11.35 6.06943C12.8167 4.60275 14.4917 3.50692 16.375 2.78192C18.2584 2.05692 20.0166 1.83609 21.65 2.11942C21.9333 3.75275 21.7167 5.51108 21 7.39443C20.2833 9.27778 19.1917 10.9528 17.725 12.4194C16.8583 13.2861 15.8834 14.0611 14.8 14.7444C13.7167 15.4278 12.5667 15.9944 11.35 16.4444L7.325 12.4194ZM14.475 9.29443C14.8084 9.62778 15.2209 9.79443 15.7125 9.79443C16.2042 9.79443 16.6166 9.62778 16.95 9.29443C17.2833 8.96108 17.45 8.54858 17.45 8.05693C17.45 7.56528 17.2833 7.15278 16.95 6.81943C16.6166 6.48608 16.2042 6.31943 15.7125 6.31943C15.2209 6.31943 14.8084 6.48608 14.475 6.81943C14.1417 7.15278 13.975 7.56528 13.975 8.05693C13.975 8.54858 14.1417 8.96108 14.475 9.29443ZM13.6 21.4944L11.8 17.3694C13.0333 16.8861 14.1125 16.3611 15.0375 15.7944C15.9625 15.2278 16.9416 14.4861 17.975 13.5694L18.325 15.4944C18.3916 15.8278 18.375 16.1569 18.275 16.4819C18.175 16.8069 18.0084 17.0861 17.775 17.3194L13.6 21.4944ZM3.875 15.6694C4.45833 15.0861 5.16665 14.7903 6 14.7819C6.83335 14.7736 7.54165 15.0611 8.125 15.6444C8.70835 16.2278 9 16.9361 9 17.7694C9 18.6028 8.70835 19.3111 8.125 19.8944C7.69165 20.3278 7.01665 20.6861 6.1 20.9694C5.18335 21.2528 3.81667 21.5194 2 21.7694C2.25 19.9528 2.51666 18.5903 2.8 17.6819C3.08333 16.7736 3.44166 16.1028 3.875 15.6694Z" fill="url(#paint0_linear_292_14700)"/>
<defs>
<linearGradient id="paint0_linear_292_14700" x1="2" y1="9.74777" x2="21.7704" y2="9.74777" gradientUnits="userSpaceOnUse">
<stop stop-color="#B408D7"/>
<stop offset="1" stop-color="#576AF4"/>
</linearGradient>
</defs>
</svg>
