<svg width="30" height="30" viewBox="0 0 30 30" fill="none" xmlns="http://www.w3.org/2000/svg">
<g clip-path="url(#clip0_188_14657)">
<path d="M29.9757 14.9947C29.9757 23.238 23.2937 29.9201 15.0504 29.9201C6.80739 29.9201 0.125 23.238 0.125 14.9947C0.125 6.75157 6.80739 0.069336 15.0504 0.0693359C23.2937 0.0693359 29.9757 6.75157 29.9757 14.9947Z" fill="#1BA27A"/>
<path d="M22.0508 7.59521H7.91797V11.0072H13.2784V16.0221H16.6904V11.0072H22.0508V7.59521Z" fill="white"/>
<path d="M15.0217 16.5552C10.5874 16.5552 6.99228 15.8534 6.99228 14.9875C6.99228 14.1219 10.5872 13.4199 15.0217 13.4199C19.456 13.4199 23.0509 14.1219 23.0509 14.9875C23.0509 15.8534 19.456 16.5552 15.0217 16.5552ZM24.0374 15.2489C24.0374 14.1325 20.0009 13.2275 15.0217 13.2275C10.0426 13.2275 6.00586 14.1325 6.00586 15.2489C6.00586 16.232 9.13586 17.0511 13.2835 17.2326V24.4317H16.6951V17.2354C20.8747 17.0596 24.0374 16.2371 24.0374 15.2489Z" fill="white"/>
</g>
<defs>
<clipPath id="clip0_188_14657">
<rect width="30" height="30" fill="white"/>
</clipPath>
</defs>
</svg>
