<svg width="16" height="16" viewBox="0 0 16 16" fill="none" xmlns="http://www.w3.org/2000/svg">
<path d="M14.9335 3.69431L11.7471 1.02105L10.856 2.08202L14.0424 4.75528L14.9335 3.69431ZM5.14194 2.07855L4.25087 1.01758L1.06445 3.69084L1.95554 4.75181L5.14194 2.07855ZM8.34569 5.27536H7.30552V9.43606L10.5959 11.4159L11.1195 10.5595L8.34569 8.91598V5.27536ZM7.9955 2.50156C4.54558 2.50156 1.7579 5.29617 1.7579 8.74263C1.7579 12.1891 4.54558 14.9837 7.9955 14.9837C11.4454 14.9837 14.24 12.1891 14.24 8.74263C14.24 5.29617 11.4454 2.50156 7.9955 2.50156ZM7.99897 13.5968C5.31878 13.5968 3.1448 11.4228 3.1448 8.74261C3.1448 6.06241 5.31877 3.88845 7.99897 3.88845C10.6792 3.88845 12.8531 6.06241 12.8531 8.74261C12.8531 11.4228 10.6826 13.5968 7.99897 13.5968Z" fill="white"/>
</svg>
