<svg width="40" height="40" viewBox="0 0 40 40" fill="none" xmlns="http://www.w3.org/2000/svg">
<rect width="40" height="40" rx="8" fill="#576AF4"/>
<path d="M19.585 23.75H20.4199C20.8799 23.75 21.252 24.1221 21.252 24.582V25.833C21.252 26.293 20.8799 26.665 20.4199 26.665H19.585C19.125 26.665 18.7529 26.293 18.7529 25.833V24.582C18.75 24.1221 19.125 23.75 19.585 23.75ZM19.585 12.916H20.4199C20.8799 12.916 21.252 13.2881 21.252 13.748V14.999C21.252 15.459 20.8799 15.8311 20.4199 15.8311H19.585C19.125 15.8311 18.7529 15.459 18.7529 14.999V13.748C18.75 13.291 19.125 12.916 19.585 12.916ZM17.9883 22.1914C17.9883 22.9297 18.8174 23.6357 20.1211 23.6357C21.4219 23.6357 22.0547 23.0732 22.0547 22.1562C22.0547 21.3887 21.5332 21.0723 20.0215 20.9082C17.4961 20.6299 16.0547 19.7451 16.0547 17.7471V17.4395C16.0547 15.4707 17.5254 14.167 19.96 14.167C22.3389 14.167 23.9355 15.6816 23.9355 17.583C23.9355 18.0107 23.5869 18.3623 23.1563 18.3623H22.6143C22.1865 18.3623 21.835 18.0137 21.835 17.583C21.835 16.792 21.1992 16.1562 19.957 16.1562C18.7031 16.1562 18.1699 16.6338 18.1699 17.5273C18.1699 18.3857 18.7412 18.7285 20.291 18.9014C22.8105 19.1738 24.1699 19.9502 24.1699 21.9365V22.2969C24.1699 24.2393 22.5615 25.6221 20.1211 25.6221C17.6484 25.6221 15.8379 24.1396 15.8379 22.1885C15.8379 21.7607 16.1865 21.4092 16.6172 21.4092H17.2148C17.6367 21.415 17.9883 21.7637 17.9883 22.1914ZM20.001 32.501C13.0986 32.501 7.5 26.9053 7.5 20C7.5 13.0947 13.0986 7.49902 20.001 7.49902C26.9033 7.49902 32.502 13.0947 32.502 20C32.502 26.9053 26.9033 32.501 20.001 32.501ZM20.001 30.418C25.7549 30.418 30.4189 25.7539 30.4189 20C30.4189 14.2461 25.7549 9.58203 20.001 9.58203C14.2471 9.58203 9.58301 14.2461 9.58301 20C9.58301 25.7539 14.2471 30.418 20.001 30.418Z" fill="white"/>
</svg>
