<svg width="40" height="40" viewBox="0 0 40 40" fill="none" xmlns="http://www.w3.org/2000/svg">
<rect width="40" height="40" rx="8" fill="#576AF4"/>
<path d="M28.218 32.3544H11.7945C9.64353 32.3544 7.89453 30.6054 7.89453 28.4544V12.0309C7.89453 9.87986 9.64353 8.13086 11.7945 8.13086H28.218C30.369 8.13086 32.118 9.87986 32.118 12.0309V28.4544C32.118 30.6054 30.369 32.3544 28.218 32.3544ZM11.7945 9.93086C10.6365 9.93086 9.69453 10.8729 9.69453 12.0309V28.4544C9.69453 29.6124 10.6365 30.5544 11.7945 30.5544H28.218C29.376 30.5544 30.318 29.6124 30.318 28.4544V12.0309C30.318 10.8729 29.376 9.93086 28.218 9.93086H11.7945Z" fill="white"/>
<path d="M17.8042 15.7834H11.9977C11.5012 15.7834 11.0977 15.3799 11.0977 14.8834C11.0977 14.3869 11.5012 13.9834 11.9977 13.9834H17.8042C18.3007 13.9834 18.7042 14.3869 18.7042 14.8834C18.7042 15.3799 18.3007 15.7834 17.8042 15.7834ZM27.8152 22.6249H22.0102C21.5137 22.6249 21.1102 22.2214 21.1102 21.7249C21.1102 21.2284 21.5137 20.8249 22.0102 20.8249H27.8152C28.3117 20.8249 28.7152 21.2284 28.7152 21.7249C28.7152 22.2214 28.3117 22.6249 27.8152 22.6249Z" fill="white"/>
<path d="M27.8157 14.7648H25.8132V12.7623C25.8132 12.2658 25.4097 11.8623 24.9132 11.8623C24.4167 11.8623 24.0132 12.2658 24.0132 12.7623V14.7648H22.0107C21.5142 14.7648 21.1107 15.1683 21.1107 15.6648C21.1107 16.1613 21.5142 16.5648 22.0107 16.5648H24.0132V18.5673C24.0132 19.0638 24.4167 19.4673 24.9132 19.4673C25.4097 19.4673 25.8132 19.0638 25.8132 18.5673V16.5648H27.8157C28.3122 16.5648 28.7157 16.1613 28.7157 15.6648C28.7157 15.1683 28.3122 14.7648 27.8157 14.7648ZM17.7297 21.3558C17.3787 21.0048 16.8087 21.0048 16.4562 21.3558L14.7477 23.0643L13.0407 21.3558C12.6897 21.0048 12.1197 21.0048 11.7672 21.3558C11.4162 21.7068 11.4162 22.2768 11.7672 22.6293L13.4757 24.3378L11.7687 26.0448C11.4177 26.3958 11.4177 26.9658 11.7687 27.3183C11.8521 27.4019 11.9513 27.4683 12.0604 27.5135C12.1695 27.5588 12.2865 27.5821 12.4047 27.5821C12.5228 27.5821 12.6398 27.5588 12.7489 27.5135C12.8581 27.4683 12.9572 27.4019 13.0407 27.3183L14.7492 25.6098L16.4577 27.3183C16.5411 27.4019 16.6403 27.4683 16.7494 27.5135C16.8585 27.5588 16.9755 27.5821 17.0937 27.5821C17.2118 27.5821 17.3288 27.5588 17.4379 27.5135C17.5471 27.4683 17.6462 27.4019 17.7297 27.3183C18.0807 26.9673 18.0807 26.3973 17.7297 26.0448L16.0212 24.3363L17.7297 22.6278C17.8134 22.5444 17.8799 22.4453 17.9253 22.3362C17.9707 22.227 17.994 22.11 17.994 21.9918C17.994 21.8736 17.9707 21.7566 17.9253 21.6474C17.8799 21.5383 17.8134 21.4392 17.7297 21.3558Z" fill="white"/>
<path d="M27.8144 27.2463H22.0094C21.5129 27.2463 21.1094 26.8428 21.1094 26.3463C21.1094 25.8498 21.5129 25.4463 22.0094 25.4463H27.8144C28.3109 25.4463 28.7144 25.8498 28.7144 26.3463C28.7144 26.8428 28.3109 27.2463 27.8144 27.2463Z" fill="white"/>
</svg>
