<svg width="40" height="40" viewBox="0 0 40 40" fill="none" xmlns="http://www.w3.org/2000/svg">
<rect width="40" height="40" rx="8" fill="#576AF4"/>
<path d="M30.121 16.6044C29.9071 16.6044 29.6903 16.5282 29.5204 16.37L22.41 9.34758C22.0438 9.01652 22.0174 8.45402 22.3514 8.08488C22.6854 7.71574 23.245 7.6923 23.6141 8.02629L30.7215 15.0487C31.0878 15.3798 31.1141 15.9423 30.7801 16.3114C30.6044 16.5077 30.3612 16.6044 30.121 16.6044Z" fill="white"/>
<path d="M29.5283 16.1357H24.7617C23.6104 16.1357 22.6787 15.1982 22.6787 14.0527V9.2832C22.6787 8.78809 23.0801 8.38965 23.5723 8.38965C24.0674 8.38965 24.4658 8.79102 24.4658 9.2832V14.0469C24.4658 14.2139 24.6035 14.3457 24.7646 14.3457H29.5283C30.0234 14.3457 30.4219 14.7471 30.4219 15.2393C30.4189 15.7373 30.0205 16.1357 29.5283 16.1357ZM25.3564 26.8496H14.6396C14.1445 26.8496 13.7461 26.4482 13.7461 25.9561C13.7461 25.4639 14.1475 25.0625 14.6396 25.0625H25.3564C25.8516 25.0625 26.25 25.4639 26.25 25.9561C26.25 26.4482 25.8516 26.8496 25.3564 26.8496ZM25.3564 21.4941H14.6396C14.1445 21.4941 13.7461 21.0928 13.7461 20.6006C13.7461 20.1084 14.1475 19.707 14.6396 19.707H25.3564C25.8516 19.707 26.25 20.1084 26.25 20.6006C26.25 21.0928 25.8516 21.4941 25.3564 21.4941Z" fill="white"/>
<path d="M28.9268 32.2051H11.0674C9.91602 32.2051 8.98438 31.2705 8.98438 30.1221V9.88086C8.98438 8.72949 9.91895 7.79785 11.0674 7.79785H23.0088C23.5039 7.79785 23.9023 8.19922 23.9023 8.69141C23.9023 9.18359 23.501 9.58496 23.0088 9.58496H11.0674C10.9004 9.58496 10.7686 9.7168 10.7686 9.88379V30.125C10.7686 30.292 10.9004 30.4238 11.0674 30.4238H28.9268C29.0938 30.4238 29.2256 30.292 29.2256 30.125V15.8252C29.2256 15.3301 29.627 14.9316 30.1191 14.9316C30.6113 14.9316 31.0127 15.333 31.0127 15.8252V30.1221C31.0127 31.2734 30.0781 32.2051 28.9268 32.2051Z" fill="white"/>
</svg>
