<svg width="40" height="40" viewBox="0 0 40 40" fill="none" xmlns="http://www.w3.org/2000/svg">
<rect width="40" height="40" rx="8" fill="#6357F4"/>
<path d="M30.8164 20.0022C30.8152 19.6791 30.7297 19.3619 30.5682 19.082C30.4067 18.8021 30.1749 18.5693 29.8957 18.4066L28.107 17.3397L29.8957 16.2728C30.1756 16.1109 30.4079 15.8782 30.5695 15.5982C30.731 15.3181 30.8162 15.0005 30.8164 14.6772C30.8152 14.3541 30.7297 14.0369 30.5682 13.757C30.4067 13.4771 30.1749 13.2443 29.8957 13.0816L21.3157 7.96847C21.0167 7.79046 20.6763 7.69371 20.3284 7.68779C19.9804 7.68187 19.6369 7.76699 19.332 7.93472L10.1614 12.9916C9.86752 13.1478 9.62146 13.3808 9.44931 13.6656C9.27716 13.9504 9.18535 14.2766 9.18362 14.6094C9.18189 14.9422 9.2703 15.2692 9.43948 15.5559C9.60866 15.8425 9.85229 16.0779 10.1445 16.2372L12.0157 17.291L10.1614 18.3147C9.86757 18.4713 9.6216 18.7044 9.44953 18.9893C9.27745 19.2743 9.18569 19.6005 9.18396 19.9334C9.18223 20.2663 9.2706 20.5935 9.4397 20.8802C9.6088 21.167 9.85234 21.4026 10.1445 21.5622L12.0176 22.6178L10.1614 23.6416C9.86761 23.798 9.62169 24.0311 9.44971 24.316C9.27772 24.6009 9.1861 24.9271 9.18456 25.2599C9.18302 25.5927 9.27163 25.9198 9.44097 26.2063C9.61031 26.4928 9.85407 26.7281 10.1464 26.8872L19.3207 32.0547C19.6269 32.2269 19.9729 32.3155 20.3241 32.3115C20.6753 32.3076 21.0192 32.2112 21.3214 32.0322L29.8957 26.9228C30.1753 26.7606 30.4074 26.5278 30.569 26.2479C30.7305 25.9679 30.8158 25.6504 30.8164 25.3272C30.8158 25.0037 30.7304 24.6861 30.5689 24.4058C30.4074 24.1255 30.1753 23.8924 29.8957 23.7297L28.107 22.6647L29.8957 21.5978C30.1749 21.4351 30.4067 21.2023 30.5682 20.9224C30.7297 20.6426 30.8152 20.3253 30.8164 20.0022ZM20.2357 9.57909C20.2357 9.57909 20.2826 9.53784 20.3557 9.58097L28.9357 14.6622L20.2414 19.7735L14.5301 16.5728C14.5001 16.5503 14.4645 16.5391 14.4326 16.5185L11.0651 14.6341L20.2357 9.57909ZM28.9357 25.3103L20.2414 30.4216L11.067 25.2822L13.9376 23.6997L19.3245 26.7335C19.6301 26.9052 19.9756 26.9934 20.3262 26.9891C20.6768 26.9848 21.02 26.8883 21.3214 26.7091L26.277 23.756L28.9357 25.3103ZM20.2414 25.0985L14.5282 21.8978C14.502 21.8753 14.4682 21.866 14.4382 21.8472L11.0651 19.9572L13.9376 18.3747L19.3207 21.4066C19.6266 21.5786 19.9723 21.6671 20.3231 21.6631C20.674 21.6592 21.0176 21.563 21.3195 21.3841L26.277 18.4291L28.9339 19.9872L20.2414 25.0985Z" fill="white"/>
</svg>
