<svg width="40" height="40" viewBox="0 0 40 40" fill="none" xmlns="http://www.w3.org/2000/svg">
<rect width="40" height="40" rx="8" fill="#576AF4"/>
<g clip-path="url(#clip0_133_7740)">
<path d="M25.7577 18.0965L29.193 21.5318C30.1876 22.5518 30.7404 23.9226 30.7314 25.3473C30.7225 26.772 30.1526 28.1358 29.1453 29.1432C28.138 30.1507 26.7742 30.7208 25.3496 30.7299C23.9249 30.739 22.554 30.1865 21.5338 29.192L18.0975 25.7568L16.5646 27.2886L20.0009 30.7238C21.423 32.1461 23.3518 32.9451 25.363 32.9452C27.3743 32.9453 29.3031 32.1465 30.7254 30.7244C32.1476 29.3023 32.9466 27.3735 32.9467 25.3623C32.9468 23.351 32.148 21.4222 30.7259 19.9999L27.2896 16.5636L25.7577 18.0965ZM21.1601 13.4999L22.6919 11.9681L20.0009 9.27493C18.5787 7.85271 16.6497 7.05371 14.6384 7.05371C12.6271 7.05371 10.6981 7.85271 9.27591 9.27493C7.85368 10.6972 7.05469 12.6261 7.05469 14.6374C7.05469 16.6488 7.85368 18.5777 9.27591 19.9999L11.9691 22.692L13.5009 21.1602L10.8088 18.4681C9.81418 17.4481 9.26146 16.0772 9.27039 14.6526C9.27931 13.2279 9.84917 11.8641 10.8565 10.8566C11.8639 9.84913 13.2276 9.27908 14.6522 9.26995C16.0769 9.26082 17.4478 9.81335 18.468 10.8078L21.1622 13.4999H21.1601Z" fill="white"/>
<path d="M13.4652 21.1251C13.6684 21.3283 13.7824 21.604 13.7823 21.8914C13.7822 22.1787 13.668 22.4543 13.4647 22.6574C13.2614 22.8606 12.9858 22.9746 12.6984 22.9745C12.411 22.9744 12.1355 22.8602 11.9323 22.6569C11.8317 22.5562 11.752 22.4368 11.6976 22.3053C11.6432 22.1738 11.6152 22.0329 11.6152 21.8906C11.6153 21.7483 11.6434 21.6074 11.6979 21.476C11.7524 21.3445 11.8322 21.2251 11.9329 21.1245C12.0335 21.0239 12.153 20.9442 12.2845 20.8898C12.416 20.8354 12.5569 20.8074 12.6992 20.8074C12.9865 20.8075 13.2621 20.9218 13.4652 21.1251ZM18.0867 25.7466C18.1873 25.8472 18.2671 25.9667 18.3215 26.0982C18.3759 26.2297 18.4039 26.3706 18.4038 26.5129C18.4038 26.6552 18.3757 26.796 18.3212 26.9275C18.2667 27.0589 18.1869 27.1784 18.0862 27.2789C17.9856 27.3795 17.8661 27.4593 17.7346 27.5137C17.6031 27.5681 17.4622 27.5961 17.3199 27.596C17.1776 27.596 17.0367 27.5679 16.9053 27.5134C16.7738 27.4589 16.6544 27.379 16.5538 27.2784C16.3507 27.0751 16.2366 26.7995 16.2367 26.5121C16.2368 26.2247 16.3511 25.9492 16.5544 25.746C16.7576 25.5429 17.0333 25.4288 17.3207 25.4289C17.608 25.429 17.8836 25.5433 18.0867 25.7466ZM22.6573 11.9319C22.8605 12.1352 22.9745 12.4108 22.9744 12.6982C22.9743 12.9856 22.8601 13.2611 22.6568 13.4643C22.5561 13.5649 22.4367 13.6446 22.3052 13.699C22.1737 13.7534 22.0328 13.7814 21.8905 13.7814C21.6031 13.7813 21.3275 13.667 21.1244 13.4637C20.9213 13.2604 20.8072 12.9848 20.8073 12.6974C20.8074 12.4101 20.9217 12.1345 21.125 11.9314C21.3282 11.7282 21.6039 11.6142 21.8913 11.6143C22.1786 11.6144 22.4542 11.7286 22.6573 11.9319ZM27.2788 16.5545C27.3823 16.6544 27.4648 16.774 27.5216 16.9061C27.5784 17.0383 27.6083 17.1804 27.6095 17.3243C27.6108 17.4681 27.5834 17.6108 27.5289 17.7439C27.4744 17.8771 27.394 17.998 27.2923 18.0997C27.1905 18.2015 27.0696 18.2819 26.9364 18.3364C26.8033 18.3908 26.6607 18.4183 26.5168 18.417C26.373 18.4158 26.2308 18.3859 26.0986 18.3291C25.9665 18.2723 25.8469 18.1898 25.747 18.0863C25.5437 17.8832 25.4295 17.6076 25.4294 17.3202C25.4293 17.0329 25.5433 16.7572 25.7465 16.5539C25.9496 16.3507 26.2252 16.2364 26.5125 16.2363C26.7999 16.2362 27.0756 16.3503 27.2788 16.5534V16.5545Z" fill="white"/>
<path d="M27.5406 11.5253C27.7448 11.7273 27.8605 12.0022 27.8621 12.2894C27.8637 12.5767 27.7512 12.8529 27.5492 13.0572L12.7271 28.0397C12.6276 28.1435 12.5085 28.2265 12.3766 28.2838C12.2448 28.3412 12.1028 28.3717 11.959 28.3736C11.8153 28.3755 11.6726 28.3488 11.5392 28.295C11.4059 28.2412 11.2846 28.1613 11.1824 28.0602C11.0803 27.959 10.9992 27.8385 10.9441 27.7057C10.889 27.5729 10.8608 27.4305 10.8613 27.2867C10.8618 27.1429 10.8909 27.0007 10.9469 26.8682C11.003 26.7358 11.0848 26.6159 11.1877 26.5154L26.0098 11.5329C26.212 11.3288 26.4869 11.2133 26.7742 11.2119C27.0614 11.2105 27.3375 11.3232 27.5417 11.5253H27.5406Z" fill="white"/>
</g>
<defs>
<clipPath id="clip0_133_7740">
<rect width="26" height="26" fill="white" transform="translate(7 7)"/>
</clipPath>
</defs>
</svg>
