<svg width="20" height="21" viewBox="0 0 20 21" fill="none" xmlns="http://www.w3.org/2000/svg">
<path d="M0.275 8.81503L4.475 4.61503C4.70835 4.38168 4.98335 4.21503 5.3 4.11503C5.61665 4.01503 5.94165 3.99838 6.275 4.06503L8.2 4.41503C7.28335 5.44838 6.54165 6.42753 5.975 7.35253C5.40835 8.27753 4.88335 9.35668 4.4 10.59L0.275 8.81503ZM5.325 11.04C5.775 9.82338 6.34165 8.67753 7.025 7.60253C7.70835 6.52753 8.48335 5.55668 9.35 4.69003C10.8167 3.22336 12.4917 2.12753 14.375 1.40253C16.2584 0.677528 18.0166 0.456693 19.65 0.740028C19.9333 2.37336 19.7167 4.13168 19 6.01503C18.2833 7.89838 17.1917 9.57338 15.725 11.04C14.8583 11.9067 13.8834 12.6817 12.8 13.365C11.7167 14.0484 10.5667 14.615 9.35 15.065L5.325 11.04ZM12.475 7.91503C12.8084 8.24838 13.2209 8.41503 13.7125 8.41503C14.2042 8.41503 14.6166 8.24838 14.95 7.91503C15.2833 7.58168 15.45 7.16918 15.45 6.67753C15.45 6.18588 15.2833 5.77338 14.95 5.44003C14.6166 5.10668 14.2042 4.94003 13.7125 4.94003C13.2209 4.94003 12.8084 5.10668 12.475 5.44003C12.1417 5.77338 11.975 6.18588 11.975 6.67753C11.975 7.16918 12.1417 7.58168 12.475 7.91503ZM11.6 20.115L9.8 15.99C11.0333 15.5067 12.1125 14.9817 13.0375 14.415C13.9625 13.8484 14.9416 13.1067 15.975 12.19L16.325 14.115C16.3916 14.4484 16.375 14.7775 16.275 15.1025C16.175 15.4275 16.0084 15.7067 15.775 15.94L11.6 20.115ZM1.875 14.29C2.45833 13.7067 3.16665 13.4109 4 13.4025C4.83335 13.3942 5.54165 13.6817 6.125 14.265C6.70835 14.8484 7 15.5567 7 16.39C7 17.2234 6.70835 17.9317 6.125 18.515C5.69165 18.9484 5.01665 19.3067 4.1 19.59C3.18335 19.8734 1.81667 20.14 0 20.39C0.25 18.5734 0.516665 17.2109 0.8 16.3025C1.08333 15.3942 1.44166 14.7234 1.875 14.29Z" fill="url(#paint0_linear_165_4778)"/>
<defs>
<linearGradient id="paint0_linear_165_4778" x1="0" y1="8.36837" x2="19.7704" y2="8.36837" gradientUnits="userSpaceOnUse">
<stop stop-color="#B408D7"/>
<stop offset="1" stop-color="#576AF4"/>
</linearGradient>
</defs>
</svg>
