<svg width="20" height="16" viewBox="0 0 20 16" fill="none" xmlns="http://www.w3.org/2000/svg">
<path d="M9.92585 7.56983H9.99603C11.6173 7.55111 12.9273 6.2574 12.9273 4.66659V3.69806C12.9273 2.09321 11.5985 0.79248 9.96094 0.79248C8.32333 0.79248 6.99453 2.09321 6.99453 3.69806V4.66659C6.99453 6.2574 8.30462 7.55111 9.92585 7.56983ZM15.6809 7.99326C16.7336 7.99326 17.5875 7.17914 17.5875 6.17786V5.56961C17.5875 4.56599 16.7336 3.75421 15.6809 3.75421C14.6281 3.75421 13.7742 4.56833 13.7742 5.56961V6.17552C13.7742 7.17914 14.6281 7.99326 15.6809 7.99326ZM4.24102 7.99326C5.29376 7.99326 6.14766 7.17914 6.14766 6.17786V5.56961C6.14766 4.56599 5.29376 3.75421 4.24102 3.75421C3.18827 3.75421 2.33438 4.56833 2.33438 5.56961V6.17552C2.33204 7.17914 3.18593 7.99326 4.24102 7.99326ZM1.48984 9.84142C0.989201 10.0964 0.640625 10.6672 0.640625 11.3363V12.0826C0.640625 12.5762 0.926036 12.988 1.31672 13.1236C1.92498 13.2827 2.54727 13.388 3.18359 13.4465V12.1294C3.18359 10.9527 3.60937 9.92096 4.25739 9.26826H4.24102C3.27249 9.26358 2.34373 9.46945 1.48984 9.84142ZM18.4391 9.84376C17.5828 9.46945 16.6541 9.26358 15.6809 9.26358H15.6668C16.3172 9.91862 16.7406 10.9503 16.7406 12.1247V13.4441C17.3746 13.3857 17.9992 13.2804 18.6028 13.1213C18.9935 12.988 19.2836 12.5739 19.2836 12.0779V11.3387C19.2836 10.6696 18.935 10.1011 18.4391 9.84376ZM14.1766 9.7689C12.8665 9.16766 11.4465 8.8378 9.96094 8.8378C8.47773 8.8378 7.06238 9.16766 5.75463 9.76422C4.98964 10.1689 4.45391 11.0837 4.45391 12.1528V13.3459C4.45391 14.1366 4.89138 14.7987 5.48794 15.0139C6.92903 15.4046 8.42393 15.6198 9.96328 15.6198C11.5003 15.6198 12.9928 15.4093 14.4316 15.0162C15.0328 14.8034 15.4703 14.139 15.4703 13.3482V12.1551C15.4703 11.0883 14.9369 10.176 14.1766 9.7689Z" fill="url(#paint0_linear_165_4786)"/>
<defs>
<linearGradient id="paint0_linear_165_4786" x1="0.640625" y1="6.60342" x2="19.2836" y2="6.60342" gradientUnits="userSpaceOnUse">
<stop stop-color="#B408D7"/>
<stop offset="1" stop-color="#576AF4"/>
</linearGradient>
</defs>
</svg>
