<svg width="24" height="25" viewBox="0 0 24 25" fill="none" xmlns="http://www.w3.org/2000/svg">
<path d="M11.9258 11.5698H11.996C13.6173 11.5511 14.9273 10.2574 14.9273 8.66659V7.69806C14.9273 6.09321 13.5985 4.79248 11.9609 4.79248C10.3233 4.79248 8.99453 6.09321 8.99453 7.69806V8.66659C8.99453 10.2574 10.3046 11.5511 11.9258 11.5698ZM17.6809 11.9933C18.7336 11.9933 19.5875 11.1791 19.5875 10.1779V9.56961C19.5875 8.56599 18.7336 7.75421 17.6809 7.75421C16.6281 7.75421 15.7742 8.56833 15.7742 9.56961V10.1755C15.7742 11.1791 16.6281 11.9933 17.6809 11.9933ZM6.24102 11.9933C7.29376 11.9933 8.14766 11.1791 8.14766 10.1779V9.56961C8.14766 8.56599 7.29376 7.75421 6.24102 7.75421C5.18827 7.75421 4.33438 8.56833 4.33438 9.56961V10.1755C4.33204 11.1791 5.18593 11.9933 6.24102 11.9933ZM3.48984 13.8414C2.9892 14.0964 2.64062 14.6672 2.64062 15.3363V16.0826C2.64062 16.5762 2.92604 16.988 3.31672 17.1236C3.92498 17.2827 4.54727 17.388 5.18359 17.4465V16.1294C5.18359 14.9527 5.60937 13.921 6.25739 13.2683H6.24102C5.27249 13.2636 4.34373 13.4694 3.48984 13.8414ZM20.4391 13.8438C19.5828 13.4694 18.6541 13.2636 17.6809 13.2636H17.6668C18.3172 13.9186 18.7406 14.9503 18.7406 16.1247V17.4441C19.3746 17.3857 19.9992 17.2804 20.6028 17.1213C20.9935 16.988 21.2836 16.5739 21.2836 16.0779V15.3387C21.2836 14.6696 20.935 14.1011 20.4391 13.8438ZM16.1766 13.7689C14.8665 13.1677 13.4465 12.8378 11.9609 12.8378C10.4777 12.8378 9.06238 13.1677 7.75463 13.7642C6.98964 14.1689 6.45391 15.0837 6.45391 16.1528V17.3459C6.45391 18.1366 6.89138 18.7987 7.48794 19.0139C8.92903 19.4046 10.4239 19.6198 11.9633 19.6198C13.5003 19.6198 14.9928 19.4093 16.4316 19.0162C17.0328 18.8034 17.4703 18.139 17.4703 17.3482V16.1551C17.4703 15.0883 16.9369 14.176 16.1766 13.7689Z" fill="white" fill-opacity="0.7"/>
</svg>
