<svg width="21" height="23" viewBox="0 0 21 23" fill="none" xmlns="http://www.w3.org/2000/svg">
<path d="M16.043 5.74268C15.6297 6.25678 15.3818 6.90962 15.3818 7.62061C15.3819 9.27743 16.725 10.6206 18.3818 10.6206C18.4707 10.6206 18.5586 10.6155 18.6455 10.6079V13.1323C18.5586 13.1248 18.4707 13.1206 18.3818 13.1206C16.725 13.1206 15.3818 14.4638 15.3818 16.1206C15.3819 16.831 15.6302 17.4827 16.043 17.9966L13.2119 19.6313C12.8029 18.4611 11.6917 17.6206 10.3818 17.6206C9.1626 17.6206 8.11478 18.3486 7.64551 19.3931L5.22168 17.9937C5.63334 17.4801 5.88182 16.83 5.88184 16.1206C5.88184 14.4638 4.53866 13.1206 2.88184 13.1206C2.79529 13.1206 2.70968 13.1251 2.625 13.1323V10.6079C2.70971 10.6151 2.79527 10.6206 2.88184 10.6206C4.53864 10.6206 5.8818 9.27741 5.88184 7.62061C5.88184 6.91066 5.63391 6.25937 5.22168 5.74561L7.85156 4.22705C8.3839 5.06375 9.3167 5.62058 10.3818 5.62061C11.5372 5.62061 12.5378 4.96641 13.0391 4.00928L16.043 5.74268ZM10.585 9.31982C10.3088 9.31982 10.085 9.54368 10.085 9.81982V11.3198H8.58496C8.30882 11.3198 8.08496 11.5437 8.08496 11.8198C8.08496 12.096 8.30882 12.3198 8.58496 12.3198H10.085V13.8198C10.085 14.096 10.3088 14.3198 10.585 14.3198C10.8611 14.3198 11.085 14.096 11.085 13.8198V12.3198H12.585C12.8611 12.3198 13.085 12.096 13.085 11.8198C13.085 11.5437 12.8611 11.3198 12.585 11.3198H11.085V9.81982C11.085 9.54368 10.8611 9.31982 10.585 9.31982Z" fill="white" fill-opacity="0.7"/>
<circle cx="10.3868" cy="2.62055" r="1.61334" fill="white" fill-opacity="0.7"/>
<circle cx="18.3868" cy="16.1205" r="1.61334" fill="white" fill-opacity="0.7"/>
<circle cx="18.3868" cy="7.62055" r="1.61334" fill="white" fill-opacity="0.7"/>
<circle cx="2.88672" cy="7.62067" r="1.5" fill="white" fill-opacity="0.7"/>
<circle cx="2.88678" cy="16.1205" r="1.50006" fill="white" fill-opacity="0.7"/>
<circle cx="10.3868" cy="20.6205" r="1.61334" fill="white" fill-opacity="0.7"/>
</svg>
