<svg width="18" height="17" viewBox="0 0 18 17" fill="none" xmlns="http://www.w3.org/2000/svg">
<path d="M9.67036 13.6172V14.9254H14.504C14.8677 14.9254 15.1625 15.2202 15.1625 15.5838C15.1625 15.9475 14.8677 16.2423 14.504 16.2423H3.51976C3.15609 16.2423 2.86128 15.9475 2.86128 15.5838C2.86128 15.2202 3.15609 14.9254 3.51976 14.9254H8.35342V13.6172H0.533317C0.397955 13.6168 0.268268 13.5627 0.172689 13.4669C0.0771097 13.371 0.023437 13.2412 0.0234375 13.1058V0.94738C0.0234375 0.664761 0.250698 0.4375 0.533317 0.4375H17.4905C17.7731 0.4375 18.0018 0.664761 18.0018 0.94738V13.1073C18.0014 13.2426 17.9474 13.3723 17.8515 13.4679C17.7557 13.5635 17.6258 13.6172 17.4905 13.6172H9.67036ZM5.21986 7.46656C4.73471 7.46656 4.34141 7.85985 4.34141 8.34501V10.1019C4.34141 10.5871 4.73471 10.9804 5.21986 10.9804C5.70502 10.9804 6.09831 10.5871 6.09831 10.1019V8.34501C6.09831 7.85985 5.70502 7.46656 5.21986 7.46656ZM8.8808 5.70674C8.39484 5.70674 8.00089 6.10069 8.00089 6.58665V10.1005C8.00089 10.5864 8.39484 10.9804 8.8808 10.9804C9.36676 10.9804 9.76071 10.5864 9.76071 10.1004V6.58665C9.76071 6.10069 9.36676 5.70674 8.8808 5.70674ZM12.541 3.06994C12.0555 3.06994 11.6618 3.46356 11.6618 3.94911V10.1012C11.6618 10.5867 12.0555 10.9804 12.541 10.9804C13.0266 10.9804 13.4202 10.5867 13.4202 10.1012V3.94911C13.4202 3.46356 13.0266 3.06994 12.541 3.06994Z" fill="url(#paint0_linear_165_4774)"/>
<defs>
<linearGradient id="paint0_linear_165_4774" x1="0.0234375" y1="6.63151" x2="18.0018" y2="6.63151" gradientUnits="userSpaceOnUse">
<stop stop-color="#B408D7"/>
<stop offset="1" stop-color="#576AF4"/>
</linearGradient>
</defs>
</svg>
