<svg width="30" height="30" viewBox="0 0 30 30" fill="none" xmlns="http://www.w3.org/2000/svg">
<path d="M24.5652 7.65758C27.6533 12.1721 29.1978 17.237 28.6364 23.0921C28.6364 23.0921 28.6364 23.1375 28.5894 23.1375C26.5303 24.65 24.1917 25.8075 21.711 26.5408C21.6651 26.5867 21.6651 26.5408 21.6182 26.5408C21.1037 25.8075 20.635 25.0739 20.2145 24.2833C20.2145 24.2375 20.2145 24.2379 20.2145 24.1921L20.2615 24.1462C21.0097 23.8712 21.711 23.55 22.4134 23.1375C22.4134 23.1375 22.4604 23.138 22.4604 23.0921C22.4604 23.0463 22.4604 23.0462 22.4134 23.0004C22.2724 22.9087 22.1326 22.8167 21.9917 22.6792C21.9459 22.6792 21.9459 22.6792 21.8989 22.6792C17.4542 24.6959 12.5879 24.6959 8.09624 22.6792C8.04926 22.6792 8.00228 22.6792 8.00228 22.6792C7.86249 22.8167 7.72155 22.9087 7.58176 23.0004C7.53478 23.0462 7.53478 23.0463 7.53478 23.0921C7.53478 23.138 7.53478 23.1375 7.58176 23.1375C8.23717 23.55 8.98541 23.8712 9.73363 24.1462C9.73363 24.1462 9.73363 24.1921 9.78061 24.1921C9.78061 24.2379 9.78061 24.2375 9.78061 24.2833C9.36009 25.0739 8.89144 25.8075 8.37697 26.5408C8.32999 26.5408 8.28301 26.5867 8.28301 26.5408C5.80343 25.8075 3.4648 24.65 1.40574 23.1375C1.35876 23.1375 1.35876 23.0921 1.35876 23.0921C0.891264 18.0276 1.87323 12.9169 5.42989 7.65758C5.42989 7.65758 5.4299 7.65758 5.47573 7.65758C7.25406 6.83258 9.1252 6.28261 11.0445 5.96178C11.0903 5.91594 11.1373 5.96178 11.1373 5.96178C11.418 6.42011 11.6517 6.92398 11.8397 7.38231C13.9446 7.06148 16.0506 7.06148 18.1555 7.38231C18.3422 6.92398 18.5771 6.42011 18.8579 5.96178C18.8579 5.96178 18.9037 5.91594 18.9507 5.96178C20.8688 6.28261 22.7411 6.83258 24.5183 7.65758C24.5652 7.65758 24.5652 7.65758 24.5652 7.65758ZM10.436 20.0094C11.7927 20.0094 12.9156 18.7606 12.9156 17.2824C12.9156 15.7699 11.8397 14.5667 10.436 14.5667C9.07936 14.5667 7.95644 15.7699 7.95644 17.2824C7.95644 18.7606 9.07936 20.0094 10.436 20.0094ZM19.5591 20.0094C20.9628 20.0094 22.0387 18.7606 22.0387 17.2824C22.0857 15.7699 20.9628 14.5667 19.5591 14.5667C18.2025 14.5667 17.1265 15.7699 17.1265 17.2824C17.1265 18.7606 18.2025 20.0094 19.5591 20.0094Z" fill="#161616"/>
</svg>
