<svg width="24" height="25" viewBox="0 0 24 25" fill="none" xmlns="http://www.w3.org/2000/svg">
<path d="M14.5459 9.57764C17.2412 9.57764 19.4985 11.4537 20.083 13.9712L20.5127 13.6431C20.7983 13.4245 21.2072 13.4786 21.4258 13.7642C21.6444 14.0498 21.5904 14.4586 21.3047 14.6772L20.292 15.4517C19.5107 14.8176 18.5153 14.4371 17.4307 14.437C14.9203 14.437 12.8848 16.4725 12.8848 18.9829C12.8848 19.686 13.045 20.3516 13.3301 20.9458H9.27539V21.5698C9.27539 21.8207 9.07212 22.0247 8.82129 22.0249H7.23926C6.89008 22.0249 6.57145 21.8248 6.41992 21.5103L5.46191 19.52C4.98629 19.0992 4.58091 18.5999 4.26758 18.0425L2.40527 16.8823C2.13878 16.7163 1.97656 16.4248 1.97656 16.1108V13.8218C1.97682 13.5711 2.17999 13.3679 2.43066 13.3677H3.86523C4.07801 12.7655 4.38969 12.2099 4.78027 11.7202L3.77832 9.98682C3.6735 9.80511 3.80487 9.57782 4.01465 9.57764H14.5459ZM7.24609 12.9956C6.62597 12.9956 6.12305 13.4985 6.12305 14.1187C6.12316 14.7387 6.62603 15.2417 7.24609 15.2417C7.86606 15.2416 8.36903 14.7386 8.36914 14.1187C8.36914 13.4986 7.86613 12.9957 7.24609 12.9956Z" fill="url(#paint0_linear_165_4820)"/>
<g clip-path="url(#clip0_165_4820)">
<path d="M17.4403 15.8687C17.6336 15.8687 17.825 15.9067 18.0036 15.9807C18.1822 16.0547 18.3444 16.1631 18.4811 16.2998C18.6178 16.4364 18.7262 16.5987 18.8002 16.7773C18.8741 16.9558 18.9122 17.1472 18.9122 17.3405L18.912 17.7734H19.6857C19.7539 17.7734 19.8215 17.7869 19.8845 17.813C19.9475 17.8391 20.0048 17.8773 20.053 17.9256C20.1013 17.9738 20.1395 18.0311 20.1656 18.0941C20.1918 18.1571 20.2052 18.2247 20.2052 18.2929V21.4098C20.2052 21.478 20.1918 21.5455 20.1656 21.6086C20.1395 21.6716 20.1013 21.7289 20.053 21.7771C20.0048 21.8253 19.9475 21.8636 19.8845 21.8897C19.8215 21.9158 19.7539 21.9293 19.6857 21.9293H15.1835C15.1153 21.9293 15.0478 21.9158 14.9847 21.8897C14.9217 21.8636 14.8645 21.8253 14.8162 21.7771C14.768 21.7289 14.7297 21.6716 14.7036 21.6086C14.6775 21.5455 14.6641 21.478 14.6641 21.4098V18.2929C14.6641 18.1551 14.7188 18.023 14.8162 17.9256C14.9136 17.8281 15.0458 17.7734 15.1835 17.7734H15.9683V17.3405C15.9683 16.9502 16.1234 16.5758 16.3994 16.2998C16.6754 16.0237 17.0498 15.8687 17.4402 15.8687H17.4403ZM17.7441 19.1587H17.2246V20.544H17.7441V19.1587ZM17.4403 16.3881C17.1878 16.3881 16.9455 16.4885 16.7669 16.6671C16.5883 16.8457 16.488 17.0879 16.488 17.3405V17.7734H18.3927V17.3405C18.3927 17.2154 18.3681 17.0916 18.3202 16.9761C18.2724 16.8605 18.2022 16.7555 18.1138 16.6671C18.0253 16.5786 17.9203 16.5085 17.8048 16.4606C17.6893 16.4128 17.5654 16.3881 17.4403 16.3881Z" fill="url(#paint1_linear_165_4820)"/>
</g>
<path d="M11.7344 2.62061C14.833 2.62084 17.3447 5.13329 17.3447 8.23193C17.3447 8.34641 17.3398 8.45998 17.333 8.57275C16.4752 8.21503 15.5338 8.01712 14.5459 8.01709H6.12891C6.24161 5.01767 8.70739 2.62061 11.7344 2.62061ZM10.4893 6.43799L11.7344 7.68408L12.9795 6.43799L11.7344 5.19287L10.4893 6.43799Z" fill="url(#paint2_linear_165_4820)"/>
<defs>
<linearGradient id="paint0_linear_165_4820" x1="1.97656" y1="14.4558" x2="21.5599" y2="14.4558" gradientUnits="userSpaceOnUse">
<stop stop-color="#B408D7"/>
<stop offset="1" stop-color="#576AF4"/>
</linearGradient>
<linearGradient id="paint1_linear_165_4820" x1="14.6641" y1="18.2438" x2="20.2052" y2="18.2438" gradientUnits="userSpaceOnUse">
<stop stop-color="#B408D7"/>
<stop offset="1" stop-color="#576AF4"/>
</linearGradient>
<linearGradient id="paint2_linear_165_4820" x1="6.12891" y1="4.95329" x2="17.3447" y2="4.95329" gradientUnits="userSpaceOnUse">
<stop stop-color="#B408D7"/>
<stop offset="1" stop-color="#576AF4"/>
</linearGradient>
<clipPath id="clip0_165_4820">
<rect width="7.27273" height="7.27273" fill="white" transform="translate(13.7969 15.3472)"/>
</clipPath>
</defs>
</svg>
