<svg width="24" height="25" viewBox="0 0 24 25" fill="none" xmlns="http://www.w3.org/2000/svg">
<path d="M10.9863 3.21731C11.6121 2.84928 12.3879 2.84928 13.0137 3.21731L19.5137 7.04055C20.1245 7.39986 20.4999 8.05552 20.5 8.76419V16.4771C20.4998 17.1856 20.1244 17.8414 19.5137 18.2007L13.0137 22.024C12.3879 22.392 11.6121 22.392 10.9863 22.024L4.48633 18.2007C3.87559 17.8414 3.50015 17.1856 3.5 16.4771V8.76419C3.50007 8.05552 3.87549 7.39986 4.48633 7.04055L10.9863 3.21731ZM8 12.8706C7.58579 12.8706 7.25 13.2064 7.25 13.6206V15.6206C7.25001 16.0348 7.58579 16.3706 8 16.3706C8.41421 16.3706 8.74999 16.0348 8.75 15.6206V13.6206C8.75 13.2064 8.41421 12.8706 8 12.8706ZM12 10.8706C11.5858 10.8706 11.25 11.2064 11.25 11.6206V15.6206C11.25 16.0348 11.5858 16.3706 12 16.3706C12.4142 16.3706 12.75 16.0348 12.75 15.6206V11.6206C12.75 11.2064 12.4142 10.8706 12 10.8706ZM16 8.87063C15.5858 8.87063 15.25 9.20642 15.25 9.62063V15.6206C15.25 16.0348 15.5858 16.3706 16 16.3706C16.4142 16.3706 16.75 16.0348 16.75 15.6206V9.62063C16.75 9.20642 16.4142 8.87063 16 8.87063Z" fill="white" fill-opacity="0.7"/>
</svg>
