<svg width="24" height="25" viewBox="0 0 24 25" fill="none" xmlns="http://www.w3.org/2000/svg">
<path d="M10.9863 3.21683C11.612 2.84895 12.388 2.84895 13.0137 3.21683L19.5137 7.04007C20.1246 7.3994 20.5 8.05594 20.5 8.76468V16.4766C20.5 17.1853 20.1245 17.8409 19.5137 18.2002L13.0137 22.0244C12.388 22.3923 11.612 22.3923 10.9863 22.0244L4.48633 18.2002C3.87546 17.8409 3.5 17.1853 3.5 16.4766V8.76468C3.5 8.05594 3.87544 7.3994 4.48633 7.04007L10.9863 3.21683ZM8 12.8701C7.58593 12.8701 7.25024 13.2061 7.25 13.6201V15.6201C7.25 16.0344 7.58579 16.3701 8 16.3701C8.41421 16.3701 8.75 16.0344 8.75 15.6201V13.6201C8.74976 13.2061 8.41407 12.8701 8 12.8701ZM12 10.8701C11.5859 10.8701 11.2502 11.2061 11.25 11.6201V15.6201C11.25 16.0344 11.5858 16.3701 12 16.3701C12.4142 16.3701 12.75 16.0344 12.75 15.6201V11.6201C12.7498 11.2061 12.4141 10.8701 12 10.8701ZM16 8.87015C15.5859 8.87015 15.2502 9.20614 15.25 9.62015V15.6201C15.25 16.0344 15.5858 16.3701 16 16.3701C16.4142 16.3701 16.75 16.0344 16.75 15.6201V9.62015C16.7498 9.20614 16.4141 8.87015 16 8.87015Z" fill="url(#paint0_linear_165_4850)"/>
<defs>
<linearGradient id="paint0_linear_165_4850" x1="3.5" y1="10.528" x2="20.5" y2="10.528" gradientUnits="userSpaceOnUse">
<stop stop-color="#B408D7"/>
<stop offset="1" stop-color="#576AF4"/>
</linearGradient>
</defs>
</svg>
