<svg width="24" height="25" viewBox="0 0 24 25" fill="none" xmlns="http://www.w3.org/2000/svg">
<path d="M14.4424 9.65564C17.0333 9.65574 19.2029 11.4592 19.7646 13.8793L20.1777 13.5629C20.4523 13.3528 20.8455 13.4055 21.0557 13.6801C21.2656 13.9546 21.213 14.3479 20.9385 14.558L19.9014 15.3519C19.8459 16.6778 19.3179 17.8815 18.4814 18.7992L17.1465 21.1752C16.9918 21.4503 16.7004 21.6204 16.3848 21.6205H14.8262C14.585 21.6204 14.3898 21.4251 14.3896 21.184V20.5834H9.375V21.184C9.37486 21.4252 9.1797 21.6205 8.93848 21.6205H7.41797C7.08245 21.6205 6.77659 21.4285 6.63086 21.1263L5.70898 19.2133C5.25188 18.8088 4.86267 18.3291 4.56152 17.7933L2.77148 16.6781C2.51532 16.5186 2.35938 16.2377 2.35938 15.9359V13.7357C2.35943 13.4946 2.55481 13.2994 2.7959 13.2992H4.1748C4.37935 12.7203 4.6792 12.186 5.05469 11.7152L4.0918 10.0492C3.99084 9.87453 4.11671 9.65592 4.31836 9.65564H14.4424ZM7.4248 12.9408C6.82889 12.9409 6.34583 13.424 6.3457 14.0199C6.3457 14.6159 6.82881 15.0989 7.4248 15.099C8.02091 15.099 8.50391 14.616 8.50391 14.0199C8.50378 13.4239 8.02083 12.9408 7.4248 12.9408Z" fill="url(#paint0_linear_165_4795)"/>
<path d="M11.7402 2.96631C14.7189 2.96634 17.1338 5.38114 17.1338 8.35986C17.1338 8.46975 17.1286 8.57876 17.1221 8.68701C16.2979 8.34359 15.3934 8.15381 14.4443 8.15381H6.35156C6.45985 5.27054 8.83048 2.96631 11.7402 2.96631ZM10.5439 6.63623L11.7412 7.8335L12.9385 6.63623L11.7412 5.43896L10.5439 6.63623Z" fill="url(#paint1_linear_165_4795)"/>
<defs>
<linearGradient id="paint0_linear_165_4795" x1="2.35938" y1="14.3447" x2="21.1843" y2="14.3447" gradientUnits="userSpaceOnUse">
<stop stop-color="#B408D7"/>
<stop offset="1" stop-color="#576AF4"/>
</linearGradient>
<linearGradient id="paint1_linear_165_4795" x1="6.35156" y1="5.20829" x2="17.1338" y2="5.20829" gradientUnits="userSpaceOnUse">
<stop stop-color="#B408D7"/>
<stop offset="1" stop-color="#576AF4"/>
</linearGradient>
</defs>
</svg>
