<svg width="24" height="25" viewBox="0 0 24 25" fill="none" xmlns="http://www.w3.org/2000/svg">
<path fill-rule="evenodd" clip-rule="evenodd" d="M19.1016 22.7557C19.47 23.1365 19.2002 23.7729 18.6704 23.7729L10.1927 23.7729C9.6629 23.7729 9.3931 23.1365 9.7615 22.7557L14.0004 18.3748C14.2362 18.1311 14.6269 18.1311 14.8628 18.3748L19.1016 22.7557Z" fill="url(#paint0_linear_165_4897)"/>
<path d="M6.33796 4.2417C8.26458 4.43485 11.7637 5.06293 14.6641 7.10791L15.1426 6.63037C15.3379 6.43516 15.6544 6.43516 15.8497 6.63037L16.2764 7.05713L16.6827 6.65088C17.0802 6.25333 17.7245 6.25342 18.1221 6.65088C18.5197 7.04847 18.5197 7.69274 18.1221 8.09033L17.7159 8.49658L17.9708 8.75147C18.166 8.94672 18.166 9.26323 17.9708 9.4585L17.4923 9.93604C19.5376 12.8366 20.1663 16.3354 20.3594 18.2622C20.3919 18.5864 19.964 18.6946 19.8135 18.4058C19.0555 16.9489 17.608 14.4701 15.4444 11.9849L15.1426 12.2876C14.9474 12.4826 14.6308 12.4826 14.4356 12.2876L14.1798 12.0317L3.16022 23.0532C2.76264 23.4508 2.11738 23.4508 1.71979 23.0532C1.32247 22.6558 1.32267 22.0114 1.71979 21.6138L12.7403 10.5923L12.3145 10.1655C12.1193 9.97026 12.1193 9.65375 12.3145 9.4585L12.6153 9.15674C10.1302 6.99335 7.65225 5.5457 6.19538 4.7876C5.90646 4.63726 6.01408 4.20963 6.33796 4.2417Z" fill="url(#paint1_linear_165_4897)"/>
<defs>
<linearGradient id="paint0_linear_165_4897" x1="15.654" y1="17.9292" x2="15.654" y2="23.7729" gradientUnits="userSpaceOnUse">
<stop stop-color="#B408D7"/>
<stop offset="1" stop-color="#576AF4"/>
</linearGradient>
<linearGradient id="paint1_linear_165_4897" x1="1.42188" y1="11.7299" x2="20.3613" y2="11.7299" gradientUnits="userSpaceOnUse">
<stop stop-color="#B408D7"/>
<stop offset="1" stop-color="#576AF4"/>
</linearGradient>
</defs>
</svg>
