<svg width="16" height="16" viewBox="0 0 16 16" fill="none" xmlns="http://www.w3.org/2000/svg">
<path d="M15.1113 0.565918C15.6021 0.56607 15.9999 1.08322 16 1.72119V10.9663C15.9998 11.6042 15.602 12.1214 15.1113 12.1216H0.888672C0.397952 12.1214 0.000162487 11.6042 0 10.9663V1.72119C0.000117216 1.08322 0.397924 0.56607 0.888672 0.565918H15.1113ZM3.55566 7.89795C3.18747 7.89795 2.88867 8.19675 2.88867 8.56494C2.88867 8.93313 3.18747 9.23193 3.55566 9.23193H12.4443L12.5791 9.21826C12.8828 9.15604 13.1113 8.88706 13.1113 8.56494C13.1113 8.24283 12.8828 7.97384 12.5791 7.91162L12.4443 7.89795H3.55566ZM3.55566 3.45264C3.18747 3.45264 2.88867 3.75144 2.88867 4.11963C2.88867 4.48782 3.18747 4.78662 3.55566 4.78662H7.11133L7.24512 4.77295C7.54914 4.71097 7.77832 4.44196 7.77832 4.11963C7.77832 3.79729 7.54914 3.52829 7.24512 3.46631L7.11133 3.45264H3.55566Z" fill="url(#paint0_linear_165_4860)"/>
<rect y="13.8979" width="16" height="1.77778" rx="0.888889" fill="url(#paint1_linear_165_4860)"/>
<defs>
<linearGradient id="paint0_linear_165_4860" x1="0" y1="5.09466" x2="16" y2="5.09466" gradientUnits="userSpaceOnUse">
<stop stop-color="#B408D7"/>
<stop offset="1" stop-color="#576AF4"/>
</linearGradient>
<linearGradient id="paint1_linear_165_4860" x1="0" y1="14.5947" x2="16" y2="14.5947" gradientUnits="userSpaceOnUse">
<stop stop-color="#B408D7"/>
<stop offset="1" stop-color="#576AF4"/>
</linearGradient>
</defs>
</svg>
