<svg width="24" height="25" viewBox="0 0 24 25" fill="none" xmlns="http://www.w3.org/2000/svg">
<path d="M12.6833 19.879C12.9772 19.6701 12.8151 19.2339 12.4577 19.1859C8.80382 18.6954 5.91097 15.8027 5.42014 12.149C5.37213 11.7915 4.93593 11.6294 4.72705 11.9234C4.06502 12.8552 3.67578 13.9944 3.67578 15.2245C3.67578 18.3758 6.23045 20.9305 9.38179 20.9305C10.612 20.9305 11.7514 20.5412 12.6833 19.879Z" fill="url(#paint0_linear_165_4915)"/>
<path d="M13.5635 4.54639C17.1539 4.54639 20.0644 7.45697 20.0645 11.0474C20.0645 14.6378 17.1539 17.5483 13.5635 17.5483C9.97308 17.5483 7.0625 14.6378 7.0625 11.0474C7.06252 7.45698 9.9731 4.54641 13.5635 4.54639ZM11.707 11.5132H13.0996V14.2983L15.4219 10.5835H14.0293V7.79834L11.707 11.5132Z" fill="url(#paint1_linear_165_4915)"/>
<path d="M14.9745 19.7826C15.3383 20.1285 15.9135 20.1237 16.2706 19.7667L17.9106 18.1267L17.4852 17.7013C17.482 17.6981 17.4798 17.6936 17.477 17.6903L16.5972 16.8105L16.5986 16.8091L17.4687 17.6792C17.3991 17.5828 17.4537 17.4414 17.5778 17.4237L19.3359 17.1724C19.4438 17.1569 19.5364 17.2495 19.5209 17.3574L19.2703 19.1162C19.2512 19.2495 19.0879 19.304 18.9927 19.2087L18.5659 18.782L16.9266 20.4213C16.564 20.7839 15.9759 20.7837 15.6132 20.4213L14.9745 19.7826Z" fill="url(#paint2_linear_165_4915)"/>
<path d="M8.46077 5.58723C8.09804 5.22509 7.50988 5.22473 7.14737 5.58723L5.50804 7.22656L5.93272 7.65124C6.02797 7.74648 5.97353 7.90979 5.84019 7.92883L4.08209 8.18019C3.97422 8.1956 3.88162 8.103 3.89703 7.99512L4.14769 6.23633C4.16674 6.103 4.33004 6.04856 4.42529 6.1438L4.85204 6.57055L6.49136 4.93123C6.85395 4.56864 7.44205 4.56884 7.80476 4.93123L8.46077 5.58723Z" fill="url(#paint3_linear_165_4915)"/>
<defs>
<linearGradient id="paint0_linear_165_4915" x1="3.67578" y1="15.0067" x2="13.4177" y2="15.0067" gradientUnits="userSpaceOnUse">
<stop stop-color="#B408D7"/>
<stop offset="1" stop-color="#576AF4"/>
</linearGradient>
<linearGradient id="paint1_linear_165_4915" x1="7.0625" y1="9.64194" x2="20.0645" y2="9.64194" gradientUnits="userSpaceOnUse">
<stop stop-color="#B408D7"/>
<stop offset="1" stop-color="#576AF4"/>
</linearGradient>
<linearGradient id="paint2_linear_165_4915" x1="18.1967" y1="20.2364" x2="15.684" y2="17.7237" gradientUnits="userSpaceOnUse">
<stop stop-color="#B408D7"/>
<stop offset="1" stop-color="#576AF4"/>
</linearGradient>
<linearGradient id="paint3_linear_165_4915" x1="5.22124" y1="5.11617" x2="7.07653" y2="6.97147" gradientUnits="userSpaceOnUse">
<stop stop-color="#B408D7"/>
<stop offset="1" stop-color="#576AF4"/>
</linearGradient>
</defs>
</svg>
