<svg width="30" height="30" viewBox="0 0 30 30" fill="none" xmlns="http://www.w3.org/2000/svg">
<path d="M2.7824 14.2479L17.6737 7.94787C19.1437 7.28537 24.1299 5.18542 24.1299 5.18542C24.1299 5.18542 26.4299 4.26079 26.2386 6.49829C26.1749 7.42329 25.6636 10.6353 25.1524 14.1228L23.5537 24.4353C23.5537 24.4353 23.4261 25.9483 22.3399 26.2108C21.2536 26.4733 19.4637 25.2856 19.1437 25.0231C18.8887 24.8356 14.3512 21.8728 12.6887 20.4228C12.2412 20.0353 11.7299 19.2482 12.7524 18.3232C15.0537 16.1607 17.8024 13.4607 19.4636 11.7607C20.2311 10.9732 20.9974 9.12285 17.8024 11.3603L8.7899 17.5981C8.7899 17.5981 7.7674 18.2607 5.8499 17.6732C3.9324 17.0732 1.69615 16.2853 1.69615 16.2853C1.69615 16.2853 0.162398 15.2979 2.7824 14.2479Z" fill="#161616"/>
</svg>
