<svg width="24" height="25" viewBox="0 0 24 25" fill="none" xmlns="http://www.w3.org/2000/svg">
<path d="M14.2862 9.16691C13.9911 8.91638 13.6547 8.7139 13.2841 8.56633C12.3987 8.21285 11.4309 8.22315 10.5592 8.59722C8.76094 9.36595 7.94416 11.4594 8.73348 13.2645C9.52624 15.0662 11.63 15.9071 13.4282 15.1349C15.2265 14.3627 16.0433 12.2727 15.254 10.471C15.0309 9.96309 14.7015 9.52039 14.2862 9.17034V9.16691ZM12.3781 12.7429C12.1436 12.8418 11.8795 12.8443 11.6431 12.7499C11.4067 12.6554 11.217 12.4717 11.1152 12.2384C10.9024 11.7545 11.122 11.1917 11.6059 10.9824C12.0898 10.7764 12.6561 10.9995 12.8689 11.4868C13.0816 11.9707 12.862 12.5335 12.3781 12.7429ZM21.3867 14.8741L20.4223 15.1417L20.4876 14.6476L19.7325 14.8912L19.7703 14.4039L19.053 14.6647L19.1114 14.1191L18.6035 13.9681C18.0441 15.7698 16.7537 17.3244 14.9142 18.1583H14.9245C19.2933 17.4926 21.3043 15.7595 21.3043 15.7595L21.7162 14.929L21.3901 14.8741H21.3867ZM17.7352 9.40027C17.35 8.51828 16.7677 7.73637 16.033 7.11466C14.2588 5.60808 11.7226 5.13449 9.46447 6.10227C6.29687 7.46128 4.8555 11.1471 6.24883 14.3215C7.64216 17.496 11.352 18.9751 14.5196 17.6195C17.6872 16.2605 19.1285 12.5747 17.7352 9.40027ZM13.6033 15.5295C12.1653 16.1473 10.5489 15.8453 9.41642 14.8844C8.94878 14.4883 8.57785 13.9906 8.33196 13.4293C7.44311 11.4045 8.36284 9.05709 10.3808 8.19226C11.3588 7.77358 12.4433 7.75985 13.4385 8.15794C14.4338 8.55604 15.2197 9.31448 15.6487 10.2926C16.5375 12.3173 15.6178 14.6647 13.5998 15.5295H13.6033ZM18.3358 9.14288C18.6755 9.92191 18.8574 10.725 18.902 11.5246C19.657 8.64183 18.4662 4.29025 18.4662 4.29025L17.797 3.6382L17.6494 3.92991L17.6185 4.93201L17.1655 4.71237L17.1758 5.50856L16.7228 5.31981L16.7571 6.08511L16.2527 5.85861L15.9781 6.26013C17.0108 6.991 17.8257 7.98855 18.3358 9.14632V9.14288ZM7.23033 16.8234C8.48296 19.3664 11.1804 21.7824 11.1804 21.7824L12.0933 21.9677L12.0555 21.6382L11.5339 20.7768L12.0281 20.7151L11.5853 20.0493L12.0658 19.9601L11.6162 19.3355L12.1585 19.2531L12.1653 18.7761C10.47 18.8001 8.81585 18.203 7.52204 17.1048C7.41909 17.0155 7.32299 16.916 7.22347 16.8199L7.23033 16.8234ZM5.74778 8.82372C3.71956 10.8039 2.3125 14.2186 2.3125 14.2186L2.44977 15.1383L2.74834 14.9976L3.38667 14.2289L3.61317 14.675L4.0902 14.0436L4.33729 14.4691L4.77657 13.8479L5.04082 14.3353L5.50755 14.1843C5.18596 13.3195 5.04209 12.3988 5.08454 11.4771C5.127 10.5554 5.35491 9.65183 5.75464 8.82029L5.74778 8.82372ZM7.06561 4.29025L6.71556 4.64373L7.47056 4.90112L7.14797 5.2649L7.88239 5.48797L7.50831 5.88606L7.82061 6.30475C8.2393 5.99245 8.69916 5.7179 9.20021 5.5017C10.5935 4.90455 12.0761 4.81189 13.4591 5.12762C10.9264 3.58673 6.72242 3.271 6.72242 3.271L5.89192 3.68282L6.12185 3.91961L7.06217 4.28682L7.06561 4.29025Z" fill="url(#paint0_linear_165_4909)"/>
<defs>
<linearGradient id="paint0_linear_165_4909" x1="2.3125" y1="10.5984" x2="21.7162" y2="10.5984" gradientUnits="userSpaceOnUse">
<stop stop-color="#B408D7"/>
<stop offset="1" stop-color="#576AF4"/>
</linearGradient>
</defs>
</svg>
